{"glyphs":{"0":{"ha":833,"x_min":51,"x_max":782,"o":"m 417 -15 q 145 117 239 -15 q 51 493 51 250 q 94 767 51 656 q 217 937 136 879 q 417 994 299 994 q 689 866 596 994 q 782 493 782 738 q 740 217 782 331 q 617 44 697 104 q 417 -15 536 -15 m 417 160 q 536 240 497 160 q 575 493 575 319 q 536 743 575 667 q 417 819 497 819 q 297 743 336 819 q 258 493 258 667 q 297 240 258 319 q 417 160 336 160 z "},"1":{"ha":833,"x_min":119,"x_max":790,"o":"m 218 0 q 150 24 174 0 q 126 89 126 47 q 150 154 126 132 q 218 176 174 176 l 358 176 l 358 803 l 460 803 l 257 679 q 198 664 225 660 q 151 688 171 668 q 126 734 132 707 q 131 788 119 761 q 172 835 142 815 l 365 951 q 424 981 394 969 q 483 992 454 992 q 549 970 525 992 q 574 904 574 949 l 574 176 l 700 176 q 767 154 743 176 q 790 89 790 132 q 767 23 790 46 q 700 0 743 0 l 218 0 z "},"2":{"ha":833,"x_min":65,"x_max":781,"o":"m 192 0 q 116 24 140 0 q 92 96 92 49 q 107 153 92 126 q 149 207 122 179 l 410 482 q 494 593 468 544 q 519 690 519 642 q 480 783 519 751 q 365 815 440 815 q 283 803 325 815 q 194 765 240 792 q 138 753 164 749 q 94 777 113 758 q 71 822 76 796 q 76 875 65 849 q 118 919 88 901 q 251 976 179 957 q 394 994 324 994 q 579 962 504 994 q 693 867 654 929 q 732 714 732 804 q 714 600 732 656 q 658 488 696 544 q 557 368 619 432 l 314 121 l 314 176 l 690 176 q 758 154 735 176 q 781 89 781 132 q 758 23 781 46 q 690 0 735 0 l 192 0 z "},"3":{"ha":833,"x_min":50,"x_max":761,"o":"m 393 -15 q 244 2 319 -15 q 113 51 168 19 q 63 98 76 71 q 53 151 50 125 q 75 198 57 178 q 122 224 93 218 q 185 213 150 229 q 288 175 239 186 q 385 164 336 164 q 478 178 440 164 q 535 221 515 193 q 554 290 554 249 q 514 378 554 349 q 396 407 474 407 l 314 407 q 244 430 268 407 q 219 493 219 453 q 244 558 219 535 q 314 581 268 581 l 375 581 q 455 595 422 581 q 506 636 488 610 q 525 701 525 663 q 487 786 525 757 q 376 815 449 815 q 289 805 332 815 q 196 768 246 794 q 139 758 165 753 q 95 783 113 764 q 73 828 78 803 q 80 881 68 854 q 124 924 92 907 q 253 976 183 958 q 396 994 324 994 q 576 963 501 994 q 692 872 651 931 q 732 729 732 813 q 710 625 732 672 q 648 545 688 578 q 551 499 608 513 l 551 517 q 706 435 650 500 q 761 271 761 369 q 717 119 761 183 q 590 19 672 54 q 393 -15 507 -15 z "},"4":{"ha":833,"x_min":39,"x_max":818,"o":"m 569 -12 q 491 15 519 -12 q 463 96 463 43 l 463 175 l 151 175 q 69 198 100 175 q 39 268 39 221 q 51 325 39 296 q 96 397 64 354 l 456 921 q 508 974 479 956 q 575 992 538 992 q 647 965 619 992 q 674 883 674 938 l 674 344 l 725 344 q 794 323 771 344 q 818 260 818 301 q 795 197 818 219 q 725 175 772 175 l 674 175 l 674 96 q 647 15 674 43 q 569 -12 619 -12 m 463 344 l 463 726 l 503 726 l 207 292 l 207 344 l 463 344 z "},"5":{"ha":833,"x_min":79,"x_max":788,"o":"m 418 -15 q 272 3 347 -15 q 135 57 197 21 q 91 101 103 75 q 84 156 79 128 q 106 203 89 183 q 151 229 124 224 q 211 217 178 235 q 310 178 260 192 q 414 164 361 164 q 504 182 467 164 q 561 232 542 200 q 581 307 581 264 q 538 414 581 374 q 424 454 496 454 q 351 442 388 454 q 275 401 314 431 q 239 381 261 390 q 192 371 217 371 q 128 391 149 371 q 107 450 107 411 l 107 886 q 131 956 107 932 q 200 979 156 979 l 646 979 q 715 956 692 979 q 739 890 739 933 q 715 826 739 849 q 646 803 692 803 l 314 803 l 314 538 l 261 538 q 353 604 296 581 q 478 628 410 628 q 640 588 571 628 q 749 478 710 549 q 788 314 788 407 q 743 142 788 217 q 615 26 699 68 q 418 -15 532 -15 z "},"6":{"ha":833,"x_min":63,"x_max":785,"o":"m 454 -15 q 242 43 329 -15 q 108 211 154 101 q 63 476 63 321 q 92 696 63 600 q 178 858 122 792 q 315 960 233 925 q 497 994 396 994 q 618 978 557 994 q 732 928 679 961 q 770 888 760 914 q 776 836 781 863 q 756 790 772 810 q 713 763 739 769 q 654 772 688 757 q 572 806 611 796 q 494 815 532 815 q 369 782 421 815 q 292 682 318 749 q 267 517 267 615 l 267 426 l 247 426 q 294 540 260 493 q 381 611 328 586 q 497 636 433 636 q 645 595 581 636 q 747 483 710 554 q 785 319 785 411 q 743 147 785 222 q 627 28 701 71 q 454 -15 553 -15 m 443 153 q 519 172 486 153 q 569 228 551 192 q 586 311 586 264 q 569 394 586 358 q 519 449 551 429 q 443 469 486 469 q 367 449 400 469 q 317 394 335 429 q 299 311 299 358 q 317 228 299 264 q 367 172 335 192 q 443 153 400 153 z "},"7":{"ha":833,"x_min":54,"x_max":778,"o":"m 243 -12 q 178 6 203 -12 q 149 56 153 25 q 165 124 144 86 l 567 868 l 567 801 l 147 801 q 78 824 101 801 q 54 890 54 847 q 78 956 54 933 q 147 979 101 979 l 676 979 q 749 956 721 979 q 778 889 778 932 q 767 824 778 851 q 740 764 757 796 l 365 57 q 317 4 346 21 q 243 -12 288 -12 z "},"8":{"ha":833,"x_min":44,"x_max":789,"o":"m 417 -15 q 217 18 300 -15 q 89 115 133 51 q 44 267 44 178 q 73 390 44 336 q 151 478 101 444 q 264 519 201 511 l 264 483 q 123 569 176 503 q 69 728 69 635 q 112 871 69 811 q 233 963 154 931 q 417 994 311 994 q 601 963 524 994 q 722 871 679 931 q 765 728 765 811 q 741 614 765 665 q 673 529 717 563 q 572 486 629 496 l 572 519 q 728 438 668 506 q 789 267 789 369 q 744 115 789 178 q 617 18 700 51 q 417 -15 533 -15 m 417 150 q 547 183 503 150 q 592 282 592 217 q 547 380 592 347 q 417 413 503 413 q 286 380 331 413 q 242 282 242 347 q 286 183 242 217 q 417 150 331 150 m 417 578 q 498 593 464 578 q 549 638 532 608 q 567 704 567 667 q 527 796 567 763 q 417 829 488 829 q 307 796 346 829 q 268 704 268 763 q 307 612 268 646 q 417 578 346 578 z "},"9":{"ha":833,"x_min":49,"x_max":771,"o":"m 336 -15 q 215 1 276 -15 q 101 51 154 18 q 63 91 74 65 q 57 143 53 117 q 78 190 61 169 q 120 216 94 210 q 179 207 146 222 q 262 174 222 183 q 339 164 301 164 q 464 197 413 164 q 541 298 515 231 q 567 463 567 365 l 567 553 l 586 553 q 540 440 575 488 q 453 368 506 393 q 336 343 400 343 q 189 384 254 343 q 86 497 124 425 q 49 660 49 569 q 90 833 49 757 q 207 951 132 908 q 379 994 282 994 q 592 937 506 994 q 725 769 679 879 q 771 503 771 658 q 741 283 771 379 q 656 121 711 188 q 519 19 600 54 q 336 -15 438 -15 m 392 511 q 467 531 435 511 q 518 588 500 551 q 536 669 536 624 q 518 753 536 717 q 467 808 500 789 q 392 828 435 828 q 317 808 349 828 q 266 753 285 789 q 247 669 247 717 q 266 588 247 624 q 317 531 285 551 q 392 511 349 511 z "},"A":{"ha":1046,"x_min":26,"x_max":1022,"o":"m 126 -12 q 63 6 88 -12 q 33 54 39 24 q 44 122 26 85 l 400 901 q 453 970 422 949 q 524 992 483 992 q 594 970 564 992 q 646 901 625 949 l 1004 122 q 1017 53 1022 85 q 989 5 1013 22 q 928 -12 965 -12 q 855 10 881 -12 q 810 79 829 32 l 726 272 l 813 213 l 233 213 l 319 272 l 238 79 q 194 9 217 31 q 126 -12 171 -12 m 521 750 l 343 326 l 306 381 l 740 381 l 703 326 l 524 750 l 521 750 z "},"Á":{"ha":1046,"x_min":26,"x_max":1022,"o":"m 126 -12 q 63 6 88 -12 q 33 54 39 24 q 44 122 26 85 l 400 901 q 453 970 422 949 q 524 992 483 992 q 594 970 564 992 q 646 901 625 949 l 1004 122 q 1017 53 1022 85 q 989 5 1013 22 q 928 -12 965 -12 q 855 10 881 -12 q 810 79 829 32 l 726 272 l 813 213 l 233 213 l 319 272 l 238 79 q 194 9 217 31 q 126 -12 171 -12 m 521 750 l 343 326 l 306 381 l 740 381 l 703 326 l 524 750 l 521 750 m 607 1072 q 563 1051 586 1051 q 520 1065 539 1050 q 496 1100 501 1079 q 506 1143 490 1121 l 606 1290 q 647 1323 622 1318 q 695 1319 671 1328 q 735 1291 719 1310 q 751 1249 750 1272 q 732 1204 753 1226 l 607 1072 z "},"Ă":{"ha":1046,"x_min":26,"x_max":1022,"o":"m 126 -12 q 63 6 88 -12 q 33 54 39 24 q 44 122 26 85 l 400 901 q 453 970 422 949 q 524 992 483 992 q 594 970 564 992 q 646 901 625 949 l 1004 122 q 1017 53 1022 85 q 989 5 1013 22 q 928 -12 965 -12 q 855 10 881 -12 q 810 79 829 32 l 726 272 l 813 213 l 233 213 l 319 272 l 238 79 q 194 9 217 31 q 126 -12 171 -12 m 521 750 l 343 326 l 306 381 l 740 381 l 703 326 l 524 750 l 521 750 m 524 1056 q 361 1102 429 1056 q 269 1232 293 1149 q 275 1285 260 1264 q 314 1308 290 1306 q 352 1303 338 1311 q 375 1284 367 1296 q 389 1261 383 1272 q 442 1197 404 1217 q 524 1176 479 1176 q 606 1197 568 1176 q 658 1261 643 1217 q 672 1284 664 1272 q 695 1303 681 1296 q 733 1308 710 1311 q 772 1285 757 1306 q 778 1232 788 1264 q 687 1102 756 1149 q 524 1056 618 1056 z "},"Ắ":{"ha":1046,"x_min":26,"x_max":1022,"o":"m 126 -12 q 63 6 88 -12 q 33 54 39 24 q 44 122 26 85 l 400 901 q 453 970 422 949 q 524 992 483 992 q 594 970 564 992 q 646 901 625 949 l 1004 122 q 1017 53 1022 85 q 989 5 1013 22 q 928 -12 965 -12 q 855 10 881 -12 q 810 79 829 32 l 726 272 l 813 213 l 233 213 l 319 272 l 238 79 q 194 9 217 31 q 126 -12 171 -12 m 521 750 l 343 326 l 306 381 l 740 381 l 703 326 l 524 750 l 521 750 m 524 1056 q 369 1099 432 1056 q 286 1217 307 1143 q 288 1265 278 1246 q 321 1286 299 1283 q 359 1280 344 1289 q 386 1246 374 1271 q 436 1190 403 1211 q 524 1168 469 1168 q 612 1190 578 1168 q 661 1246 646 1211 q 689 1279 674 1269 q 726 1286 704 1289 q 760 1266 749 1283 q 763 1219 771 1249 q 717 1133 750 1169 q 635 1076 683 1096 q 524 1056 586 1056 m 579 1243 q 540 1221 561 1224 q 500 1229 518 1218 q 475 1259 482 1240 q 481 1300 468 1278 l 538 1410 q 574 1445 551 1438 q 621 1446 597 1453 q 661 1422 644 1439 q 680 1381 678 1404 q 660 1333 682 1357 l 579 1243 z "},"Ặ":{"ha":1046,"x_min":26,"x_max":1022,"o":"m 126 -12 q 63 6 88 -12 q 33 54 39 24 q 44 122 26 85 l 400 901 q 453 970 422 949 q 524 992 483 992 q 594 970 564 992 q 646 901 625 949 l 1004 122 q 1017 53 1022 85 q 989 5 1013 22 q 928 -12 965 -12 q 855 10 881 -12 q 810 79 829 32 l 726 272 l 813 213 l 233 213 l 319 272 l 238 79 q 194 9 217 31 q 126 -12 171 -12 m 521 750 l 343 326 l 306 381 l 740 381 l 703 326 l 524 750 l 521 750 m 524 -304 q 447 -278 474 -304 q 419 -206 419 -253 q 447 -132 419 -157 q 524 -107 474 -107 q 601 -132 575 -107 q 628 -206 628 -157 q 601 -278 628 -253 q 524 -304 575 -304 m 524 1056 q 361 1102 429 1056 q 269 1232 293 1149 q 275 1285 260 1264 q 314 1308 290 1306 q 352 1303 338 1311 q 375 1284 367 1296 q 389 1261 383 1272 q 442 1197 404 1217 q 524 1176 479 1176 q 606 1197 568 1176 q 658 1261 643 1217 q 672 1284 664 1272 q 695 1303 681 1296 q 733 1308 710 1311 q 772 1285 757 1306 q 778 1232 788 1264 q 687 1102 756 1149 q 524 1056 618 1056 z "},"Ằ":{"ha":1046,"x_min":26,"x_max":1022,"o":"m 126 -12 q 63 6 88 -12 q 33 54 39 24 q 44 122 26 85 l 400 901 q 453 970 422 949 q 524 992 483 992 q 594 970 564 992 q 646 901 625 949 l 1004 122 q 1017 53 1022 85 q 989 5 1013 22 q 928 -12 965 -12 q 855 10 881 -12 q 810 79 829 32 l 726 272 l 813 213 l 233 213 l 319 272 l 238 79 q 194 9 217 31 q 126 -12 171 -12 m 521 750 l 343 326 l 306 381 l 740 381 l 703 326 l 524 750 l 521 750 m 524 1056 q 369 1101 432 1056 q 285 1219 306 1146 q 288 1266 276 1249 q 321 1286 299 1283 q 359 1279 344 1289 q 386 1246 374 1269 q 436 1190 403 1211 q 524 1168 469 1168 q 612 1190 578 1168 q 661 1246 646 1211 q 688 1280 674 1271 q 726 1286 703 1289 q 760 1265 749 1283 q 761 1217 771 1246 q 715 1132 747 1168 q 633 1076 682 1096 q 524 1056 585 1056 m 468 1243 l 388 1333 q 367 1381 365 1357 q 386 1422 369 1404 q 426 1446 403 1439 q 473 1445 450 1453 q 510 1410 496 1438 l 567 1300 q 572 1259 579 1278 q 547 1229 565 1240 q 508 1221 529 1218 q 468 1243 486 1224 z "},"Ẳ":{"ha":1046,"x_min":26,"x_max":1022,"o":"m 126 -12 q 63 6 88 -12 q 33 54 39 24 q 44 122 26 85 l 400 901 q 453 970 422 949 q 524 992 483 992 q 594 970 564 992 q 646 901 625 949 l 1004 122 q 1017 53 1022 85 q 989 5 1013 22 q 928 -12 965 -12 q 855 10 881 -12 q 810 79 829 32 l 726 272 l 813 213 l 233 213 l 319 272 l 238 79 q 194 9 217 31 q 126 -12 171 -12 m 521 750 l 343 326 l 306 381 l 740 381 l 703 326 l 524 750 l 521 750 m 524 1056 q 369 1099 432 1056 q 286 1217 307 1143 q 288 1265 278 1246 q 321 1286 299 1283 q 359 1280 344 1289 q 386 1246 374 1271 q 436 1190 403 1211 q 524 1168 469 1168 q 612 1190 578 1168 q 661 1246 646 1211 q 689 1279 674 1269 q 726 1286 704 1289 q 760 1266 749 1283 q 763 1219 771 1249 q 717 1133 750 1169 q 635 1076 683 1096 q 524 1056 586 1056 m 569 1233 q 537 1225 554 1225 q 505 1232 519 1225 q 487 1250 490 1239 q 497 1274 483 1261 q 523 1301 515 1289 q 531 1328 531 1313 q 519 1349 531 1342 q 488 1356 508 1356 q 469 1354 479 1356 q 447 1351 458 1353 q 413 1352 426 1346 q 392 1375 399 1358 q 393 1406 386 1393 q 424 1426 400 1419 q 476 1437 449 1433 q 533 1440 503 1440 q 631 1421 596 1440 q 667 1361 667 1401 q 653 1313 667 1336 q 617 1269 639 1289 q 569 1233 594 1249 z "},"Ẵ":{"ha":1046,"x_min":26,"x_max":1022,"o":"m 126 -12 q 63 6 88 -12 q 33 54 39 24 q 44 122 26 85 l 400 901 q 453 970 422 949 q 524 992 483 992 q 594 970 564 992 q 646 901 625 949 l 1004 122 q 1017 53 1022 85 q 989 5 1013 22 q 928 -12 965 -12 q 855 10 881 -12 q 810 79 829 32 l 726 272 l 813 213 l 233 213 l 319 272 l 238 79 q 194 9 217 31 q 126 -12 171 -12 m 521 750 l 343 326 l 306 381 l 740 381 l 703 326 l 524 750 l 521 750 m 524 1056 q 384 1086 443 1056 q 297 1165 325 1117 q 290 1211 282 1192 q 319 1238 297 1231 q 360 1240 344 1246 q 393 1215 375 1233 q 444 1181 411 1193 q 524 1168 476 1168 q 603 1181 571 1168 q 654 1215 636 1193 q 688 1240 671 1233 q 728 1238 704 1246 q 758 1213 750 1231 q 753 1169 765 1194 q 666 1087 725 1118 q 524 1056 607 1056 m 322 1278 q 288 1294 300 1279 q 282 1335 275 1310 q 338 1413 299 1386 q 431 1440 376 1440 q 499 1426 468 1440 q 558 1399 531 1413 q 611 1386 586 1386 q 645 1392 629 1386 q 668 1411 661 1397 q 693 1436 681 1426 q 725 1443 706 1446 q 761 1427 749 1442 q 765 1386 774 1413 q 711 1308 750 1335 q 618 1281 672 1281 q 549 1294 581 1281 q 490 1322 517 1308 q 438 1335 463 1335 q 403 1329 418 1335 q 381 1310 388 1324 q 356 1285 369 1294 q 322 1278 343 1276 z "},"Ǎ":{"ha":1046,"x_min":26,"x_max":1022,"o":"m 126 -12 q 63 6 88 -12 q 33 54 39 24 q 44 122 26 85 l 400 901 q 453 970 422 949 q 524 992 483 992 q 594 970 564 992 q 646 901 625 949 l 1004 122 q 1017 53 1022 85 q 989 5 1013 22 q 928 -12 965 -12 q 855 10 881 -12 q 810 79 829 32 l 726 272 l 813 213 l 233 213 l 319 272 l 238 79 q 194 9 217 31 q 126 -12 171 -12 m 521 750 l 343 326 l 306 381 l 740 381 l 703 326 l 524 750 l 521 750 m 524 1043 q 458 1059 488 1043 q 404 1108 428 1075 l 315 1232 q 305 1275 299 1254 q 331 1308 311 1296 q 374 1319 350 1321 q 417 1294 397 1317 l 524 1172 l 632 1294 q 675 1319 651 1317 q 717 1308 699 1321 q 742 1276 736 1296 q 732 1232 749 1256 l 644 1108 q 591 1059 621 1075 q 524 1043 561 1043 z "},"Â":{"ha":1046,"x_min":26,"x_max":1022,"o":"m 126 -12 q 63 6 88 -12 q 33 54 39 24 q 44 122 26 85 l 400 901 q 453 970 422 949 q 524 992 483 992 q 594 970 564 992 q 646 901 625 949 l 1004 122 q 1017 53 1022 85 q 989 5 1013 22 q 928 -12 965 -12 q 855 10 881 -12 q 810 79 829 32 l 726 272 l 813 213 l 233 213 l 319 272 l 238 79 q 194 9 217 31 q 126 -12 171 -12 m 521 750 l 343 326 l 306 381 l 740 381 l 703 326 l 524 750 l 521 750 m 417 1074 q 373 1050 397 1051 q 330 1061 349 1049 q 305 1094 311 1074 q 315 1136 299 1114 l 404 1260 q 458 1309 428 1293 q 524 1325 488 1325 q 591 1309 561 1325 q 644 1260 621 1293 l 732 1136 q 743 1094 749 1114 q 719 1061 738 1074 q 676 1050 700 1049 q 632 1074 651 1051 l 524 1194 l 417 1074 z "},"Ấ":{"ha":1046,"x_min":26,"x_max":1022,"o":"m 126 -12 q 63 6 88 -12 q 33 54 39 24 q 44 122 26 85 l 400 901 q 453 970 422 949 q 524 992 483 992 q 594 970 564 992 q 646 901 625 949 l 1004 122 q 1017 53 1022 85 q 989 5 1013 22 q 928 -12 965 -12 q 855 10 881 -12 q 810 79 829 32 l 726 272 l 813 213 l 233 213 l 319 272 l 238 79 q 194 9 217 31 q 126 -12 171 -12 m 521 750 l 343 326 l 306 381 l 740 381 l 703 326 l 524 750 l 521 750 m 417 1069 q 375 1046 397 1049 q 336 1054 353 1043 q 315 1085 319 1065 q 326 1129 310 1106 l 406 1249 q 459 1299 431 1285 q 524 1313 488 1313 q 569 1307 549 1313 q 608 1287 590 1301 q 642 1249 626 1272 l 721 1129 q 733 1085 738 1106 q 713 1054 729 1065 q 674 1046 697 1043 q 631 1069 651 1049 l 524 1183 l 417 1069 m 793 1203 q 758 1181 778 1183 q 724 1188 739 1178 q 703 1215 708 1197 q 711 1258 699 1233 l 792 1403 q 826 1435 806 1428 q 867 1436 846 1442 q 901 1415 888 1431 q 917 1378 915 1400 q 900 1335 918 1357 l 793 1203 z "},"Ậ":{"ha":1046,"x_min":26,"x_max":1022,"o":"m 126 -12 q 63 6 88 -12 q 33 54 39 24 q 44 122 26 85 l 400 901 q 453 970 422 949 q 524 992 483 992 q 594 970 564 992 q 646 901 625 949 l 1004 122 q 1017 53 1022 85 q 989 5 1013 22 q 928 -12 965 -12 q 855 10 881 -12 q 810 79 829 32 l 726 272 l 813 213 l 233 213 l 319 272 l 238 79 q 194 9 217 31 q 126 -12 171 -12 m 521 750 l 343 326 l 306 381 l 740 381 l 703 326 l 524 750 l 521 750 m 524 -304 q 447 -278 474 -304 q 419 -206 419 -253 q 447 -132 419 -157 q 524 -107 474 -107 q 601 -132 575 -107 q 628 -206 628 -157 q 601 -278 628 -253 q 524 -304 575 -304 m 417 1074 q 373 1050 397 1051 q 330 1061 349 1049 q 305 1094 311 1074 q 315 1136 299 1114 l 404 1260 q 458 1309 428 1293 q 524 1325 488 1325 q 591 1309 561 1325 q 644 1260 621 1293 l 732 1136 q 743 1094 749 1114 q 719 1061 738 1074 q 676 1050 700 1049 q 632 1074 651 1051 l 524 1194 l 417 1074 z "},"Ầ":{"ha":1046,"x_min":26,"x_max":1022,"o":"m 126 -12 q 63 6 88 -12 q 33 54 39 24 q 44 122 26 85 l 400 901 q 453 970 422 949 q 524 992 483 992 q 594 970 564 992 q 646 901 625 949 l 1004 122 q 1017 53 1022 85 q 989 5 1013 22 q 928 -12 965 -12 q 855 10 881 -12 q 810 79 829 32 l 726 272 l 813 213 l 233 213 l 319 272 l 238 79 q 194 9 217 31 q 126 -12 171 -12 m 521 750 l 343 326 l 306 381 l 740 381 l 703 326 l 524 750 l 521 750 m 417 1069 q 375 1046 397 1049 q 336 1054 353 1043 q 315 1085 319 1065 q 326 1129 310 1106 l 406 1249 q 459 1299 431 1285 q 524 1313 488 1313 q 569 1307 549 1313 q 608 1287 590 1301 q 642 1249 626 1272 l 721 1129 q 733 1085 738 1106 q 713 1054 729 1065 q 674 1046 697 1043 q 631 1069 651 1049 l 524 1183 l 417 1069 m 750 1203 l 643 1335 q 626 1378 625 1357 q 642 1415 628 1400 q 676 1436 656 1431 q 716 1435 696 1442 q 750 1403 736 1428 l 831 1258 q 838 1215 843 1233 q 818 1188 833 1197 q 784 1181 803 1178 q 750 1203 765 1183 z "},"Ẩ":{"ha":1046,"x_min":26,"x_max":1022,"o":"m 126 -12 q 63 6 88 -12 q 33 54 39 24 q 44 122 26 85 l 400 901 q 453 970 422 949 q 524 992 483 992 q 594 970 564 992 q 646 901 625 949 l 1004 122 q 1017 53 1022 85 q 989 5 1013 22 q 928 -12 965 -12 q 855 10 881 -12 q 810 79 829 32 l 726 272 l 813 213 l 233 213 l 319 272 l 238 79 q 194 9 217 31 q 126 -12 171 -12 m 521 750 l 343 326 l 306 381 l 740 381 l 703 326 l 524 750 l 521 750 m 417 1069 q 375 1046 397 1049 q 336 1054 353 1043 q 315 1085 319 1065 q 326 1129 310 1106 l 406 1249 q 459 1299 431 1285 q 524 1313 488 1313 q 569 1307 549 1313 q 608 1287 590 1301 q 642 1249 626 1272 l 721 1129 q 733 1085 738 1106 q 713 1054 729 1065 q 674 1046 697 1043 q 631 1069 651 1049 l 524 1183 l 417 1069 m 771 1204 q 731 1199 751 1193 q 702 1219 710 1204 q 710 1251 694 1235 q 738 1283 726 1268 q 749 1313 749 1297 q 738 1335 749 1328 q 704 1342 726 1342 q 685 1341 696 1342 q 664 1338 675 1340 q 629 1338 643 1332 q 608 1361 615 1344 q 610 1394 603 1379 q 640 1414 618 1408 q 692 1424 665 1421 q 750 1426 719 1426 q 847 1407 813 1426 q 881 1344 881 1388 q 863 1290 881 1317 q 822 1241 846 1263 q 771 1204 797 1219 z "},"Ẫ":{"ha":1046,"x_min":26,"x_max":1022,"o":"m 126 -12 q 63 6 88 -12 q 33 54 39 24 q 44 122 26 85 l 400 901 q 453 970 422 949 q 524 992 483 992 q 594 970 564 992 q 646 901 625 949 l 1004 122 q 1017 53 1022 85 q 989 5 1013 22 q 928 -12 965 -12 q 855 10 881 -12 q 810 79 829 32 l 726 272 l 813 213 l 233 213 l 319 272 l 238 79 q 194 9 217 31 q 126 -12 171 -12 m 521 750 l 343 326 l 306 381 l 740 381 l 703 326 l 524 750 l 521 750 m 401 1058 q 349 1047 374 1039 q 317 1076 325 1054 q 326 1119 308 1097 l 396 1201 q 454 1246 422 1233 q 524 1258 486 1258 q 572 1253 550 1258 q 615 1235 594 1247 q 651 1201 635 1222 l 721 1119 q 733 1086 735 1103 q 717 1057 731 1069 q 686 1044 704 1044 q 646 1058 668 1043 l 524 1151 l 401 1058 m 322 1279 q 288 1297 300 1281 q 282 1338 275 1313 q 338 1415 299 1388 q 431 1442 376 1442 q 499 1428 468 1442 q 558 1401 531 1415 q 611 1388 586 1388 q 645 1394 629 1388 q 668 1414 661 1400 q 693 1438 681 1429 q 725 1446 706 1447 q 761 1430 749 1444 q 765 1389 774 1415 q 711 1310 750 1338 q 618 1283 672 1283 q 549 1297 581 1283 q 490 1324 517 1310 q 438 1338 463 1338 q 403 1331 418 1338 q 381 1311 388 1325 q 356 1288 369 1297 q 322 1279 343 1278 z "},"Ȁ":{"ha":1046,"x_min":26,"x_max":1022,"o":"m 126 -12 q 63 6 88 -12 q 33 54 39 24 q 44 122 26 85 l 400 901 q 453 970 422 949 q 524 992 483 992 q 594 970 564 992 q 646 901 625 949 l 1004 122 q 1017 53 1022 85 q 989 5 1013 22 q 928 -12 965 -12 q 855 10 881 -12 q 810 79 829 32 l 726 272 l 813 213 l 233 213 l 319 272 l 238 79 q 194 9 217 31 q 126 -12 171 -12 m 521 750 l 343 326 l 306 381 l 740 381 l 703 326 l 524 750 l 521 750 m 564 1076 l 463 1214 q 446 1262 443 1239 q 465 1301 449 1285 q 503 1322 481 1317 q 549 1319 526 1328 q 583 1285 572 1311 l 663 1126 q 666 1085 674 1104 q 640 1057 658 1067 q 601 1051 622 1047 q 564 1076 581 1056 m 349 1071 l 232 1214 q 213 1261 213 1239 q 229 1300 214 1283 q 267 1322 244 1317 q 311 1320 289 1328 q 347 1286 333 1313 l 433 1131 q 440 1090 446 1108 q 419 1060 435 1071 q 384 1050 404 1049 q 349 1071 364 1051 z "},"Ä":{"ha":1046,"x_min":26,"x_max":1022,"o":"m 126 -12 q 63 6 88 -12 q 33 54 39 24 q 44 122 26 85 l 400 901 q 453 970 422 949 q 524 992 483 992 q 594 970 564 992 q 646 901 625 949 l 1004 122 q 1017 53 1022 85 q 989 5 1013 22 q 928 -12 965 -12 q 855 10 881 -12 q 810 79 829 32 l 726 272 l 813 213 l 233 213 l 319 272 l 238 79 q 194 9 217 31 q 126 -12 171 -12 m 521 750 l 343 326 l 306 381 l 740 381 l 703 326 l 524 750 l 521 750 m 661 1078 q 588 1103 614 1078 q 563 1176 563 1129 q 588 1249 563 1224 q 661 1274 614 1274 q 733 1249 708 1274 q 758 1176 758 1224 q 733 1103 758 1129 q 661 1078 708 1078 m 388 1078 q 315 1103 340 1078 q 289 1176 289 1129 q 315 1249 289 1224 q 388 1274 340 1274 q 460 1249 435 1274 q 485 1176 485 1224 q 460 1103 485 1129 q 388 1078 435 1078 z "},"Ȧ":{"ha":1046,"x_min":26,"x_max":1022,"o":"m 126 -12 q 63 6 88 -12 q 33 54 39 24 q 44 122 26 85 l 400 901 q 453 970 422 949 q 524 992 483 992 q 594 970 564 992 q 646 901 625 949 l 1004 122 q 1017 53 1022 85 q 989 5 1013 22 q 928 -12 965 -12 q 855 10 881 -12 q 810 79 829 32 l 726 272 l 813 213 l 233 213 l 319 272 l 238 79 q 194 9 217 31 q 126 -12 171 -12 m 521 750 l 343 326 l 306 381 l 740 381 l 703 326 l 524 750 l 521 750 m 524 1085 q 447 1111 474 1085 q 419 1185 419 1138 q 447 1257 419 1232 q 524 1282 474 1282 q 601 1257 575 1282 q 628 1185 628 1232 q 601 1110 628 1136 q 524 1085 575 1085 z "},"Ạ":{"ha":1046,"x_min":26,"x_max":1022,"o":"m 126 -12 q 63 6 88 -12 q 33 54 39 24 q 44 122 26 85 l 400 901 q 453 970 422 949 q 524 992 483 992 q 594 970 564 992 q 646 901 625 949 l 1004 122 q 1017 53 1022 85 q 989 5 1013 22 q 928 -12 965 -12 q 855 10 881 -12 q 810 79 829 32 l 726 272 l 813 213 l 233 213 l 319 272 l 238 79 q 194 9 217 31 q 126 -12 171 -12 m 521 750 l 343 326 l 306 381 l 740 381 l 703 326 l 524 750 l 521 750 m 524 -304 q 447 -278 474 -304 q 419 -206 419 -253 q 447 -132 419 -157 q 524 -107 474 -107 q 601 -132 575 -107 q 628 -206 628 -157 q 601 -278 628 -253 q 524 -304 575 -304 z "},"À":{"ha":1046,"x_min":26,"x_max":1022,"o":"m 126 -12 q 63 6 88 -12 q 33 54 39 24 q 44 122 26 85 l 400 901 q 453 970 422 949 q 524 992 483 992 q 594 970 564 992 q 646 901 625 949 l 1004 122 q 1017 53 1022 85 q 989 5 1013 22 q 928 -12 965 -12 q 855 10 881 -12 q 810 79 829 32 l 726 272 l 813 213 l 233 213 l 319 272 l 238 79 q 194 9 217 31 q 126 -12 171 -12 m 521 750 l 343 326 l 306 381 l 740 381 l 703 326 l 524 750 l 521 750 m 442 1072 l 317 1204 q 297 1249 296 1226 q 314 1291 299 1272 q 353 1319 329 1310 q 401 1323 376 1328 q 443 1290 426 1318 l 543 1143 q 551 1100 557 1121 q 527 1065 546 1079 q 485 1051 508 1050 q 442 1072 461 1051 z "},"Ả":{"ha":1046,"x_min":26,"x_max":1022,"o":"m 126 -12 q 63 6 88 -12 q 33 54 39 24 q 44 122 26 85 l 400 901 q 453 970 422 949 q 524 992 483 992 q 594 970 564 992 q 646 901 625 949 l 1004 122 q 1017 53 1022 85 q 989 5 1013 22 q 928 -12 965 -12 q 855 10 881 -12 q 810 79 829 32 l 726 272 l 813 213 l 233 213 l 319 272 l 238 79 q 194 9 217 31 q 126 -12 171 -12 m 521 750 l 343 326 l 306 381 l 740 381 l 703 326 l 524 750 l 521 750 m 524 1050 q 478 1060 494 1050 q 463 1089 463 1069 q 473 1126 463 1113 q 498 1151 483 1140 q 524 1173 513 1163 q 535 1196 535 1183 q 522 1215 535 1208 q 485 1221 508 1221 q 463 1219 475 1221 q 440 1217 451 1218 q 401 1216 417 1211 q 376 1240 385 1221 q 376 1276 369 1260 q 408 1300 383 1292 q 467 1313 433 1308 q 538 1317 500 1317 q 649 1293 608 1317 q 690 1228 690 1269 q 674 1178 690 1196 q 638 1147 658 1160 q 601 1119 617 1133 q 586 1081 586 1104 q 570 1058 586 1067 q 524 1050 554 1050 z "},"Ȃ":{"ha":1046,"x_min":26,"x_max":1022,"o":"m 126 -12 q 63 6 88 -12 q 33 54 39 24 q 44 122 26 85 l 400 901 q 453 970 422 949 q 524 992 483 992 q 594 970 564 992 q 646 901 625 949 l 1004 122 q 1017 53 1022 85 q 989 5 1013 22 q 928 -12 965 -12 q 855 10 881 -12 q 810 79 829 32 l 726 272 l 813 213 l 233 213 l 319 272 l 238 79 q 194 9 217 31 q 126 -12 171 -12 m 521 750 l 343 326 l 306 381 l 740 381 l 703 326 l 524 750 l 521 750 m 314 1056 q 274 1081 289 1060 q 269 1132 260 1101 q 362 1263 293 1217 q 524 1308 431 1308 q 685 1263 615 1308 q 776 1132 754 1217 q 772 1081 786 1101 q 732 1056 758 1060 q 694 1061 708 1054 q 672 1080 681 1068 q 658 1103 664 1092 q 606 1168 643 1149 q 524 1188 568 1188 q 443 1168 481 1188 q 389 1103 406 1149 q 375 1080 383 1092 q 352 1061 367 1068 q 314 1056 338 1054 z "},"Ā":{"ha":1046,"x_min":26,"x_max":1022,"o":"m 126 -12 q 63 6 88 -12 q 33 54 39 24 q 44 122 26 85 l 400 901 q 453 970 422 949 q 524 992 483 992 q 594 970 564 992 q 646 901 625 949 l 1004 122 q 1017 53 1022 85 q 989 5 1013 22 q 928 -12 965 -12 q 855 10 881 -12 q 810 79 829 32 l 726 272 l 813 213 l 233 213 l 319 272 l 238 79 q 194 9 217 31 q 126 -12 171 -12 m 521 750 l 343 326 l 306 381 l 740 381 l 703 326 l 524 750 l 521 750 m 329 1113 q 268 1172 268 1113 q 284 1215 268 1200 q 329 1231 300 1231 l 718 1231 q 781 1172 781 1231 q 765 1128 781 1144 q 718 1113 749 1113 l 329 1113 z "},"Ą":{"ha":1046,"x_min":26,"x_max":1090,"o":"m 956 -274 q 828 -233 874 -274 q 782 -124 782 -192 q 803 -41 782 -79 q 863 25 824 -3 l 865 3 q 835 33 847 15 q 810 79 822 51 l 726 272 l 813 213 l 233 213 l 319 272 l 238 79 q 194 9 217 31 q 126 -12 171 -12 q 63 6 88 -12 q 33 54 39 24 q 43 122 26 85 l 400 901 q 453 970 422 949 q 524 992 483 992 q 594 970 564 992 q 646 901 625 949 l 1004 122 q 1016 47 1024 81 q 981 0 1008 14 q 944 -26 960 -10 q 918 -60 928 -42 q 908 -100 908 -79 q 931 -149 908 -132 q 985 -167 953 -167 q 1004 -165 994 -167 q 1024 -161 1014 -164 q 1069 -167 1053 -156 q 1088 -197 1085 -178 q 1080 -235 1090 -217 q 1046 -261 1069 -253 q 999 -272 1022 -269 q 956 -274 975 -274 m 521 750 l 343 326 l 306 381 l 740 381 l 703 326 l 524 750 l 521 750 z "},"Å":{"ha":1046,"x_min":26,"x_max":1022,"o":"m 126 -12 q 63 6 88 -12 q 33 54 39 24 q 44 122 26 85 l 400 901 q 453 970 422 949 q 524 992 483 992 q 594 970 564 992 q 646 901 625 949 l 1004 122 q 1017 53 1022 85 q 989 5 1013 22 q 928 -12 965 -12 q 855 10 881 -12 q 810 79 829 32 l 726 272 l 813 213 l 233 213 l 319 272 l 238 79 q 194 9 217 31 q 126 -12 171 -12 m 521 750 l 343 326 l 306 381 l 740 381 l 703 326 l 524 750 l 521 750 m 524 1046 q 432 1069 474 1046 q 367 1133 390 1093 q 343 1222 343 1174 q 367 1312 343 1272 q 432 1374 390 1351 q 524 1397 474 1397 q 616 1374 575 1397 q 681 1312 657 1351 q 704 1222 704 1272 q 681 1133 704 1174 q 616 1069 657 1093 q 524 1046 575 1046 m 524 1136 q 585 1161 561 1136 q 608 1222 608 1186 q 585 1283 608 1260 q 524 1307 561 1307 q 463 1283 488 1307 q 439 1222 439 1260 q 463 1161 439 1186 q 524 1136 488 1136 z "},"Ǻ":{"ha":1046,"x_min":26,"x_max":1022,"o":"m 126 -12 q 63 6 88 -12 q 33 54 39 24 q 44 122 26 85 l 400 901 q 453 970 422 949 q 524 992 483 992 q 594 970 564 992 q 646 901 625 949 l 1004 122 q 1017 53 1022 85 q 989 5 1013 22 q 928 -12 965 -12 q 855 10 881 -12 q 810 79 829 32 l 726 272 l 813 213 l 233 213 l 319 272 l 238 79 q 194 9 217 31 q 126 -12 171 -12 m 521 750 l 343 326 l 306 381 l 740 381 l 703 326 l 524 750 l 521 750 m 524 1046 q 436 1068 475 1046 q 374 1128 397 1090 q 351 1214 351 1167 q 374 1299 351 1261 q 436 1358 397 1336 q 524 1379 475 1379 q 569 1374 547 1379 q 610 1357 592 1368 l 701 1442 q 742 1458 721 1460 q 777 1441 763 1456 q 793 1406 792 1426 q 775 1369 794 1386 l 678 1286 q 696 1214 696 1253 q 673 1128 696 1167 q 611 1068 650 1090 q 524 1046 572 1046 m 524 1128 q 585 1152 561 1128 q 608 1214 608 1176 q 585 1274 608 1250 q 524 1299 561 1299 q 463 1274 488 1299 q 439 1214 439 1250 q 463 1152 439 1176 q 524 1128 488 1128 z "},"Ã":{"ha":1046,"x_min":26,"x_max":1022,"o":"m 126 -12 q 63 6 88 -12 q 33 54 39 24 q 44 122 26 85 l 400 901 q 453 970 422 949 q 524 992 483 992 q 594 970 564 992 q 646 901 625 949 l 1004 122 q 1017 53 1022 85 q 989 5 1013 22 q 928 -12 965 -12 q 855 10 881 -12 q 810 79 829 32 l 726 272 l 813 213 l 233 213 l 319 272 l 238 79 q 194 9 217 31 q 126 -12 171 -12 m 521 750 l 343 326 l 306 381 l 740 381 l 703 326 l 524 750 l 521 750 m 257 1060 q 217 1076 231 1061 q 208 1119 203 1092 q 278 1244 226 1200 q 400 1288 329 1288 q 472 1275 439 1288 q 536 1246 506 1263 q 595 1217 567 1229 q 651 1204 624 1204 q 704 1219 683 1204 q 733 1257 725 1233 q 756 1289 743 1278 q 790 1297 769 1300 q 831 1281 817 1296 q 839 1238 844 1265 q 772 1113 822 1157 q 649 1069 721 1069 q 576 1082 610 1069 q 511 1111 542 1094 q 452 1140 481 1128 q 396 1153 424 1153 q 344 1138 365 1153 q 314 1100 322 1124 q 292 1069 304 1081 q 257 1060 279 1058 z "},"Æ":{"ha":1389,"x_min":-10,"x_max":1328,"o":"m 85 -12 q 14 7 38 -12 q -10 57 -10 26 q 10 121 -10 88 l 514 922 q 557 966 532 953 q 618 979 582 979 l 1240 979 q 1306 958 1283 979 q 1328 896 1328 936 q 1306 833 1328 854 q 1240 811 1283 811 l 717 811 l 769 861 l 843 522 l 772 582 l 1211 582 q 1276 560 1254 582 q 1297 497 1297 539 q 1276 434 1297 456 q 1211 413 1254 413 l 810 413 l 854 472 l 933 110 l 860 168 l 1240 168 q 1306 147 1283 168 q 1328 85 1328 125 q 1306 22 1328 43 q 1240 0 1283 0 l 844 0 q 749 76 767 0 l 706 276 l 774 213 l 242 213 l 321 269 l 193 54 q 149 5 174 22 q 85 -12 125 -12 m 601 743 l 356 329 l 343 381 l 738 381 l 696 322 l 604 743 l 601 743 z "},"Ǽ":{"ha":1389,"x_min":-10,"x_max":1328,"o":"m 85 -12 q 14 7 38 -12 q -10 57 -10 26 q 10 121 -10 88 l 514 922 q 557 966 532 953 q 618 979 582 979 l 1240 979 q 1306 958 1283 979 q 1328 896 1328 936 q 1306 833 1328 854 q 1240 811 1283 811 l 717 811 l 769 861 l 843 522 l 772 582 l 1211 582 q 1276 560 1254 582 q 1297 497 1297 539 q 1276 434 1297 456 q 1211 413 1254 413 l 810 413 l 854 472 l 933 110 l 860 168 l 1240 168 q 1306 147 1283 168 q 1328 85 1328 125 q 1306 22 1328 43 q 1240 0 1283 0 l 844 0 q 749 76 767 0 l 706 276 l 774 213 l 242 213 l 321 269 l 193 54 q 149 5 174 22 q 85 -12 125 -12 m 601 743 l 356 329 l 343 381 l 738 381 l 696 322 l 604 743 l 601 743 m 763 1072 q 718 1051 742 1051 q 676 1065 694 1050 q 651 1100 657 1079 q 661 1143 646 1121 l 761 1290 q 802 1323 778 1318 q 851 1319 826 1328 q 890 1291 875 1310 q 907 1249 906 1272 q 888 1204 908 1226 l 763 1072 z "},"B":{"ha":965,"x_min":99,"x_max":901,"o":"m 211 0 q 128 29 157 0 q 99 113 99 58 l 99 867 q 128 950 99 921 q 211 979 157 979 l 547 979 q 725 949 651 979 q 837 861 799 918 q 875 725 875 804 q 825 576 875 638 q 688 494 775 515 l 688 517 q 845 437 789 499 q 901 276 901 375 q 811 73 901 146 q 563 0 721 0 l 211 0 m 304 160 l 533 160 q 656 192 617 160 q 694 289 694 225 q 656 385 694 353 q 533 417 617 417 l 304 417 l 304 160 m 304 576 l 510 576 q 629 607 590 576 q 668 699 668 638 q 629 789 668 758 q 510 819 590 819 l 304 819 l 304 576 z "},"Ɓ":{"ha":1194,"x_min":0,"x_max":1131,"o":"m 442 0 q 357 29 386 0 q 328 113 328 58 l 328 829 l 297 829 q 206 801 236 829 q 175 714 175 772 l 175 694 q 165 662 175 679 q 137 633 156 644 q 88 621 118 621 q 39 633 58 621 q 10 664 19 646 q 0 700 0 682 l 0 721 q 78 912 0 844 q 306 979 156 979 l 778 979 q 955 949 882 979 q 1067 861 1028 918 q 1106 725 1106 804 q 1055 576 1106 638 q 918 494 1004 515 l 918 517 q 1075 437 1019 499 q 1131 276 1131 375 q 1040 73 1131 146 q 792 0 950 0 l 442 0 m 535 160 l 764 160 q 885 192 847 160 q 924 289 924 225 q 885 385 924 353 q 764 417 847 417 l 535 417 l 535 160 m 535 576 l 739 576 q 860 607 821 576 q 899 699 899 638 q 860 789 899 758 q 739 819 821 819 l 535 819 l 535 576 z "},"C":{"ha":950,"x_min":69,"x_max":901,"o":"m 574 -15 q 303 47 415 -15 q 130 223 190 110 q 69 490 69 336 q 103 698 69 606 q 203 856 138 790 q 362 958 268 922 q 574 994 456 994 q 715 977 643 994 q 839 928 786 960 q 886 879 874 908 q 894 821 899 850 q 870 771 889 792 q 824 744 851 750 q 761 757 796 739 q 674 793 719 782 q 581 804 628 804 q 424 767 488 804 q 329 661 361 731 q 297 490 297 592 q 329 319 297 390 q 424 212 361 249 q 581 175 488 175 q 672 186 625 175 q 761 221 718 197 q 826 234 797 239 q 873 209 854 229 q 897 161 892 189 q 890 106 901 133 q 849 58 879 78 q 722 4 797 24 q 574 -15 647 -15 z "},"Ć":{"ha":950,"x_min":69,"x_max":901,"o":"m 574 -15 q 303 47 415 -15 q 130 223 190 110 q 69 490 69 336 q 103 698 69 606 q 203 856 138 790 q 362 958 268 922 q 574 994 456 994 q 715 977 643 994 q 839 928 786 960 q 886 879 874 908 q 894 821 899 850 q 870 771 889 792 q 824 744 851 750 q 761 757 796 739 q 674 793 719 782 q 581 804 628 804 q 424 767 488 804 q 329 661 361 731 q 297 490 297 592 q 329 319 297 390 q 424 212 361 249 q 581 175 488 175 q 672 186 625 175 q 761 221 718 197 q 826 234 797 239 q 873 209 854 229 q 897 161 892 189 q 890 106 901 133 q 849 58 879 78 q 722 4 797 24 q 574 -15 647 -15 m 632 1072 q 588 1051 611 1051 q 545 1065 564 1050 q 521 1100 526 1079 q 531 1143 515 1121 l 631 1290 q 672 1323 647 1318 q 720 1319 696 1328 q 760 1291 744 1310 q 776 1249 775 1272 q 757 1204 778 1226 l 632 1072 z "},"Č":{"ha":950,"x_min":69,"x_max":901,"o":"m 574 -15 q 303 47 415 -15 q 130 223 190 110 q 69 490 69 336 q 103 698 69 606 q 203 856 138 790 q 362 958 268 922 q 574 994 456 994 q 715 977 643 994 q 839 928 786 960 q 886 879 874 908 q 894 821 899 850 q 870 771 889 792 q 824 744 851 750 q 761 757 796 739 q 674 793 719 782 q 581 804 628 804 q 424 767 488 804 q 329 661 361 731 q 297 490 297 592 q 329 319 297 390 q 424 212 361 249 q 581 175 488 175 q 672 186 625 175 q 761 221 718 197 q 826 234 797 239 q 873 209 854 229 q 897 161 892 189 q 890 106 901 133 q 849 58 879 78 q 722 4 797 24 q 574 -15 647 -15 m 549 1043 q 483 1059 513 1043 q 429 1108 453 1075 l 340 1232 q 330 1275 324 1254 q 356 1308 336 1296 q 399 1319 375 1321 q 442 1294 422 1317 l 549 1172 l 657 1294 q 700 1319 676 1317 q 742 1308 724 1321 q 767 1276 761 1296 q 757 1232 774 1256 l 669 1108 q 616 1059 646 1075 q 549 1043 586 1043 z "},"Ç":{"ha":950,"x_min":69,"x_max":901,"o":"m 574 -15 q 303 47 415 -15 q 130 223 190 110 q 69 490 69 336 q 103 698 69 606 q 203 856 138 790 q 362 958 268 922 q 574 994 456 994 q 715 977 643 994 q 839 928 786 960 q 886 879 874 908 q 894 821 899 850 q 870 771 889 792 q 824 744 851 750 q 761 757 796 739 q 674 793 719 782 q 581 804 628 804 q 424 767 488 804 q 329 661 361 731 q 297 490 297 592 q 329 319 297 390 q 424 212 361 249 q 581 175 488 175 q 672 186 625 175 q 761 221 718 197 q 826 234 797 239 q 873 209 854 229 q 897 161 892 189 q 890 106 901 133 q 849 58 879 78 q 722 4 797 24 q 574 -15 647 -15 m 546 -274 q 490 -270 519 -274 q 435 -258 460 -267 q 402 -233 411 -251 q 397 -197 393 -215 q 417 -169 401 -179 q 458 -168 433 -160 q 493 -176 476 -174 q 526 -179 510 -179 q 581 -170 563 -179 q 599 -143 599 -161 q 587 -122 599 -129 q 547 -115 575 -115 q 528 -116 538 -115 q 508 -118 518 -117 q 491 -119 499 -121 q 476 -112 483 -118 q 469 -98 471 -107 q 469 -75 468 -89 l 485 28 l 590 28 l 572 -78 l 521 -58 q 554 -50 538 -53 q 585 -47 571 -47 q 682 -74 646 -47 q 718 -150 718 -101 q 670 -240 718 -206 q 546 -274 622 -274 z "},"Ḉ":{"ha":950,"x_min":69,"x_max":901,"o":"m 574 -15 q 303 47 415 -15 q 130 223 190 110 q 69 490 69 336 q 103 698 69 606 q 203 856 138 790 q 362 958 268 922 q 574 994 456 994 q 715 977 643 994 q 839 928 786 960 q 886 879 874 908 q 894 821 899 850 q 870 771 889 792 q 824 744 851 750 q 761 757 796 739 q 674 793 719 782 q 581 804 628 804 q 424 767 488 804 q 329 661 361 731 q 297 490 297 592 q 329 319 297 390 q 424 212 361 249 q 581 175 488 175 q 672 186 625 175 q 761 221 718 197 q 826 234 797 239 q 873 209 854 229 q 897 161 892 189 q 890 106 901 133 q 849 58 879 78 q 722 4 797 24 q 574 -15 647 -15 m 546 -274 q 490 -270 519 -274 q 435 -258 460 -267 q 402 -233 411 -251 q 397 -197 393 -215 q 417 -169 401 -179 q 458 -168 433 -160 q 493 -176 476 -174 q 526 -179 510 -179 q 581 -170 563 -179 q 599 -143 599 -161 q 587 -122 599 -129 q 547 -115 575 -115 q 528 -116 538 -115 q 508 -118 518 -117 q 491 -119 499 -121 q 476 -112 483 -118 q 469 -98 471 -107 q 469 -75 468 -89 l 485 28 l 590 28 l 572 -78 l 521 -58 q 554 -50 538 -53 q 585 -47 571 -47 q 682 -74 646 -47 q 718 -150 718 -101 q 670 -240 718 -206 q 546 -274 622 -274 m 632 1072 q 588 1051 611 1051 q 545 1065 564 1050 q 521 1100 526 1079 q 531 1143 515 1121 l 631 1290 q 672 1323 647 1318 q 720 1319 696 1328 q 760 1291 744 1310 q 776 1249 775 1272 q 757 1204 778 1226 l 632 1072 z "},"Ĉ":{"ha":950,"x_min":69,"x_max":901,"o":"m 574 -15 q 303 47 415 -15 q 130 223 190 110 q 69 490 69 336 q 103 698 69 606 q 203 856 138 790 q 362 958 268 922 q 574 994 456 994 q 715 977 643 994 q 839 928 786 960 q 886 879 874 908 q 894 821 899 850 q 870 771 889 792 q 824 744 851 750 q 761 757 796 739 q 674 793 719 782 q 581 804 628 804 q 424 767 488 804 q 329 661 361 731 q 297 490 297 592 q 329 319 297 390 q 424 212 361 249 q 581 175 488 175 q 672 186 625 175 q 761 221 718 197 q 826 234 797 239 q 873 209 854 229 q 897 161 892 189 q 890 106 901 133 q 849 58 879 78 q 722 4 797 24 q 574 -15 647 -15 m 442 1074 q 398 1050 422 1051 q 355 1061 374 1049 q 330 1094 336 1074 q 340 1136 324 1114 l 429 1260 q 483 1309 453 1293 q 549 1325 513 1325 q 616 1309 586 1325 q 669 1260 646 1293 l 757 1136 q 768 1094 774 1114 q 744 1061 763 1074 q 701 1050 725 1049 q 657 1074 676 1051 l 549 1194 l 442 1074 z "},"Ċ":{"ha":950,"x_min":69,"x_max":901,"o":"m 574 -15 q 303 47 415 -15 q 130 223 190 110 q 69 490 69 336 q 103 698 69 606 q 203 856 138 790 q 362 958 268 922 q 574 994 456 994 q 715 977 643 994 q 839 928 786 960 q 886 879 874 908 q 894 821 899 850 q 870 771 889 792 q 824 744 851 750 q 761 757 796 739 q 674 793 719 782 q 581 804 628 804 q 424 767 488 804 q 329 661 361 731 q 297 490 297 592 q 329 319 297 390 q 424 212 361 249 q 581 175 488 175 q 672 186 625 175 q 761 221 718 197 q 826 234 797 239 q 873 209 854 229 q 897 161 892 189 q 890 106 901 133 q 849 58 879 78 q 722 4 797 24 q 574 -15 647 -15 m 549 1085 q 472 1111 499 1085 q 444 1185 444 1138 q 472 1257 444 1232 q 549 1282 499 1282 q 626 1257 600 1282 q 653 1185 653 1232 q 626 1110 653 1136 q 549 1085 600 1085 z "},"D":{"ha":1075,"x_min":99,"x_max":1007,"o":"m 211 0 q 128 29 157 0 q 99 113 99 58 l 99 867 q 128 950 99 921 q 211 979 157 979 l 482 979 q 870 852 733 979 q 1007 490 1007 725 q 972 281 1007 372 q 869 128 936 190 q 706 33 803 65 q 482 0 608 0 l 211 0 m 314 176 l 469 176 q 607 196 549 176 q 704 254 665 215 q 763 352 743 293 q 782 490 782 411 q 703 726 782 649 q 469 803 625 803 l 314 803 l 314 176 z "},"Ǆ":{"ha":1908,"x_min":99,"x_max":1892,"o":"m 211 0 q 128 29 157 0 q 99 113 99 58 l 99 867 q 128 950 99 921 q 211 979 157 979 l 482 979 q 870 852 733 979 q 1007 490 1007 725 q 972 281 1007 372 q 869 128 936 190 q 706 33 803 65 q 482 0 608 0 l 211 0 m 314 176 l 469 176 q 607 196 549 176 q 704 254 665 215 q 763 352 743 293 q 782 490 782 411 q 703 726 782 649 q 469 803 625 803 l 314 803 l 314 176 m 1217 0 q 1149 17 1175 0 q 1113 65 1122 35 q 1113 131 1104 94 q 1151 203 1122 167 l 1657 865 l 1657 800 l 1200 800 q 1130 824 1154 800 q 1106 890 1106 847 q 1130 956 1106 933 q 1200 979 1154 979 l 1758 979 q 1827 962 1801 979 q 1863 915 1853 944 q 1863 849 1872 886 q 1824 776 1853 813 l 1318 115 l 1318 179 l 1797 179 q 1867 156 1843 179 q 1892 90 1892 133 q 1867 23 1892 46 q 1797 0 1843 0 l 1217 0 m 1494 1043 q 1428 1059 1458 1043 q 1375 1108 1399 1075 l 1286 1232 q 1276 1275 1269 1254 q 1301 1308 1282 1296 q 1344 1319 1321 1321 q 1388 1294 1368 1317 l 1494 1172 l 1603 1294 q 1646 1319 1622 1317 q 1688 1308 1669 1321 q 1713 1276 1707 1296 q 1703 1232 1719 1256 l 1615 1108 q 1562 1059 1592 1075 q 1494 1043 1532 1043 z "},"Ð":{"ha":1075,"x_min":-32,"x_max":1007,"o":"m 211 0 q 128 29 157 0 q 99 113 99 58 l 99 867 q 128 950 99 921 q 211 979 157 979 l 482 979 q 870 852 733 979 q 1007 490 1007 725 q 972 281 1007 372 q 869 128 936 190 q 706 33 803 65 q 482 0 608 0 l 211 0 m 314 176 l 469 176 q 607 196 549 176 q 704 254 665 215 q 763 352 743 293 q 782 490 782 411 q 703 726 782 649 q 469 803 625 803 l 314 803 l 314 176 m 49 418 q -11 438 10 418 q -32 494 -32 458 q -11 552 -32 532 q 49 572 10 572 l 504 572 q 564 553 543 572 q 585 494 585 533 q 564 438 585 458 q 504 418 543 418 l 49 418 z "},"Ď":{"ha":1075,"x_min":99,"x_max":1007,"o":"m 211 0 q 128 29 157 0 q 99 113 99 58 l 99 867 q 128 950 99 921 q 211 979 157 979 l 482 979 q 870 852 733 979 q 1007 490 1007 725 q 972 281 1007 372 q 869 128 936 190 q 706 33 803 65 q 482 0 608 0 l 211 0 m 314 176 l 469 176 q 607 196 549 176 q 704 254 665 215 q 763 352 743 293 q 782 490 782 411 q 703 726 782 649 q 469 803 625 803 l 314 803 l 314 176 m 533 1043 q 467 1059 497 1043 q 414 1108 438 1075 l 325 1232 q 315 1275 308 1254 q 340 1308 321 1296 q 383 1319 360 1321 q 426 1294 407 1317 l 533 1172 l 642 1294 q 685 1319 661 1317 q 727 1308 708 1321 q 752 1276 746 1296 q 742 1232 758 1256 l 654 1108 q 601 1059 631 1075 q 533 1043 571 1043 z "},"Đ":{"ha":1075,"x_min":-32,"x_max":1007,"o":"m 211 0 q 128 29 157 0 q 99 113 99 58 l 99 867 q 128 950 99 921 q 211 979 157 979 l 482 979 q 870 852 733 979 q 1007 490 1007 725 q 972 281 1007 372 q 869 128 936 190 q 706 33 803 65 q 482 0 608 0 l 211 0 m 314 176 l 469 176 q 607 196 549 176 q 704 254 665 215 q 763 352 743 293 q 782 490 782 411 q 703 726 782 649 q 469 803 625 803 l 314 803 l 314 176 m 49 418 q -11 438 10 418 q -32 494 -32 458 q -11 552 -32 532 q 49 572 10 572 l 504 572 q 564 553 543 572 q 585 494 585 533 q 564 438 585 458 q 504 418 543 418 l 49 418 z "},"Ḍ":{"ha":1075,"x_min":99,"x_max":1007,"o":"m 211 0 q 128 29 157 0 q 99 113 99 58 l 99 867 q 128 950 99 921 q 211 979 157 979 l 482 979 q 870 852 733 979 q 1007 490 1007 725 q 972 281 1007 372 q 869 128 936 190 q 706 33 803 65 q 482 0 608 0 l 211 0 m 314 176 l 469 176 q 607 196 549 176 q 704 254 665 215 q 763 352 743 293 q 782 490 782 411 q 703 726 782 649 q 469 803 625 803 l 314 803 l 314 176 m 533 -304 q 456 -278 483 -304 q 429 -206 429 -253 q 456 -132 429 -157 q 533 -107 483 -107 q 611 -132 585 -107 q 638 -206 638 -157 q 611 -278 638 -253 q 533 -304 585 -304 z "},"Ɗ":{"ha":1306,"x_min":0,"x_max":1236,"o":"m 442 0 q 357 29 386 0 q 328 113 328 58 l 328 829 l 297 829 q 206 801 236 829 q 175 714 175 772 l 175 694 q 165 662 175 679 q 137 633 156 644 q 88 621 118 621 q 39 633 58 621 q 10 664 19 646 q 0 700 0 682 l 0 721 q 77 912 0 844 q 300 979 154 979 l 711 979 q 1099 852 963 979 q 1236 490 1236 725 q 1201 281 1236 372 q 1099 128 1167 190 q 935 33 1032 65 q 711 0 838 0 l 442 0 m 543 176 l 699 176 q 836 196 778 176 q 934 254 894 215 q 992 352 974 293 q 1011 490 1011 411 q 933 726 1011 649 q 699 803 856 803 l 543 803 l 543 176 z "},"Ḏ":{"ha":1075,"x_min":99,"x_max":1007,"o":"m 211 0 q 128 29 157 0 q 99 113 99 58 l 99 867 q 128 950 99 921 q 211 979 157 979 l 482 979 q 870 852 733 979 q 1007 490 1007 725 q 972 281 1007 372 q 869 128 936 190 q 706 33 803 65 q 482 0 608 0 l 211 0 m 314 176 l 469 176 q 607 196 549 176 q 704 254 665 215 q 763 352 743 293 q 782 490 782 411 q 703 726 782 649 q 469 803 625 803 l 314 803 l 314 176 m 360 -236 q 299 -176 299 -236 q 315 -133 299 -149 q 360 -118 331 -118 l 707 -118 q 769 -176 769 -118 q 753 -220 769 -204 q 707 -236 738 -236 l 360 -236 z "},"ǅ":{"ha":1742,"x_min":99,"x_max":1721,"o":"m 211 0 q 128 29 157 0 q 99 113 99 58 l 99 867 q 128 950 99 921 q 211 979 157 979 l 482 979 q 870 852 733 979 q 1007 490 1007 725 q 972 281 1007 372 q 869 128 936 190 q 706 33 803 65 q 482 0 608 0 l 211 0 m 314 176 l 469 176 q 607 196 549 176 q 704 254 665 215 q 763 352 743 293 q 782 490 782 411 q 703 726 782 649 q 469 803 625 803 l 314 803 l 314 176 m 1214 0 q 1163 16 1183 0 q 1135 57 1142 32 q 1135 111 1128 82 q 1167 165 1143 140 l 1507 574 l 1507 525 l 1206 525 q 1147 546 1168 525 q 1126 603 1126 567 q 1147 662 1126 642 q 1206 682 1168 682 l 1607 682 q 1667 665 1644 682 q 1697 624 1689 649 q 1698 572 1704 600 q 1668 518 1692 543 l 1319 101 l 1319 156 l 1642 156 q 1721 78 1721 156 q 1700 20 1721 40 q 1642 0 1679 0 l 1214 0 m 1415 743 q 1349 763 1378 743 q 1300 819 1319 783 l 1210 985 q 1203 1031 1196 1010 q 1231 1063 1211 1053 q 1272 1070 1250 1074 q 1310 1044 1294 1067 l 1415 885 l 1521 1044 q 1558 1070 1536 1067 q 1600 1063 1581 1074 q 1627 1031 1619 1053 q 1621 985 1635 1010 l 1532 819 q 1483 763 1513 783 q 1415 743 1454 743 z "},"E":{"ha":840,"x_min":99,"x_max":781,"o":"m 211 0 q 128 29 157 0 q 99 113 99 58 l 99 867 q 128 950 99 921 q 211 979 157 979 l 696 979 q 759 958 738 979 q 781 896 781 936 q 759 833 781 854 q 696 811 738 811 l 304 811 l 304 582 l 664 582 q 728 560 707 582 q 750 497 750 539 q 728 434 750 456 q 664 413 707 413 l 304 413 l 304 168 l 696 168 q 759 147 738 168 q 781 85 781 125 q 759 22 781 43 q 696 0 738 0 l 211 0 z "},"É":{"ha":840,"x_min":99,"x_max":781,"o":"m 211 0 q 128 29 157 0 q 99 113 99 58 l 99 867 q 128 950 99 921 q 211 979 157 979 l 696 979 q 759 958 738 979 q 781 896 781 936 q 759 833 781 854 q 696 811 738 811 l 304 811 l 304 582 l 664 582 q 728 560 707 582 q 750 497 750 539 q 728 434 750 456 q 664 413 707 413 l 304 413 l 304 168 l 696 168 q 759 147 738 168 q 781 85 781 125 q 759 22 781 43 q 696 0 738 0 l 211 0 m 543 1072 q 499 1051 522 1051 q 456 1065 475 1050 q 432 1100 438 1079 q 442 1143 426 1121 l 542 1290 q 583 1323 558 1318 q 631 1319 607 1328 q 671 1291 656 1310 q 688 1249 686 1272 q 668 1204 689 1226 l 543 1072 z "},"Ĕ":{"ha":840,"x_min":99,"x_max":781,"o":"m 211 0 q 128 29 157 0 q 99 113 99 58 l 99 867 q 128 950 99 921 q 211 979 157 979 l 696 979 q 759 958 738 979 q 781 896 781 936 q 759 833 781 854 q 696 811 738 811 l 304 811 l 304 582 l 664 582 q 728 560 707 582 q 750 497 750 539 q 728 434 750 456 q 664 413 707 413 l 304 413 l 304 168 l 696 168 q 759 147 738 168 q 781 85 781 125 q 759 22 781 43 q 696 0 738 0 l 211 0 m 460 1056 q 297 1102 365 1056 q 206 1232 229 1149 q 211 1285 196 1264 q 250 1308 226 1306 q 288 1303 274 1311 q 311 1284 303 1296 q 325 1261 319 1272 q 378 1197 340 1217 q 460 1176 415 1176 q 542 1197 504 1176 q 594 1261 579 1217 q 608 1284 600 1272 q 631 1303 617 1296 q 669 1308 646 1311 q 708 1285 693 1306 q 714 1232 724 1264 q 623 1102 692 1149 q 460 1056 554 1056 z "},"Ě":{"ha":840,"x_min":99,"x_max":781,"o":"m 211 0 q 128 29 157 0 q 99 113 99 58 l 99 867 q 128 950 99 921 q 211 979 157 979 l 696 979 q 759 958 738 979 q 781 896 781 936 q 759 833 781 854 q 696 811 738 811 l 304 811 l 304 582 l 664 582 q 728 560 707 582 q 750 497 750 539 q 728 434 750 456 q 664 413 707 413 l 304 413 l 304 168 l 696 168 q 759 147 738 168 q 781 85 781 125 q 759 22 781 43 q 696 0 738 0 l 211 0 m 460 1043 q 394 1059 424 1043 q 340 1108 364 1075 l 251 1232 q 241 1275 235 1254 q 267 1308 247 1296 q 310 1319 286 1321 q 353 1294 333 1317 l 460 1172 l 568 1294 q 611 1319 588 1317 q 653 1308 635 1321 q 678 1276 672 1296 q 668 1232 685 1256 l 581 1108 q 527 1059 557 1075 q 460 1043 497 1043 z "},"Ȩ":{"ha":840,"x_min":99,"x_max":781,"o":"m 211 0 q 128 29 157 0 q 99 113 99 58 l 99 867 q 128 950 99 921 q 211 979 157 979 l 696 979 q 759 958 738 979 q 781 896 781 936 q 759 833 781 854 q 696 811 738 811 l 304 811 l 304 582 l 664 582 q 728 560 707 582 q 750 497 750 539 q 728 434 750 456 q 664 413 707 413 l 304 413 l 304 168 l 696 168 q 759 147 738 168 q 781 85 781 125 q 759 22 781 43 q 696 0 738 0 l 211 0 m 458 -274 q 402 -270 432 -274 q 347 -258 372 -267 q 315 -233 324 -251 q 310 -197 306 -215 q 330 -169 314 -179 q 371 -168 346 -160 q 406 -176 389 -174 q 439 -179 422 -179 q 493 -170 475 -179 q 511 -143 511 -161 q 499 -122 511 -129 q 460 -115 488 -115 q 440 -116 450 -115 q 421 -118 431 -117 q 403 -119 411 -121 q 389 -112 396 -118 q 382 -98 383 -107 q 382 -75 381 -89 l 397 28 l 503 28 l 485 -78 l 433 -58 q 467 -50 450 -53 q 497 -47 483 -47 q 594 -74 558 -47 q 631 -150 631 -101 q 583 -240 631 -206 q 458 -274 535 -274 z "},"Ḝ":{"ha":840,"x_min":99,"x_max":781,"o":"m 211 0 q 128 29 157 0 q 99 113 99 58 l 99 867 q 128 950 99 921 q 211 979 157 979 l 696 979 q 759 958 738 979 q 781 896 781 936 q 759 833 781 854 q 696 811 738 811 l 304 811 l 304 582 l 664 582 q 728 560 707 582 q 750 497 750 539 q 728 434 750 456 q 664 413 707 413 l 304 413 l 304 168 l 696 168 q 759 147 738 168 q 781 85 781 125 q 759 22 781 43 q 696 0 738 0 l 211 0 m 458 -274 q 402 -270 432 -274 q 347 -258 372 -267 q 315 -233 324 -251 q 310 -197 306 -215 q 330 -169 314 -179 q 371 -168 346 -160 q 406 -176 389 -174 q 439 -179 422 -179 q 493 -170 475 -179 q 511 -143 511 -161 q 499 -122 511 -129 q 460 -115 488 -115 q 440 -116 450 -115 q 421 -118 431 -117 q 403 -119 411 -121 q 389 -112 396 -118 q 382 -98 383 -107 q 382 -75 381 -89 l 397 28 l 503 28 l 485 -78 l 433 -58 q 467 -50 450 -53 q 497 -47 483 -47 q 594 -74 558 -47 q 631 -150 631 -101 q 583 -240 631 -206 q 458 -274 535 -274 m 460 1056 q 297 1102 365 1056 q 206 1232 229 1149 q 211 1285 196 1264 q 250 1308 226 1306 q 288 1303 274 1311 q 311 1284 303 1296 q 325 1261 319 1272 q 378 1197 340 1217 q 460 1176 415 1176 q 542 1197 504 1176 q 594 1261 579 1217 q 608 1284 600 1272 q 631 1303 617 1296 q 669 1308 646 1311 q 708 1285 693 1306 q 714 1232 724 1264 q 623 1102 692 1149 q 460 1056 554 1056 z "},"Ê":{"ha":840,"x_min":99,"x_max":781,"o":"m 211 0 q 128 29 157 0 q 99 113 99 58 l 99 867 q 128 950 99 921 q 211 979 157 979 l 696 979 q 759 958 738 979 q 781 896 781 936 q 759 833 781 854 q 696 811 738 811 l 304 811 l 304 582 l 664 582 q 728 560 707 582 q 750 497 750 539 q 728 434 750 456 q 664 413 707 413 l 304 413 l 304 168 l 696 168 q 759 147 738 168 q 781 85 781 125 q 759 22 781 43 q 696 0 738 0 l 211 0 m 353 1074 q 309 1050 333 1051 q 266 1061 285 1049 q 241 1094 247 1074 q 251 1136 235 1114 l 340 1260 q 394 1309 364 1293 q 460 1325 424 1325 q 527 1309 497 1325 q 581 1260 557 1293 l 668 1136 q 679 1094 685 1114 q 655 1061 674 1074 q 612 1050 636 1049 q 568 1074 588 1051 l 460 1194 l 353 1074 z "},"Ế":{"ha":840,"x_min":99,"x_max":853,"o":"m 211 0 q 128 29 157 0 q 99 113 99 58 l 99 867 q 128 950 99 921 q 211 979 157 979 l 696 979 q 759 958 738 979 q 781 896 781 936 q 759 833 781 854 q 696 811 738 811 l 304 811 l 304 582 l 664 582 q 728 560 707 582 q 750 497 750 539 q 728 434 750 456 q 664 413 707 413 l 304 413 l 304 168 l 696 168 q 759 147 738 168 q 781 85 781 125 q 759 22 781 43 q 696 0 738 0 l 211 0 m 353 1069 q 311 1046 333 1049 q 272 1054 289 1043 q 251 1085 256 1065 q 263 1129 246 1106 l 342 1249 q 395 1299 367 1285 q 460 1313 424 1313 q 506 1307 485 1313 q 544 1287 526 1301 q 578 1249 563 1272 l 657 1129 q 669 1085 674 1106 q 649 1054 665 1065 q 610 1046 633 1043 q 567 1069 588 1049 l 460 1183 l 353 1069 m 729 1203 q 694 1181 714 1183 q 660 1188 675 1178 q 640 1215 644 1197 q 647 1258 635 1233 l 728 1403 q 762 1435 742 1428 q 803 1436 782 1442 q 838 1415 824 1431 q 853 1378 851 1400 q 836 1335 854 1357 l 729 1203 z "},"Ệ":{"ha":840,"x_min":99,"x_max":781,"o":"m 211 0 q 128 29 157 0 q 99 113 99 58 l 99 867 q 128 950 99 921 q 211 979 157 979 l 696 979 q 759 958 738 979 q 781 896 781 936 q 759 833 781 854 q 696 811 738 811 l 304 811 l 304 582 l 664 582 q 728 560 707 582 q 750 497 750 539 q 728 434 750 456 q 664 413 707 413 l 304 413 l 304 168 l 696 168 q 759 147 738 168 q 781 85 781 125 q 759 22 781 43 q 696 0 738 0 l 211 0 m 460 -304 q 383 -278 410 -304 q 356 -206 356 -253 q 383 -132 356 -157 q 460 -107 410 -107 q 538 -132 511 -107 q 564 -206 564 -157 q 538 -278 564 -253 q 460 -304 511 -304 m 353 1074 q 309 1050 333 1051 q 266 1061 285 1049 q 241 1094 247 1074 q 251 1136 235 1114 l 340 1260 q 394 1309 364 1293 q 460 1325 424 1325 q 527 1309 497 1325 q 581 1260 557 1293 l 668 1136 q 679 1094 685 1114 q 655 1061 674 1074 q 612 1050 636 1049 q 568 1074 588 1051 l 460 1194 l 353 1074 z "},"Ề":{"ha":840,"x_min":99,"x_max":781,"o":"m 211 0 q 128 29 157 0 q 99 113 99 58 l 99 867 q 128 950 99 921 q 211 979 157 979 l 696 979 q 759 958 738 979 q 781 896 781 936 q 759 833 781 854 q 696 811 738 811 l 304 811 l 304 582 l 664 582 q 728 560 707 582 q 750 497 750 539 q 728 434 750 456 q 664 413 707 413 l 304 413 l 304 168 l 696 168 q 759 147 738 168 q 781 85 781 125 q 759 22 781 43 q 696 0 738 0 l 211 0 m 353 1069 q 311 1046 333 1049 q 272 1054 289 1043 q 251 1085 256 1065 q 263 1129 246 1106 l 342 1249 q 395 1299 367 1285 q 460 1313 424 1313 q 506 1307 485 1313 q 544 1287 526 1301 q 578 1249 563 1272 l 657 1129 q 669 1085 674 1106 q 649 1054 665 1065 q 610 1046 633 1043 q 567 1069 588 1049 l 460 1183 l 353 1069 m 686 1203 l 579 1335 q 563 1378 561 1357 q 578 1415 564 1400 q 612 1436 592 1431 q 652 1435 632 1442 q 686 1403 672 1428 l 767 1258 q 774 1215 779 1233 q 754 1188 769 1197 q 720 1181 739 1178 q 686 1203 701 1183 z "},"Ể":{"ha":840,"x_min":99,"x_max":815,"o":"m 211 0 q 128 29 157 0 q 99 113 99 58 l 99 867 q 128 950 99 921 q 211 979 157 979 l 696 979 q 759 958 738 979 q 781 896 781 936 q 759 833 781 854 q 696 811 738 811 l 304 811 l 304 582 l 664 582 q 728 560 707 582 q 750 497 750 539 q 728 434 750 456 q 664 413 707 413 l 304 413 l 304 168 l 696 168 q 759 147 738 168 q 781 85 781 125 q 759 22 781 43 q 696 0 738 0 l 211 0 m 353 1069 q 311 1046 333 1049 q 272 1054 289 1043 q 251 1085 256 1065 q 263 1129 246 1106 l 342 1249 q 395 1299 367 1285 q 460 1313 424 1313 q 506 1307 485 1313 q 544 1287 526 1301 q 578 1249 563 1272 l 657 1129 q 669 1085 674 1106 q 649 1054 665 1065 q 610 1046 633 1043 q 567 1069 588 1049 l 460 1183 l 353 1069 m 707 1204 q 667 1199 688 1193 q 638 1219 646 1204 q 646 1251 631 1235 q 674 1283 663 1268 q 685 1313 685 1297 q 674 1335 685 1328 q 640 1342 663 1342 q 622 1341 632 1342 q 600 1338 611 1340 q 565 1338 579 1332 q 544 1361 551 1344 q 547 1394 539 1379 q 576 1414 554 1408 q 628 1424 601 1421 q 686 1426 656 1426 q 783 1407 749 1426 q 817 1344 817 1388 q 799 1290 817 1317 q 758 1241 782 1263 q 707 1204 733 1219 z "},"Ễ":{"ha":840,"x_min":99,"x_max":781,"o":"m 211 0 q 128 29 157 0 q 99 113 99 58 l 99 867 q 128 950 99 921 q 211 979 157 979 l 696 979 q 759 958 738 979 q 781 896 781 936 q 759 833 781 854 q 696 811 738 811 l 304 811 l 304 582 l 664 582 q 728 560 707 582 q 750 497 750 539 q 728 434 750 456 q 664 413 707 413 l 304 413 l 304 168 l 696 168 q 759 147 738 168 q 781 85 781 125 q 759 22 781 43 q 696 0 738 0 l 211 0 m 338 1058 q 285 1047 310 1039 q 253 1076 261 1054 q 263 1119 244 1097 l 332 1201 q 390 1246 358 1233 q 460 1258 422 1258 q 508 1253 486 1258 q 551 1235 531 1247 q 588 1201 571 1222 l 657 1119 q 669 1086 671 1103 q 653 1057 667 1069 q 622 1044 640 1044 q 582 1058 604 1043 l 460 1151 l 338 1058 m 258 1279 q 224 1297 236 1281 q 218 1338 211 1313 q 274 1415 235 1388 q 367 1442 313 1442 q 435 1428 404 1442 q 494 1401 467 1415 q 547 1388 522 1388 q 581 1394 565 1388 q 604 1414 597 1400 q 629 1438 617 1429 q 661 1446 642 1447 q 697 1430 685 1444 q 701 1389 710 1415 q 647 1310 686 1338 q 554 1283 608 1283 q 485 1297 517 1283 q 426 1324 453 1310 q 374 1338 399 1338 q 339 1331 354 1338 q 317 1311 324 1325 q 292 1288 306 1297 q 258 1279 279 1278 z "},"Ȅ":{"ha":840,"x_min":99,"x_max":781,"o":"m 211 0 q 128 29 157 0 q 99 113 99 58 l 99 867 q 128 950 99 921 q 211 979 157 979 l 696 979 q 759 958 738 979 q 781 896 781 936 q 759 833 781 854 q 696 811 738 811 l 304 811 l 304 582 l 664 582 q 728 560 707 582 q 750 497 750 539 q 728 434 750 456 q 664 413 707 413 l 304 413 l 304 168 l 696 168 q 759 147 738 168 q 781 85 781 125 q 759 22 781 43 q 696 0 738 0 l 211 0 m 500 1076 l 399 1214 q 382 1262 379 1239 q 401 1301 385 1285 q 440 1322 417 1317 q 485 1319 463 1328 q 519 1285 508 1311 l 599 1126 q 602 1085 610 1104 q 576 1057 594 1067 q 538 1051 558 1047 q 500 1076 517 1056 m 285 1071 l 168 1214 q 149 1261 149 1239 q 165 1300 150 1283 q 203 1322 181 1317 q 247 1320 225 1328 q 283 1286 269 1313 l 369 1131 q 376 1090 382 1108 q 356 1060 371 1071 q 320 1050 340 1049 q 285 1071 300 1051 z "},"Ë":{"ha":840,"x_min":99,"x_max":781,"o":"m 211 0 q 128 29 157 0 q 99 113 99 58 l 99 867 q 128 950 99 921 q 211 979 157 979 l 696 979 q 759 958 738 979 q 781 896 781 936 q 759 833 781 854 q 696 811 738 811 l 304 811 l 304 582 l 664 582 q 728 560 707 582 q 750 497 750 539 q 728 434 750 456 q 664 413 707 413 l 304 413 l 304 168 l 696 168 q 759 147 738 168 q 781 85 781 125 q 759 22 781 43 q 696 0 738 0 l 211 0 m 597 1078 q 524 1103 550 1078 q 499 1176 499 1129 q 524 1249 499 1224 q 597 1274 550 1274 q 669 1249 644 1274 q 694 1176 694 1224 q 669 1103 694 1129 q 597 1078 644 1078 m 324 1078 q 251 1103 276 1078 q 225 1176 225 1129 q 251 1249 225 1224 q 324 1274 276 1274 q 396 1249 371 1274 q 421 1176 421 1224 q 396 1103 421 1129 q 324 1078 371 1078 z "},"Ė":{"ha":840,"x_min":99,"x_max":781,"o":"m 211 0 q 128 29 157 0 q 99 113 99 58 l 99 867 q 128 950 99 921 q 211 979 157 979 l 696 979 q 759 958 738 979 q 781 896 781 936 q 759 833 781 854 q 696 811 738 811 l 304 811 l 304 582 l 664 582 q 728 560 707 582 q 750 497 750 539 q 728 434 750 456 q 664 413 707 413 l 304 413 l 304 168 l 696 168 q 759 147 738 168 q 781 85 781 125 q 759 22 781 43 q 696 0 738 0 l 211 0 m 460 1085 q 383 1111 410 1085 q 356 1185 356 1138 q 383 1257 356 1232 q 460 1282 410 1282 q 538 1257 511 1282 q 564 1185 564 1232 q 538 1110 564 1136 q 460 1085 511 1085 z "},"Ẹ":{"ha":840,"x_min":99,"x_max":781,"o":"m 211 0 q 128 29 157 0 q 99 113 99 58 l 99 867 q 128 950 99 921 q 211 979 157 979 l 696 979 q 759 958 738 979 q 781 896 781 936 q 759 833 781 854 q 696 811 738 811 l 304 811 l 304 582 l 664 582 q 728 560 707 582 q 750 497 750 539 q 728 434 750 456 q 664 413 707 413 l 304 413 l 304 168 l 696 168 q 759 147 738 168 q 781 85 781 125 q 759 22 781 43 q 696 0 738 0 l 211 0 m 460 -304 q 383 -278 410 -304 q 356 -206 356 -253 q 383 -132 356 -157 q 460 -107 410 -107 q 538 -132 511 -107 q 564 -206 564 -157 q 538 -278 564 -253 q 460 -304 511 -304 z "},"È":{"ha":840,"x_min":99,"x_max":781,"o":"m 211 0 q 128 29 157 0 q 99 113 99 58 l 99 867 q 128 950 99 921 q 211 979 157 979 l 696 979 q 759 958 738 979 q 781 896 781 936 q 759 833 781 854 q 696 811 738 811 l 304 811 l 304 582 l 664 582 q 728 560 707 582 q 750 497 750 539 q 728 434 750 456 q 664 413 707 413 l 304 413 l 304 168 l 696 168 q 759 147 738 168 q 781 85 781 125 q 759 22 781 43 q 696 0 738 0 l 211 0 m 378 1072 l 253 1204 q 233 1249 232 1226 q 250 1291 235 1272 q 289 1319 265 1310 q 338 1323 313 1328 q 379 1290 363 1318 l 479 1143 q 488 1100 493 1121 q 463 1065 482 1079 q 421 1051 444 1050 q 378 1072 397 1051 z "},"Ẻ":{"ha":840,"x_min":99,"x_max":781,"o":"m 211 0 q 128 29 157 0 q 99 113 99 58 l 99 867 q 128 950 99 921 q 211 979 157 979 l 696 979 q 759 958 738 979 q 781 896 781 936 q 759 833 781 854 q 696 811 738 811 l 304 811 l 304 582 l 664 582 q 728 560 707 582 q 750 497 750 539 q 728 434 750 456 q 664 413 707 413 l 304 413 l 304 168 l 696 168 q 759 147 738 168 q 781 85 781 125 q 759 22 781 43 q 696 0 738 0 l 211 0 m 460 1050 q 415 1060 431 1050 q 399 1089 399 1069 q 409 1126 399 1113 q 434 1151 419 1140 q 460 1173 449 1163 q 471 1196 471 1183 q 458 1215 471 1208 q 421 1221 444 1221 q 399 1219 411 1221 q 376 1217 388 1218 q 337 1216 353 1211 q 313 1240 321 1221 q 313 1276 306 1260 q 344 1300 319 1292 q 403 1313 369 1308 q 474 1317 436 1317 q 585 1293 544 1317 q 626 1228 626 1269 q 610 1178 626 1196 q 574 1147 594 1160 q 538 1119 553 1133 q 522 1081 522 1104 q 506 1058 522 1067 q 460 1050 490 1050 z "},"Ȇ":{"ha":840,"x_min":99,"x_max":781,"o":"m 211 0 q 128 29 157 0 q 99 113 99 58 l 99 867 q 128 950 99 921 q 211 979 157 979 l 696 979 q 759 958 738 979 q 781 896 781 936 q 759 833 781 854 q 696 811 738 811 l 304 811 l 304 582 l 664 582 q 728 560 707 582 q 750 497 750 539 q 728 434 750 456 q 664 413 707 413 l 304 413 l 304 168 l 696 168 q 759 147 738 168 q 781 85 781 125 q 759 22 781 43 q 696 0 738 0 l 211 0 m 250 1056 q 210 1081 225 1060 q 206 1132 196 1101 q 298 1263 229 1217 q 460 1308 367 1308 q 621 1263 551 1308 q 713 1132 690 1217 q 708 1081 722 1101 q 668 1056 694 1060 q 631 1061 644 1054 q 608 1080 617 1068 q 594 1103 600 1092 q 542 1168 579 1149 q 460 1188 504 1188 q 379 1168 417 1188 q 325 1103 342 1149 q 311 1080 319 1092 q 288 1061 303 1068 q 250 1056 274 1054 z "},"Ē":{"ha":840,"x_min":99,"x_max":781,"o":"m 211 0 q 128 29 157 0 q 99 113 99 58 l 99 867 q 128 950 99 921 q 211 979 157 979 l 696 979 q 759 958 738 979 q 781 896 781 936 q 759 833 781 854 q 696 811 738 811 l 304 811 l 304 582 l 664 582 q 728 560 707 582 q 750 497 750 539 q 728 434 750 456 q 664 413 707 413 l 304 413 l 304 168 l 696 168 q 759 147 738 168 q 781 85 781 125 q 759 22 781 43 q 696 0 738 0 l 211 0 m 265 1113 q 204 1172 204 1113 q 220 1215 204 1200 q 265 1231 236 1231 l 654 1231 q 717 1172 717 1231 q 701 1128 717 1144 q 654 1113 685 1113 l 265 1113 z "},"Ḗ":{"ha":840,"x_min":99,"x_max":781,"o":"m 211 0 q 128 29 157 0 q 99 113 99 58 l 99 867 q 128 950 99 921 q 211 979 157 979 l 696 979 q 759 958 738 979 q 781 896 781 936 q 759 833 781 854 q 696 811 738 811 l 304 811 l 304 582 l 664 582 q 728 560 707 582 q 750 497 750 539 q 728 434 750 456 q 664 413 707 413 l 304 413 l 304 168 l 696 168 q 759 147 738 168 q 781 85 781 125 q 759 22 781 43 q 696 0 738 0 l 211 0 m 293 1082 q 244 1097 261 1082 q 226 1140 226 1113 q 244 1184 226 1168 q 293 1200 261 1200 l 626 1200 q 676 1184 658 1200 q 693 1140 693 1168 q 676 1097 693 1113 q 626 1082 658 1082 l 293 1082 m 524 1251 q 484 1229 506 1232 q 445 1238 463 1226 q 421 1268 428 1249 q 425 1310 414 1288 l 482 1417 q 519 1453 496 1444 q 566 1455 542 1461 q 607 1432 590 1449 q 626 1392 624 1415 q 607 1346 628 1369 l 524 1251 z "},"Ḕ":{"ha":840,"x_min":99,"x_max":781,"o":"m 211 0 q 128 29 157 0 q 99 113 99 58 l 99 867 q 128 950 99 921 q 211 979 157 979 l 696 979 q 759 958 738 979 q 781 896 781 936 q 759 833 781 854 q 696 811 738 811 l 304 811 l 304 582 l 664 582 q 728 560 707 582 q 750 497 750 539 q 728 434 750 456 q 664 413 707 413 l 304 413 l 304 168 l 696 168 q 759 147 738 168 q 781 85 781 125 q 759 22 781 43 q 696 0 738 0 l 211 0 m 396 1251 l 313 1346 q 294 1392 292 1369 q 313 1432 296 1415 q 353 1455 329 1449 q 401 1453 378 1461 q 438 1417 424 1444 l 494 1310 q 499 1268 506 1288 q 474 1238 492 1249 q 435 1229 457 1226 q 396 1251 414 1232 m 293 1082 q 244 1097 261 1082 q 226 1140 226 1113 q 244 1184 226 1168 q 293 1200 261 1200 l 626 1200 q 676 1184 658 1200 q 693 1140 693 1168 q 676 1097 693 1113 q 626 1082 658 1082 l 293 1082 z "},"Ę":{"ha":840,"x_min":99,"x_max":799,"o":"m 211 0 q 128 29 157 0 q 99 113 99 58 l 99 867 q 128 950 99 921 q 211 979 157 979 l 696 979 q 759 958 738 979 q 781 896 781 936 q 759 833 781 854 q 696 811 738 811 l 304 811 l 304 582 l 664 582 q 728 560 707 582 q 750 497 750 539 q 728 434 750 456 q 664 413 707 413 l 304 413 l 304 168 l 696 168 q 759 147 738 168 q 781 85 781 125 q 759 22 781 43 q 696 0 738 0 l 211 0 m 664 -274 q 536 -233 582 -274 q 490 -124 490 -192 q 531 -12 490 -62 q 638 63 571 38 l 696 0 q 654 -25 672 -10 q 626 -60 636 -40 q 617 -100 617 -79 q 639 -149 617 -132 q 693 -167 661 -167 q 713 -165 703 -167 q 732 -161 722 -164 q 777 -167 761 -156 q 796 -197 793 -178 q 789 -235 799 -217 q 754 -261 779 -253 q 707 -272 731 -269 q 664 -274 683 -274 z "},"Ẽ":{"ha":840,"x_min":99,"x_max":781,"o":"m 211 0 q 128 29 157 0 q 99 113 99 58 l 99 867 q 128 950 99 921 q 211 979 157 979 l 696 979 q 759 958 738 979 q 781 896 781 936 q 759 833 781 854 q 696 811 738 811 l 304 811 l 304 582 l 664 582 q 728 560 707 582 q 750 497 750 539 q 728 434 750 456 q 664 413 707 413 l 304 413 l 304 168 l 696 168 q 759 147 738 168 q 781 85 781 125 q 759 22 781 43 q 696 0 738 0 l 211 0 m 193 1060 q 153 1076 167 1061 q 144 1119 139 1092 q 214 1244 163 1200 q 336 1288 265 1288 q 408 1275 375 1288 q 472 1246 442 1263 q 531 1217 503 1229 q 588 1204 560 1204 q 640 1219 619 1204 q 669 1257 661 1233 q 692 1289 679 1278 q 726 1297 706 1300 q 767 1281 753 1296 q 775 1238 781 1265 q 708 1113 758 1157 q 585 1069 657 1069 q 512 1082 546 1069 q 447 1111 478 1094 q 388 1140 417 1128 q 332 1153 360 1153 q 280 1138 301 1153 q 250 1100 258 1124 q 228 1069 240 1081 q 193 1060 215 1058 z "},"Ə":{"ha":1106,"x_min":69,"x_max":1038,"o":"m 564 -15 q 350 23 443 -15 q 194 130 257 61 q 101 294 132 199 q 69 506 69 390 q 86 558 69 540 q 135 575 103 575 l 869 575 l 869 406 l 232 406 l 289 492 q 319 308 289 382 q 408 197 349 233 q 553 160 467 160 q 694 197 636 160 q 782 308 751 235 q 813 490 813 381 q 776 667 813 596 q 669 774 740 738 q 493 811 599 811 q 371 799 431 811 q 256 760 311 788 q 190 751 218 744 q 144 778 161 757 q 123 826 126 799 q 132 880 119 854 q 178 921 144 906 q 335 975 246 956 q 521 994 424 994 q 792 933 676 994 q 973 758 908 871 q 1038 489 1038 646 q 1003 281 1038 374 q 905 122 968 189 q 755 20 842 56 q 564 -15 668 -15 z "},"F":{"ha":792,"x_min":99,"x_max":771,"o":"m 208 -12 q 127 17 156 -12 q 99 101 99 46 l 99 867 q 128 950 99 921 q 211 979 157 979 l 686 979 q 749 958 728 979 q 771 896 771 936 q 749 833 771 854 q 686 811 728 811 l 314 811 l 314 572 l 656 572 q 719 551 697 572 q 742 489 742 529 q 719 426 742 449 q 656 404 697 404 l 314 404 l 314 101 q 208 -12 314 -12 z "},"G":{"ha":1031,"x_min":69,"x_max":939,"o":"m 583 -15 q 303 47 418 -15 q 129 222 189 110 q 69 486 69 335 q 105 697 69 603 q 208 856 140 790 q 372 958 275 922 q 590 994 468 994 q 740 978 665 994 q 885 922 815 961 q 924 880 914 906 q 930 826 935 854 q 908 776 925 797 q 863 748 890 754 q 801 758 836 742 q 704 795 756 783 q 592 807 653 807 q 426 770 493 807 q 327 662 360 733 q 294 486 294 590 q 370 249 294 329 q 594 168 446 168 q 697 178 644 168 q 801 206 750 188 l 761 118 l 761 385 l 636 385 q 572 406 594 385 q 550 463 550 426 q 572 520 550 500 q 636 540 594 540 l 854 540 q 917 518 896 540 q 939 454 939 496 l 939 132 q 925 71 939 96 q 878 35 911 46 q 738 -1 815 13 q 583 -15 660 -15 z "},"Ğ":{"ha":1031,"x_min":69,"x_max":939,"o":"m 583 -15 q 303 47 418 -15 q 129 222 189 110 q 69 486 69 335 q 105 697 69 603 q 208 856 140 790 q 372 958 275 922 q 590 994 468 994 q 740 978 665 994 q 885 922 815 961 q 924 880 914 906 q 930 826 935 854 q 908 776 925 797 q 863 748 890 754 q 801 758 836 742 q 704 795 756 783 q 592 807 653 807 q 426 770 493 807 q 327 662 360 733 q 294 486 294 590 q 370 249 294 329 q 594 168 446 168 q 697 178 644 168 q 801 206 750 188 l 761 118 l 761 385 l 636 385 q 572 406 594 385 q 550 463 550 426 q 572 520 550 500 q 636 540 594 540 l 854 540 q 917 518 896 540 q 939 454 939 496 l 939 132 q 925 71 939 96 q 878 35 911 46 q 738 -1 815 13 q 583 -15 660 -15 m 565 1056 q 403 1102 471 1056 q 311 1232 335 1149 q 317 1285 301 1264 q 356 1308 332 1306 q 394 1303 379 1311 q 417 1284 408 1296 q 431 1261 425 1272 q 483 1197 446 1217 q 565 1176 521 1176 q 647 1197 610 1176 q 700 1261 685 1217 q 714 1284 706 1272 q 737 1303 722 1296 q 775 1308 751 1311 q 814 1285 799 1306 q 819 1232 829 1264 q 728 1102 797 1149 q 565 1056 660 1056 z "},"Ǧ":{"ha":1031,"x_min":69,"x_max":939,"o":"m 583 -15 q 303 47 418 -15 q 129 222 189 110 q 69 486 69 335 q 105 697 69 603 q 208 856 140 790 q 372 958 275 922 q 590 994 468 994 q 740 978 665 994 q 885 922 815 961 q 924 880 914 906 q 930 826 935 854 q 908 776 925 797 q 863 748 890 754 q 801 758 836 742 q 704 795 756 783 q 592 807 653 807 q 426 770 493 807 q 327 662 360 733 q 294 486 294 590 q 370 249 294 329 q 594 168 446 168 q 697 178 644 168 q 801 206 750 188 l 761 118 l 761 385 l 636 385 q 572 406 594 385 q 550 463 550 426 q 572 520 550 500 q 636 540 594 540 l 854 540 q 917 518 896 540 q 939 454 939 496 l 939 132 q 925 71 939 96 q 878 35 911 46 q 738 -1 815 13 q 583 -15 660 -15 m 565 1043 q 499 1059 529 1043 q 446 1108 469 1075 l 357 1232 q 347 1275 340 1254 q 372 1308 353 1296 q 415 1319 392 1321 q 458 1294 439 1317 l 565 1172 l 674 1294 q 717 1319 693 1317 q 759 1308 740 1321 q 784 1276 778 1296 q 774 1232 790 1256 l 686 1108 q 633 1059 663 1075 q 565 1043 603 1043 z "},"Ĝ":{"ha":1031,"x_min":69,"x_max":939,"o":"m 583 -15 q 303 47 418 -15 q 129 222 189 110 q 69 486 69 335 q 105 697 69 603 q 208 856 140 790 q 372 958 275 922 q 590 994 468 994 q 740 978 665 994 q 885 922 815 961 q 924 880 914 906 q 930 826 935 854 q 908 776 925 797 q 863 748 890 754 q 801 758 836 742 q 704 795 756 783 q 592 807 653 807 q 426 770 493 807 q 327 662 360 733 q 294 486 294 590 q 370 249 294 329 q 594 168 446 168 q 697 178 644 168 q 801 206 750 188 l 761 118 l 761 385 l 636 385 q 572 406 594 385 q 550 463 550 426 q 572 520 550 500 q 636 540 594 540 l 854 540 q 917 518 896 540 q 939 454 939 496 l 939 132 q 925 71 939 96 q 878 35 911 46 q 738 -1 815 13 q 583 -15 660 -15 m 458 1074 q 415 1050 439 1051 q 372 1061 390 1049 q 347 1094 353 1074 q 357 1136 340 1114 l 446 1260 q 499 1309 469 1293 q 565 1325 529 1325 q 633 1309 603 1325 q 686 1260 663 1293 l 774 1136 q 785 1094 790 1114 q 760 1061 779 1074 q 717 1050 742 1049 q 674 1074 693 1051 l 565 1194 l 458 1074 z "},"Ģ":{"ha":1031,"x_min":69,"x_max":939,"o":"m 583 -15 q 303 47 418 -15 q 129 222 189 110 q 69 486 69 335 q 105 697 69 603 q 208 856 140 790 q 372 958 275 922 q 590 994 468 994 q 740 978 665 994 q 885 922 815 961 q 924 880 914 906 q 930 826 935 854 q 908 776 925 797 q 863 748 890 754 q 801 758 836 742 q 704 795 756 783 q 592 807 653 807 q 426 770 493 807 q 327 662 360 733 q 294 486 294 590 q 370 249 294 329 q 594 168 446 168 q 697 178 644 168 q 801 206 750 188 l 761 118 l 761 385 l 636 385 q 572 406 594 385 q 550 463 550 426 q 572 520 550 500 q 636 540 594 540 l 854 540 q 917 518 896 540 q 939 454 939 496 l 939 132 q 925 71 939 96 q 878 35 911 46 q 738 -1 815 13 q 583 -15 660 -15 m 621 -369 q 586 -390 606 -387 q 551 -383 567 -393 q 533 -356 536 -374 q 546 -315 531 -337 q 566 -272 560 -296 q 572 -232 572 -249 l 576 -267 q 495 -243 524 -267 q 467 -175 467 -219 q 494 -109 467 -132 q 574 -86 522 -86 q 653 -112 626 -86 q 681 -190 681 -137 q 674 -253 681 -222 q 655 -315 668 -285 q 621 -369 642 -344 z "},"Ġ":{"ha":1031,"x_min":69,"x_max":939,"o":"m 583 -15 q 303 47 418 -15 q 129 222 189 110 q 69 486 69 335 q 105 697 69 603 q 208 856 140 790 q 372 958 275 922 q 590 994 468 994 q 740 978 665 994 q 885 922 815 961 q 924 880 914 906 q 930 826 935 854 q 908 776 925 797 q 863 748 890 754 q 801 758 836 742 q 704 795 756 783 q 592 807 653 807 q 426 770 493 807 q 327 662 360 733 q 294 486 294 590 q 370 249 294 329 q 594 168 446 168 q 697 178 644 168 q 801 206 750 188 l 761 118 l 761 385 l 636 385 q 572 406 594 385 q 550 463 550 426 q 572 520 550 500 q 636 540 594 540 l 854 540 q 917 518 896 540 q 939 454 939 496 l 939 132 q 925 71 939 96 q 878 35 911 46 q 738 -1 815 13 q 583 -15 660 -15 m 565 1085 q 488 1111 515 1085 q 461 1185 461 1138 q 488 1257 461 1232 q 565 1282 515 1282 q 643 1257 617 1282 q 669 1185 669 1232 q 643 1110 669 1136 q 565 1085 617 1085 z "},"Ḡ":{"ha":1031,"x_min":69,"x_max":939,"o":"m 583 -15 q 303 47 418 -15 q 129 222 189 110 q 69 486 69 335 q 105 697 69 603 q 208 856 140 790 q 372 958 275 922 q 590 994 468 994 q 740 978 665 994 q 885 922 815 961 q 924 880 914 906 q 930 826 935 854 q 908 776 925 797 q 863 748 890 754 q 801 758 836 742 q 704 795 756 783 q 592 807 653 807 q 426 770 493 807 q 327 662 360 733 q 294 486 294 590 q 370 249 294 329 q 594 168 446 168 q 697 178 644 168 q 801 206 750 188 l 761 118 l 761 385 l 636 385 q 572 406 594 385 q 550 463 550 426 q 572 520 550 500 q 636 540 594 540 l 854 540 q 917 518 896 540 q 939 454 939 496 l 939 132 q 925 71 939 96 q 878 35 911 46 q 738 -1 815 13 q 583 -15 660 -15 m 371 1113 q 310 1172 310 1113 q 326 1215 310 1200 q 371 1231 342 1231 l 760 1231 q 822 1172 822 1231 q 806 1128 822 1144 q 760 1113 790 1113 l 371 1113 z "},"H":{"ha":1083,"x_min":99,"x_max":985,"o":"m 207 -12 q 126 17 154 -12 q 99 99 99 46 l 99 881 q 126 963 99 933 q 207 992 154 992 q 286 963 258 992 q 314 881 314 933 l 314 586 l 769 586 l 769 881 q 797 963 769 933 q 876 992 825 992 q 957 963 929 992 q 985 881 985 933 l 985 99 q 957 17 985 46 q 876 -12 929 -12 q 797 17 825 -12 q 769 99 769 46 l 769 407 l 314 407 l 314 99 q 287 17 314 46 q 207 -12 260 -12 z "},"Ħ":{"ha":1151,"x_min":7,"x_max":1144,"o":"m 242 -12 q 160 17 189 -12 q 132 99 132 46 l 132 726 l 197 703 l 88 703 q 7 781 7 703 q 28 838 7 818 q 88 858 49 858 l 171 858 l 132 792 l 132 881 q 160 963 132 933 q 242 992 189 992 q 321 963 293 992 q 349 881 349 933 l 349 792 l 319 858 l 832 858 l 803 792 l 803 881 q 831 963 803 933 q 913 992 860 992 q 992 963 964 992 q 1019 881 1019 933 l 1019 792 l 972 858 l 1065 858 q 1144 781 1144 858 q 1124 723 1144 743 q 1065 703 1103 703 l 944 703 l 1019 731 l 1019 99 q 992 17 1019 46 q 913 -12 964 -12 q 831 17 860 -12 q 803 99 803 46 l 803 389 l 349 389 l 349 99 q 322 17 349 46 q 242 -12 294 -12 m 349 568 l 803 568 l 803 703 l 349 703 l 349 568 z "},"Ḫ":{"ha":1083,"x_min":99,"x_max":985,"o":"m 207 -12 q 126 17 154 -12 q 99 99 99 46 l 99 881 q 126 963 99 933 q 207 992 154 992 q 286 963 258 992 q 314 881 314 933 l 314 586 l 769 586 l 769 881 q 797 963 769 933 q 876 992 825 992 q 957 963 929 992 q 985 881 985 933 l 985 99 q 957 17 985 46 q 876 -12 929 -12 q 797 17 825 -12 q 769 99 769 46 l 769 407 l 314 407 l 314 99 q 287 17 314 46 q 207 -12 260 -12 m 542 -299 q 393 -258 454 -299 q 311 -143 332 -218 q 315 -88 300 -108 q 356 -67 329 -68 q 386 -69 374 -65 q 410 -84 399 -74 q 429 -111 421 -94 q 470 -161 440 -143 q 542 -179 500 -179 q 613 -161 583 -179 q 654 -111 643 -143 q 685 -75 668 -86 q 728 -67 701 -64 q 769 -88 756 -68 q 772 -143 783 -108 q 690 -258 751 -218 q 542 -299 629 -299 z "},"Ĥ":{"ha":1083,"x_min":99,"x_max":985,"o":"m 207 -12 q 126 17 154 -12 q 99 99 99 46 l 99 881 q 126 963 99 933 q 207 992 154 992 q 286 963 258 992 q 314 881 314 933 l 314 586 l 769 586 l 769 881 q 797 963 769 933 q 876 992 825 992 q 957 963 929 992 q 985 881 985 933 l 985 99 q 957 17 985 46 q 876 -12 929 -12 q 797 17 825 -12 q 769 99 769 46 l 769 407 l 314 407 l 314 99 q 287 17 314 46 q 207 -12 260 -12 m 433 1074 q 390 1050 414 1051 q 347 1061 365 1049 q 322 1094 328 1074 q 332 1136 315 1114 l 421 1260 q 474 1309 444 1293 q 540 1325 504 1325 q 608 1309 578 1325 q 661 1260 638 1293 l 749 1136 q 760 1094 765 1114 q 735 1061 754 1074 q 692 1050 717 1049 q 649 1074 668 1051 l 540 1194 l 433 1074 z "},"Ḥ":{"ha":1083,"x_min":99,"x_max":985,"o":"m 207 -12 q 126 17 154 -12 q 99 99 99 46 l 99 881 q 126 963 99 933 q 207 992 154 992 q 286 963 258 992 q 314 881 314 933 l 314 586 l 769 586 l 769 881 q 797 963 769 933 q 876 992 825 992 q 957 963 929 992 q 985 881 985 933 l 985 99 q 957 17 985 46 q 876 -12 929 -12 q 797 17 825 -12 q 769 99 769 46 l 769 407 l 314 407 l 314 99 q 287 17 314 46 q 207 -12 260 -12 m 542 -304 q 465 -278 492 -304 q 438 -206 438 -253 q 465 -132 438 -157 q 542 -107 492 -107 q 619 -132 593 -107 q 646 -206 646 -157 q 619 -278 646 -253 q 542 -304 593 -304 z "},"I":{"ha":413,"x_min":99,"x_max":314,"o":"m 207 -12 q 126 17 154 -12 q 99 99 99 46 l 99 881 q 126 963 99 933 q 207 992 154 992 q 286 963 258 992 q 314 881 314 933 l 314 99 q 287 17 314 46 q 207 -12 260 -12 z "},"Ĳ":{"ha":929,"x_min":99,"x_max":832,"o":"m 207 -12 q 126 17 154 -12 q 99 99 99 46 l 99 881 q 126 963 99 933 q 207 992 154 992 q 286 963 258 992 q 314 881 314 933 l 314 99 q 287 17 314 46 q 207 -12 260 -12 m 492 -11 q 418 14 444 -12 q 392 82 392 40 q 410 138 392 114 q 465 164 429 163 l 506 167 q 589 199 561 171 q 617 283 617 226 l 617 882 q 644 963 617 935 q 724 992 672 992 q 804 963 776 992 q 832 882 832 935 l 832 286 q 799 131 832 194 q 701 33 767 68 q 540 -8 636 -1 l 492 -11 z "},"Í":{"ha":413,"x_min":99,"x_max":435,"o":"m 207 -12 q 126 17 154 -12 q 99 99 99 46 l 99 881 q 126 963 99 933 q 207 992 154 992 q 286 963 258 992 q 314 881 314 933 l 314 99 q 287 17 314 46 q 207 -12 260 -12 m 289 1072 q 244 1051 268 1051 q 202 1065 221 1050 q 178 1100 183 1079 q 188 1143 172 1121 l 288 1290 q 328 1323 304 1318 q 377 1319 353 1328 q 417 1291 401 1310 q 433 1249 432 1272 q 414 1204 435 1226 l 289 1072 z "},"Ĭ":{"ha":413,"x_min":-58,"x_max":469,"o":"m 207 -12 q 126 17 154 -12 q 99 99 99 46 l 99 881 q 126 963 99 933 q 207 992 154 992 q 286 963 258 992 q 314 881 314 933 l 314 99 q 287 17 314 46 q 207 -12 260 -12 m 206 1056 q 43 1102 111 1056 q -49 1232 -25 1149 q -43 1285 -58 1264 q -4 1308 -28 1306 q 34 1303 19 1311 q 57 1284 49 1296 q 71 1261 65 1272 q 124 1197 86 1217 q 206 1176 161 1176 q 288 1197 250 1176 q 340 1261 325 1217 q 354 1284 346 1272 q 377 1303 363 1296 q 415 1308 392 1311 q 454 1285 439 1306 q 460 1232 469 1264 q 369 1102 438 1149 q 206 1056 300 1056 z "},"Î":{"ha":413,"x_min":-18,"x_max":432,"o":"m 207 -12 q 126 17 154 -12 q 99 99 99 46 l 99 881 q 126 963 99 933 q 207 992 154 992 q 286 963 258 992 q 314 881 314 933 l 314 99 q 287 17 314 46 q 207 -12 260 -12 m 99 1074 q 55 1050 79 1051 q 12 1061 31 1049 q -13 1094 -7 1074 q -3 1136 -19 1114 l 86 1260 q 140 1309 110 1293 q 206 1325 169 1325 q 273 1309 243 1325 q 326 1260 303 1293 l 414 1136 q 425 1094 431 1114 q 401 1061 419 1074 q 358 1050 382 1049 q 314 1074 333 1051 l 206 1194 l 99 1074 z "},"Ȉ":{"ha":413,"x_min":-106,"x_max":356,"o":"m 207 -12 q 126 17 154 -12 q 99 99 99 46 l 99 881 q 126 963 99 933 q 207 992 154 992 q 286 963 258 992 q 314 881 314 933 l 314 99 q 287 17 314 46 q 207 -12 260 -12 m 246 1076 l 144 1214 q 128 1262 125 1239 q 147 1301 131 1285 q 185 1322 163 1317 q 231 1319 208 1328 q 265 1285 254 1311 l 344 1126 q 348 1085 356 1104 q 322 1057 340 1067 q 283 1051 304 1047 q 246 1076 263 1056 m 31 1071 l -86 1214 q -105 1261 -106 1239 q -89 1300 -104 1283 q -51 1322 -74 1317 q -7 1320 -29 1328 q 29 1286 15 1313 l 115 1131 q 122 1090 128 1108 q 101 1060 117 1071 q 66 1050 86 1049 q 31 1071 46 1051 z "},"Ï":{"ha":413,"x_min":-29,"x_max":440,"o":"m 207 -12 q 126 17 154 -12 q 99 99 99 46 l 99 881 q 126 963 99 933 q 207 992 154 992 q 286 963 258 992 q 314 881 314 933 l 314 99 q 287 17 314 46 q 207 -12 260 -12 m 343 1078 q 270 1103 296 1078 q 244 1176 244 1129 q 270 1249 244 1224 q 343 1274 296 1274 q 415 1249 390 1274 q 440 1176 440 1224 q 415 1103 440 1129 q 343 1078 390 1078 m 69 1078 q -3 1103 22 1078 q -29 1176 -29 1129 q -3 1249 -29 1224 q 69 1274 22 1274 q 142 1249 117 1274 q 167 1176 167 1224 q 142 1103 167 1129 q 69 1078 117 1078 z "},"Ḯ":{"ha":413,"x_min":-29,"x_max":440,"o":"m 207 -12 q 126 17 154 -12 q 99 99 99 46 l 99 881 q 126 963 99 933 q 207 992 154 992 q 286 963 258 992 q 314 881 314 933 l 314 99 q 287 17 314 46 q 207 -12 260 -12 m 269 1251 q 228 1228 250 1231 q 190 1237 207 1226 q 166 1267 172 1247 q 171 1310 160 1288 l 228 1417 q 265 1452 242 1444 q 312 1453 288 1460 q 353 1431 336 1447 q 372 1391 369 1414 q 353 1344 374 1368 l 269 1251 m 69 1063 q -3 1082 22 1063 q -29 1136 -29 1101 q -3 1191 -29 1172 q 69 1210 22 1210 q 142 1191 117 1210 q 167 1136 167 1172 q 142 1082 167 1101 q 69 1063 117 1063 m 343 1063 q 270 1082 296 1063 q 244 1136 244 1101 q 270 1191 244 1172 q 343 1210 296 1210 q 415 1191 390 1210 q 440 1136 440 1172 q 415 1082 440 1101 q 343 1063 390 1063 z "},"İ":{"ha":413,"x_min":99,"x_max":314,"o":"m 207 -12 q 126 17 154 -12 q 99 99 99 46 l 99 881 q 126 963 99 933 q 207 992 154 992 q 286 963 258 992 q 314 881 314 933 l 314 99 q 287 17 314 46 q 207 -12 260 -12 m 206 1085 q 128 1111 156 1085 q 101 1185 101 1138 q 128 1257 101 1232 q 206 1282 156 1282 q 283 1257 257 1282 q 310 1185 310 1232 q 283 1110 310 1136 q 206 1085 257 1085 z "},"Ị":{"ha":413,"x_min":99,"x_max":314,"o":"m 207 -12 q 126 17 154 -12 q 99 99 99 46 l 99 881 q 126 963 99 933 q 207 992 154 992 q 286 963 258 992 q 314 881 314 933 l 314 99 q 287 17 314 46 q 207 -12 260 -12 m 206 -304 q 128 -278 156 -304 q 101 -206 101 -253 q 128 -132 101 -157 q 206 -107 156 -107 q 283 -132 257 -107 q 310 -206 310 -157 q 283 -278 310 -253 q 206 -304 257 -304 z "},"Ì":{"ha":413,"x_min":-22,"x_max":314,"o":"m 207 -12 q 126 17 154 -12 q 99 99 99 46 l 99 881 q 126 963 99 933 q 207 992 154 992 q 286 963 258 992 q 314 881 314 933 l 314 99 q 287 17 314 46 q 207 -12 260 -12 m 124 1072 l -1 1204 q -21 1249 -22 1226 q -4 1291 -19 1272 q 35 1319 11 1310 q 83 1323 58 1328 q 125 1290 108 1318 l 225 1143 q 233 1100 239 1121 q 209 1065 228 1079 q 167 1051 190 1050 q 124 1072 143 1051 z "},"Ỉ":{"ha":413,"x_min":51,"x_max":372,"o":"m 207 -12 q 126 17 154 -12 q 99 99 99 46 l 99 881 q 126 963 99 933 q 207 992 154 992 q 286 963 258 992 q 314 881 314 933 l 314 99 q 287 17 314 46 q 207 -12 260 -12 m 206 1050 q 160 1060 176 1050 q 144 1089 144 1069 q 155 1126 144 1113 q 180 1151 165 1140 q 206 1173 194 1163 q 217 1196 217 1183 q 203 1215 217 1208 q 167 1221 190 1221 q 145 1219 157 1221 q 122 1217 133 1218 q 83 1216 99 1211 q 58 1240 67 1221 q 58 1276 51 1260 q 90 1300 65 1292 q 149 1313 115 1308 q 219 1317 182 1317 q 331 1293 290 1317 q 372 1228 372 1269 q 356 1178 372 1196 q 319 1147 340 1160 q 283 1119 299 1133 q 268 1081 268 1104 q 252 1058 268 1067 q 206 1050 236 1050 z "},"Ȋ":{"ha":413,"x_min":-57,"x_max":468,"o":"m 207 -12 q 126 17 154 -12 q 99 99 99 46 l 99 881 q 126 963 99 933 q 207 992 154 992 q 286 963 258 992 q 314 881 314 933 l 314 99 q 287 17 314 46 q 207 -12 260 -12 m -4 1056 q -44 1081 -29 1060 q -49 1132 -58 1101 q 44 1263 -25 1217 q 206 1308 113 1308 q 367 1263 297 1308 q 458 1132 436 1217 q 454 1081 468 1101 q 414 1056 440 1060 q 376 1061 390 1054 q 354 1080 363 1068 q 340 1103 346 1092 q 288 1168 325 1149 q 206 1188 250 1188 q 125 1168 163 1188 q 71 1103 88 1149 q 57 1080 65 1092 q 34 1061 49 1068 q -4 1056 19 1054 z "},"Ī":{"ha":413,"x_min":-50,"x_max":463,"o":"m 207 -12 q 126 17 154 -12 q 99 99 99 46 l 99 881 q 126 963 99 933 q 207 992 154 992 q 286 963 258 992 q 314 881 314 933 l 314 99 q 287 17 314 46 q 207 -12 260 -12 m 11 1113 q -50 1172 -50 1113 q -34 1215 -50 1200 q 11 1231 -18 1231 l 400 1231 q 463 1172 463 1231 q 447 1128 463 1144 q 400 1113 431 1113 l 11 1113 z "},"Į":{"ha":413,"x_min":58,"x_max":368,"o":"m 233 -274 q 104 -233 150 -274 q 58 -124 58 -192 q 78 -44 58 -82 q 133 21 99 -7 l 133 11 q 107 47 115 25 q 99 99 99 69 l 99 881 q 126 963 99 933 q 207 992 154 992 q 286 963 258 992 q 314 881 314 933 l 314 99 q 299 35 314 61 q 260 -3 285 8 q 206 -43 226 -17 q 186 -100 186 -69 q 208 -149 186 -132 q 261 -167 229 -167 q 281 -165 271 -167 q 301 -161 290 -164 q 345 -167 329 -156 q 365 -197 361 -178 q 358 -235 368 -217 q 322 -261 347 -253 q 276 -272 300 -269 q 233 -274 253 -274 z "},"Ĩ":{"ha":413,"x_min":-115,"x_max":526,"o":"m 207 -12 q 126 17 154 -12 q 99 99 99 46 l 99 881 q 126 963 99 933 q 207 992 154 992 q 286 963 258 992 q 314 881 314 933 l 314 99 q 287 17 314 46 q 207 -12 260 -12 m -61 1060 q -101 1076 -87 1061 q -110 1119 -115 1092 q -40 1244 -92 1200 q 82 1288 11 1288 q 154 1275 121 1288 q 218 1246 188 1263 q 277 1217 249 1229 q 333 1204 306 1204 q 386 1219 365 1204 q 415 1257 407 1233 q 438 1289 425 1278 q 472 1297 451 1300 q 513 1281 499 1296 q 521 1238 526 1265 q 453 1113 504 1157 q 331 1069 403 1069 q 258 1082 292 1069 q 193 1111 224 1094 q 134 1140 163 1128 q 78 1153 106 1153 q 26 1138 47 1153 q -4 1100 4 1124 q -26 1069 -14 1081 q -61 1060 -39 1058 z "},"J":{"ha":517,"x_min":-21,"x_max":419,"o":"m 79 -11 q 6 14 32 -12 q -21 82 -21 40 q -2 138 -21 114 q 53 164 17 163 l 93 167 q 176 199 149 171 q 204 283 204 226 l 204 882 q 232 963 204 935 q 311 992 260 992 q 392 963 364 992 q 419 882 419 935 l 419 286 q 387 131 419 194 q 289 33 354 68 q 128 -8 224 -1 l 79 -11 z "},"Ĵ":{"ha":517,"x_min":-21,"x_max":536,"o":"m 79 -11 q 6 14 32 -12 q -21 82 -21 40 q -2 138 -21 114 q 53 164 17 163 l 93 167 q 176 199 149 171 q 204 283 204 226 l 204 882 q 232 963 204 935 q 311 992 260 992 q 392 963 364 992 q 419 882 419 935 l 419 286 q 387 131 419 194 q 289 33 354 68 q 128 -8 224 -1 l 79 -11 m 203 1074 q 159 1050 183 1051 q 116 1061 135 1049 q 91 1094 97 1074 q 101 1136 85 1114 l 190 1260 q 244 1309 214 1293 q 310 1325 274 1325 q 377 1309 347 1325 q 431 1260 407 1293 l 518 1136 q 529 1094 535 1114 q 505 1061 524 1074 q 462 1050 486 1049 q 418 1074 438 1051 l 310 1194 l 203 1074 z "},"K":{"ha":956,"x_min":99,"x_max":906,"o":"m 207 -12 q 126 17 154 -12 q 99 99 99 46 l 99 882 q 126 963 99 935 q 207 992 154 992 q 286 963 258 992 q 314 882 314 935 l 314 553 l 317 553 l 686 939 q 735 977 710 964 q 794 990 761 990 q 865 965 843 990 q 883 907 886 940 q 853 844 881 874 l 482 465 l 483 558 l 872 143 q 905 72 904 108 q 881 12 906 36 q 810 -12 857 -12 q 745 4 769 -12 q 692 53 721 21 l 317 447 l 314 447 l 314 99 q 287 17 314 46 q 207 -12 260 -12 z "},"Ķ":{"ha":956,"x_min":99,"x_max":906,"o":"m 207 -12 q 126 17 154 -12 q 99 99 99 46 l 99 882 q 126 963 99 935 q 207 992 154 992 q 286 963 258 992 q 314 882 314 935 l 314 553 l 317 553 l 686 939 q 735 977 710 964 q 794 990 761 990 q 865 965 843 990 q 883 907 886 940 q 853 844 881 874 l 482 465 l 483 558 l 872 143 q 905 72 904 108 q 881 12 906 36 q 810 -12 857 -12 q 745 4 769 -12 q 692 53 721 21 l 317 447 l 314 447 l 314 99 q 287 17 314 46 q 207 -12 260 -12 m 519 -369 q 485 -390 504 -387 q 450 -383 465 -393 q 432 -356 435 -374 q 444 -315 429 -337 q 465 -272 458 -296 q 471 -232 471 -249 l 475 -267 q 394 -243 422 -267 q 365 -175 365 -219 q 393 -109 365 -132 q 472 -86 421 -86 q 552 -112 525 -86 q 579 -190 579 -137 q 573 -253 579 -222 q 553 -315 567 -285 q 519 -369 540 -344 z "},"L":{"ha":796,"x_min":99,"x_max":779,"o":"m 208 0 q 127 29 156 0 q 99 110 99 58 l 99 872 q 126 954 99 926 q 207 982 154 982 q 286 954 258 982 q 314 872 314 926 l 314 182 l 686 182 q 755 158 731 182 q 779 92 779 135 q 755 24 779 47 q 686 0 731 0 l 208 0 z "},"Ǉ":{"ha":1368,"x_min":99,"x_max":1271,"o":"m 208 0 q 127 29 156 0 q 99 110 99 58 l 99 872 q 126 954 99 926 q 207 982 154 982 q 286 954 258 982 q 314 872 314 926 l 314 182 l 686 182 q 755 158 731 182 q 779 92 779 135 q 755 24 779 47 q 686 0 731 0 l 208 0 m 931 -11 q 857 14 883 -12 q 831 82 831 40 q 849 138 831 114 q 904 164 868 163 l 944 167 q 1028 199 1000 171 q 1056 283 1056 226 l 1056 882 q 1083 963 1056 935 q 1163 992 1111 992 q 1243 963 1215 992 q 1271 882 1271 935 l 1271 286 q 1238 131 1271 194 q 1140 33 1206 68 q 979 -8 1075 -1 l 931 -11 z "},"Ĺ":{"ha":796,"x_min":99,"x_max":779,"o":"m 208 0 q 127 29 156 0 q 99 110 99 58 l 99 872 q 126 954 99 926 q 207 982 154 982 q 286 954 258 982 q 314 872 314 926 l 314 182 l 686 182 q 755 158 731 182 q 779 92 779 135 q 755 24 779 47 q 686 0 731 0 l 208 0 m 289 1072 q 244 1051 268 1051 q 202 1065 221 1050 q 178 1100 183 1079 q 188 1143 172 1121 l 288 1290 q 328 1323 304 1318 q 377 1319 353 1328 q 417 1291 401 1310 q 433 1249 432 1272 q 414 1204 435 1226 l 289 1072 z "},"Ľ":{"ha":796,"x_min":99,"x_max":779,"o":"m 208 0 q 127 29 156 0 q 99 110 99 58 l 99 872 q 126 954 99 926 q 207 982 154 982 q 286 954 258 982 q 314 872 314 926 l 314 182 l 686 182 q 755 158 731 182 q 779 92 779 135 q 755 24 779 47 q 686 0 731 0 l 208 0 m 515 631 q 470 647 486 631 q 454 696 454 664 l 454 913 q 475 972 454 951 q 533 992 496 992 q 589 971 571 992 q 603 908 607 950 l 581 692 q 515 631 576 631 z "},"Ļ":{"ha":796,"x_min":99,"x_max":779,"o":"m 208 0 q 127 29 156 0 q 99 110 99 58 l 99 872 q 126 954 99 926 q 207 982 154 982 q 286 954 258 982 q 314 872 314 926 l 314 182 l 686 182 q 755 158 731 182 q 779 92 779 135 q 755 24 779 47 q 686 0 731 0 l 208 0 m 479 -369 q 444 -390 464 -387 q 410 -383 425 -393 q 392 -356 394 -374 q 404 -315 389 -337 q 424 -272 418 -296 q 431 -232 431 -249 l 435 -267 q 353 -243 382 -267 q 325 -175 325 -219 q 353 -109 325 -132 q 432 -86 381 -86 q 512 -112 485 -86 q 539 -190 539 -137 q 533 -253 539 -222 q 513 -315 526 -285 q 479 -369 500 -344 z "},"Ŀ":{"ha":796,"x_min":99,"x_max":779,"o":"m 208 0 q 127 29 156 0 q 99 110 99 58 l 99 872 q 126 954 99 926 q 207 982 154 982 q 286 954 258 982 q 314 872 314 926 l 314 182 l 686 182 q 755 158 731 182 q 779 92 779 135 q 755 24 779 47 q 686 0 731 0 l 208 0 m 608 432 q 520 465 553 432 q 488 551 488 499 q 520 637 488 604 q 608 669 553 669 q 697 637 665 669 q 728 551 728 604 q 697 465 728 499 q 608 432 665 432 z "},"Ḷ":{"ha":796,"x_min":99,"x_max":779,"o":"m 208 0 q 127 29 156 0 q 99 110 99 58 l 99 872 q 126 954 99 926 q 207 982 154 982 q 286 954 258 982 q 314 872 314 926 l 314 182 l 686 182 q 755 158 731 182 q 779 92 779 135 q 755 24 779 47 q 686 0 731 0 l 208 0 m 433 -304 q 356 -278 383 -304 q 329 -206 329 -253 q 356 -132 329 -157 q 433 -107 383 -107 q 511 -132 485 -107 q 538 -206 538 -157 q 511 -278 538 -253 q 433 -304 485 -304 z "},"ǈ":{"ha":1175,"x_min":99,"x_max":1107,"o":"m 208 0 q 127 29 156 0 q 99 110 99 58 l 99 872 q 126 954 99 926 q 207 982 154 982 q 286 954 258 982 q 314 872 314 926 l 314 182 l 686 182 q 755 158 731 182 q 779 92 779 135 q 755 24 779 47 q 686 0 731 0 l 208 0 m 815 -261 q 756 -249 778 -262 q 725 -213 733 -235 q 720 -169 717 -192 q 739 -131 724 -147 q 781 -111 754 -114 q 859 -81 835 -107 q 883 -3 883 -56 l 883 588 q 911 666 883 639 q 989 693 939 693 q 1066 666 1039 693 q 1093 588 1093 639 l 1093 17 q 1063 -135 1093 -75 q 972 -226 1033 -194 q 815 -261 911 -257 m 988 807 q 899 834 931 807 q 868 911 868 861 q 899 990 868 963 q 988 1017 931 1017 q 1076 990 1046 1017 q 1107 911 1107 963 q 1076 834 1107 861 q 988 807 1046 807 z "},"Ḻ":{"ha":796,"x_min":99,"x_max":779,"o":"m 208 0 q 127 29 156 0 q 99 110 99 58 l 99 872 q 126 954 99 926 q 207 982 154 982 q 286 954 258 982 q 314 872 314 926 l 314 182 l 686 182 q 755 158 731 182 q 779 92 779 135 q 755 24 779 47 q 686 0 731 0 l 208 0 m 260 -236 q 199 -176 199 -236 q 215 -133 199 -149 q 260 -118 231 -118 l 607 -118 q 669 -176 669 -118 q 653 -220 669 -204 q 607 -236 638 -236 l 260 -236 z "},"Ł":{"ha":796,"x_min":-60,"x_max":779,"o":"m 208 0 q 127 29 156 0 q 99 110 99 58 l 99 872 q 126 954 99 926 q 207 982 154 982 q 286 954 258 982 q 314 872 314 926 l 314 182 l 686 182 q 755 158 731 182 q 779 92 779 135 q 755 24 779 47 q 686 0 731 0 l 208 0 m 71 329 q 14 315 40 311 q -31 335 -12 318 q -54 377 -49 353 q -49 426 -60 401 q -8 468 -39 451 l 472 746 q 529 760 503 764 q 573 740 556 757 q 597 697 590 722 q 592 648 603 672 q 551 606 582 624 l 71 329 z "},"M":{"ha":1217,"x_min":101,"x_max":1117,"o":"m 199 -12 q 126 14 151 -12 q 101 88 101 40 l 101 892 q 128 965 101 939 q 203 992 156 992 q 269 976 244 992 q 314 921 293 960 l 635 335 l 588 335 l 908 921 q 953 976 929 960 q 1018 992 978 992 q 1091 965 1065 992 q 1117 892 1117 939 l 1117 88 q 1092 14 1117 40 q 1019 -12 1067 -12 q 947 14 972 -12 q 921 88 921 40 l 921 650 l 951 650 l 693 188 q 658 148 676 161 q 608 135 639 135 q 558 149 578 135 q 524 188 539 163 l 263 651 l 296 651 l 296 88 q 272 14 296 40 q 199 -12 247 -12 z "},"Ṃ":{"ha":1217,"x_min":101,"x_max":1117,"o":"m 199 -12 q 126 14 151 -12 q 101 88 101 40 l 101 892 q 128 965 101 939 q 203 992 156 992 q 269 976 244 992 q 314 921 293 960 l 635 335 l 588 335 l 908 921 q 953 976 929 960 q 1018 992 978 992 q 1091 965 1065 992 q 1117 892 1117 939 l 1117 88 q 1092 14 1117 40 q 1019 -12 1067 -12 q 947 14 972 -12 q 921 88 921 40 l 921 650 l 951 650 l 693 188 q 658 148 676 161 q 608 135 639 135 q 558 149 578 135 q 524 188 539 163 l 263 651 l 296 651 l 296 88 q 272 14 296 40 q 199 -12 247 -12 m 610 -304 q 533 -278 560 -304 q 506 -206 506 -253 q 533 -132 506 -157 q 610 -107 560 -107 q 688 -132 661 -107 q 714 -206 714 -157 q 688 -278 714 -253 q 610 -304 661 -304 z "},"N":{"ha":1046,"x_min":99,"x_max":947,"o":"m 199 -12 q 124 15 150 -12 q 99 92 99 42 l 99 883 q 124 964 99 936 q 193 992 150 992 q 251 977 231 992 q 297 929 271 963 l 785 308 l 747 308 l 747 889 q 773 965 747 938 q 847 992 799 992 q 922 965 896 992 q 947 889 947 938 l 947 88 q 924 15 947 42 q 860 -12 900 -12 q 798 3 821 -12 q 749 51 775 18 l 263 672 l 299 672 l 299 92 q 274 15 299 42 q 199 -12 249 -12 z "},"Ǌ":{"ha":1563,"x_min":99,"x_max":1465,"o":"m 199 -12 q 124 15 150 -12 q 99 92 99 42 l 99 883 q 124 964 99 936 q 193 992 150 992 q 251 977 231 992 q 297 929 271 963 l 785 308 l 747 308 l 747 889 q 773 965 747 938 q 847 992 799 992 q 922 965 896 992 q 947 889 947 938 l 947 88 q 924 15 947 42 q 860 -12 900 -12 q 798 3 821 -12 q 749 51 775 18 l 263 672 l 299 672 l 299 92 q 274 15 299 42 q 199 -12 249 -12 m 1125 -11 q 1051 14 1078 -12 q 1025 82 1025 40 q 1044 138 1025 114 q 1099 164 1063 163 l 1139 167 q 1222 199 1194 171 q 1250 283 1250 226 l 1250 882 q 1278 963 1250 935 q 1357 992 1306 992 q 1438 963 1410 992 q 1465 882 1465 935 l 1465 286 q 1433 131 1465 194 q 1335 33 1400 68 q 1174 -8 1269 -1 l 1125 -11 z "},"Ń":{"ha":1046,"x_min":99,"x_max":947,"o":"m 199 -12 q 124 15 150 -12 q 99 92 99 42 l 99 883 q 124 964 99 936 q 193 992 150 992 q 251 977 231 992 q 297 929 271 963 l 785 308 l 747 308 l 747 889 q 773 965 747 938 q 847 992 799 992 q 922 965 896 992 q 947 889 947 938 l 947 88 q 924 15 947 42 q 860 -12 900 -12 q 798 3 821 -12 q 749 51 775 18 l 263 672 l 299 672 l 299 92 q 274 15 299 42 q 199 -12 249 -12 m 606 1072 q 561 1051 585 1051 q 519 1065 538 1050 q 494 1100 500 1079 q 504 1143 489 1121 l 604 1290 q 645 1323 621 1318 q 694 1319 669 1328 q 733 1291 718 1310 q 750 1249 749 1272 q 731 1204 751 1226 l 606 1072 z "},"Ň":{"ha":1046,"x_min":99,"x_max":947,"o":"m 199 -12 q 124 15 150 -12 q 99 92 99 42 l 99 883 q 124 964 99 936 q 193 992 150 992 q 251 977 231 992 q 297 929 271 963 l 785 308 l 747 308 l 747 889 q 773 965 747 938 q 847 992 799 992 q 922 965 896 992 q 947 889 947 938 l 947 88 q 924 15 947 42 q 860 -12 900 -12 q 798 3 821 -12 q 749 51 775 18 l 263 672 l 299 672 l 299 92 q 274 15 299 42 q 199 -12 249 -12 m 522 1043 q 456 1059 486 1043 q 403 1108 426 1075 l 314 1232 q 303 1275 297 1254 q 329 1308 310 1296 q 372 1319 349 1321 q 415 1294 396 1317 l 522 1172 l 631 1294 q 674 1319 650 1317 q 716 1308 697 1321 q 741 1276 735 1296 q 731 1232 747 1256 l 643 1108 q 590 1059 619 1075 q 522 1043 560 1043 z "},"Ņ":{"ha":1046,"x_min":99,"x_max":947,"o":"m 199 -12 q 124 15 150 -12 q 99 92 99 42 l 99 883 q 124 964 99 936 q 193 992 150 992 q 251 977 231 992 q 297 929 271 963 l 785 308 l 747 308 l 747 889 q 773 965 747 938 q 847 992 799 992 q 922 965 896 992 q 947 889 947 938 l 947 88 q 924 15 947 42 q 860 -12 900 -12 q 798 3 821 -12 q 749 51 775 18 l 263 672 l 299 672 l 299 92 q 274 15 299 42 q 199 -12 249 -12 m 569 -369 q 535 -390 554 -387 q 500 -383 515 -393 q 482 -356 485 -374 q 494 -315 479 -337 q 515 -272 508 -296 q 521 -232 521 -249 l 525 -267 q 444 -243 472 -267 q 415 -175 415 -219 q 443 -109 415 -132 q 522 -86 471 -86 q 602 -112 575 -86 q 629 -190 629 -137 q 623 -253 629 -222 q 603 -315 617 -285 q 569 -369 590 -344 z "},"Ṅ":{"ha":1046,"x_min":99,"x_max":947,"o":"m 199 -12 q 124 15 150 -12 q 99 92 99 42 l 99 883 q 124 964 99 936 q 193 992 150 992 q 251 977 231 992 q 297 929 271 963 l 785 308 l 747 308 l 747 889 q 773 965 747 938 q 847 992 799 992 q 922 965 896 992 q 947 889 947 938 l 947 88 q 924 15 947 42 q 860 -12 900 -12 q 798 3 821 -12 q 749 51 775 18 l 263 672 l 299 672 l 299 92 q 274 15 299 42 q 199 -12 249 -12 m 522 1085 q 445 1111 472 1085 q 418 1185 418 1138 q 445 1257 418 1232 q 522 1282 472 1282 q 600 1257 574 1282 q 626 1185 626 1232 q 600 1110 626 1136 q 522 1085 574 1085 z "},"Ṇ":{"ha":1046,"x_min":99,"x_max":947,"o":"m 199 -12 q 124 15 150 -12 q 99 92 99 42 l 99 883 q 124 964 99 936 q 193 992 150 992 q 251 977 231 992 q 297 929 271 963 l 785 308 l 747 308 l 747 889 q 773 965 747 938 q 847 992 799 992 q 922 965 896 992 q 947 889 947 938 l 947 88 q 924 15 947 42 q 860 -12 900 -12 q 798 3 821 -12 q 749 51 775 18 l 263 672 l 299 672 l 299 92 q 274 15 299 42 q 199 -12 249 -12 m 524 -304 q 447 -278 474 -304 q 419 -206 419 -253 q 447 -132 419 -157 q 524 -107 474 -107 q 601 -132 575 -107 q 628 -206 628 -157 q 601 -278 628 -253 q 524 -304 575 -304 z "},"ǋ":{"ha":1424,"x_min":99,"x_max":1357,"o":"m 199 -12 q 124 15 150 -12 q 99 92 99 42 l 99 883 q 124 964 99 936 q 193 992 150 992 q 251 977 231 992 q 297 929 271 963 l 785 308 l 747 308 l 747 889 q 773 965 747 938 q 847 992 799 992 q 922 965 896 992 q 947 889 947 938 l 947 88 q 924 15 947 42 q 860 -12 900 -12 q 798 3 821 -12 q 749 51 775 18 l 263 672 l 299 672 l 299 92 q 274 15 299 42 q 199 -12 249 -12 m 1065 -261 q 1006 -249 1028 -262 q 975 -213 983 -235 q 970 -169 967 -192 q 989 -131 974 -147 q 1031 -111 1004 -114 q 1109 -81 1085 -107 q 1133 -3 1133 -56 l 1133 588 q 1161 666 1133 639 q 1239 693 1189 693 q 1316 666 1289 693 q 1343 588 1343 639 l 1343 17 q 1313 -135 1343 -75 q 1222 -226 1283 -194 q 1065 -261 1161 -257 m 1238 807 q 1149 834 1181 807 q 1118 911 1118 861 q 1149 990 1118 963 q 1238 1017 1181 1017 q 1326 990 1296 1017 q 1357 911 1357 963 q 1326 834 1357 861 q 1238 807 1296 807 z "},"Ṉ":{"ha":1046,"x_min":99,"x_max":947,"o":"m 199 -12 q 124 15 150 -12 q 99 92 99 42 l 99 883 q 124 964 99 936 q 193 992 150 992 q 251 977 231 992 q 297 929 271 963 l 785 308 l 747 308 l 747 889 q 773 965 747 938 q 847 992 799 992 q 922 965 896 992 q 947 889 947 938 l 947 88 q 924 15 947 42 q 860 -12 900 -12 q 798 3 821 -12 q 749 51 775 18 l 263 672 l 299 672 l 299 92 q 274 15 299 42 q 199 -12 249 -12 m 350 -236 q 289 -176 289 -236 q 305 -133 289 -149 q 350 -118 321 -118 l 697 -118 q 760 -176 760 -118 q 744 -220 760 -204 q 697 -236 728 -236 l 350 -236 z "},"Ñ":{"ha":1046,"x_min":99,"x_max":947,"o":"m 199 -12 q 124 15 150 -12 q 99 92 99 42 l 99 883 q 124 964 99 936 q 193 992 150 992 q 251 977 231 992 q 297 929 271 963 l 785 308 l 747 308 l 747 889 q 773 965 747 938 q 847 992 799 992 q 922 965 896 992 q 947 889 947 938 l 947 88 q 924 15 947 42 q 860 -12 900 -12 q 798 3 821 -12 q 749 51 775 18 l 263 672 l 299 672 l 299 92 q 274 15 299 42 q 199 -12 249 -12 m 256 1060 q 215 1076 229 1061 q 207 1119 201 1092 q 276 1244 225 1200 q 399 1288 328 1288 q 471 1275 438 1288 q 535 1246 504 1263 q 594 1217 565 1229 q 650 1204 622 1204 q 703 1219 682 1204 q 732 1257 724 1233 q 755 1289 742 1278 q 789 1297 768 1300 q 829 1281 815 1296 q 838 1238 843 1265 q 770 1113 821 1157 q 647 1069 719 1069 q 574 1082 608 1069 q 510 1111 540 1094 q 451 1140 479 1128 q 394 1153 422 1153 q 342 1138 364 1153 q 313 1100 321 1124 q 290 1069 303 1081 q 256 1060 278 1058 z "},"Ŋ":{"ha":1046,"x_min":99,"x_max":947,"o":"m 667 -261 q 608 -249 631 -262 q 578 -213 586 -235 q 574 -169 569 -192 q 593 -131 578 -147 q 635 -111 608 -114 q 718 -81 689 -106 q 747 -3 747 -57 l 747 82 l 789 0 l 263 672 l 299 672 l 299 92 q 274 15 299 42 q 199 -12 249 -12 q 124 15 150 -12 q 99 92 99 42 l 99 883 q 124 964 99 936 q 193 992 150 992 q 251 977 231 992 q 297 929 271 963 l 785 308 l 747 308 l 747 889 q 773 965 747 938 q 847 992 799 992 q 922 965 896 992 q 947 889 947 938 l 947 25 q 878 -190 947 -125 q 667 -261 810 -254 z "},"O":{"ha":1106,"x_min":69,"x_max":1038,"o":"m 553 -15 q 299 48 408 -15 q 130 225 190 111 q 69 490 69 339 q 103 698 69 606 q 201 856 138 790 q 355 958 265 922 q 553 994 444 994 q 808 932 700 994 q 977 756 917 869 q 1038 492 1038 643 q 1003 283 1038 376 q 904 124 968 190 q 751 21 840 57 q 553 -15 663 -15 m 553 168 q 692 206 635 168 q 781 317 750 244 q 813 490 813 390 q 744 727 813 643 q 553 811 676 811 q 414 774 472 811 q 325 664 356 736 q 294 490 294 592 q 363 253 294 339 q 553 168 431 168 z "},"Ó":{"ha":1106,"x_min":69,"x_max":1038,"o":"m 553 -15 q 299 48 408 -15 q 130 225 190 111 q 69 490 69 339 q 103 698 69 606 q 201 856 138 790 q 355 958 265 922 q 553 994 444 994 q 808 932 700 994 q 977 756 917 869 q 1038 492 1038 643 q 1003 283 1038 376 q 904 124 968 190 q 751 21 840 57 q 553 -15 663 -15 m 553 168 q 692 206 635 168 q 781 317 750 244 q 813 490 813 390 q 744 727 813 643 q 553 811 676 811 q 414 774 472 811 q 325 664 356 736 q 294 490 294 592 q 363 253 294 339 q 553 168 431 168 m 635 1072 q 590 1051 614 1051 q 548 1065 567 1050 q 524 1100 529 1079 q 533 1143 518 1121 l 633 1290 q 674 1323 650 1318 q 723 1319 699 1328 q 763 1291 747 1310 q 779 1249 778 1272 q 760 1204 781 1226 l 635 1072 z "},"Ŏ":{"ha":1106,"x_min":69,"x_max":1038,"o":"m 553 -15 q 299 48 408 -15 q 130 225 190 111 q 69 490 69 339 q 103 698 69 606 q 201 856 138 790 q 355 958 265 922 q 553 994 444 994 q 808 932 700 994 q 977 756 917 869 q 1038 492 1038 643 q 1003 283 1038 376 q 904 124 968 190 q 751 21 840 57 q 553 -15 663 -15 m 553 168 q 692 206 635 168 q 781 317 750 244 q 813 490 813 390 q 744 727 813 643 q 553 811 676 811 q 414 774 472 811 q 325 664 356 736 q 294 490 294 592 q 363 253 294 339 q 553 168 431 168 m 551 1056 q 389 1102 457 1056 q 297 1232 321 1149 q 303 1285 288 1264 q 342 1308 318 1306 q 380 1303 365 1311 q 403 1284 394 1296 q 417 1261 411 1272 q 469 1197 432 1217 q 551 1176 507 1176 q 633 1197 596 1176 q 686 1261 671 1217 q 700 1284 692 1272 q 723 1303 708 1296 q 761 1308 738 1311 q 800 1285 785 1306 q 806 1232 815 1264 q 715 1102 783 1149 q 551 1056 646 1056 z "},"Ô":{"ha":1106,"x_min":69,"x_max":1038,"o":"m 553 -15 q 299 48 408 -15 q 130 225 190 111 q 69 490 69 339 q 103 698 69 606 q 201 856 138 790 q 355 958 265 922 q 553 994 444 994 q 808 932 700 994 q 977 756 917 869 q 1038 492 1038 643 q 1003 283 1038 376 q 904 124 968 190 q 751 21 840 57 q 553 -15 663 -15 m 553 168 q 692 206 635 168 q 781 317 750 244 q 813 490 813 390 q 744 727 813 643 q 553 811 676 811 q 414 774 472 811 q 325 664 356 736 q 294 490 294 592 q 363 253 294 339 q 553 168 431 168 m 444 1074 q 401 1050 425 1051 q 358 1061 376 1049 q 333 1094 339 1074 q 343 1136 326 1114 l 432 1260 q 485 1309 456 1293 q 551 1325 515 1325 q 619 1309 589 1325 q 672 1260 649 1293 l 760 1136 q 771 1094 776 1114 q 747 1061 765 1074 q 703 1050 728 1049 q 660 1074 679 1051 l 551 1194 l 444 1074 z "},"Ố":{"ha":1106,"x_min":69,"x_max":1038,"o":"m 553 -15 q 299 48 408 -15 q 130 225 190 111 q 69 490 69 339 q 103 698 69 606 q 201 856 138 790 q 355 958 265 922 q 553 994 444 994 q 808 932 700 994 q 977 756 917 869 q 1038 492 1038 643 q 1003 283 1038 376 q 904 124 968 190 q 751 21 840 57 q 553 -15 663 -15 m 553 168 q 692 206 635 168 q 781 317 750 244 q 813 490 813 390 q 744 727 813 643 q 553 811 676 811 q 414 774 472 811 q 325 664 356 736 q 294 490 294 592 q 363 253 294 339 q 553 168 431 168 m 444 1069 q 403 1046 425 1049 q 364 1054 381 1043 q 342 1085 347 1065 q 354 1129 338 1106 l 433 1249 q 487 1299 458 1285 q 551 1313 515 1313 q 597 1307 576 1313 q 636 1287 618 1301 q 669 1249 654 1272 l 749 1129 q 761 1085 765 1106 q 741 1054 757 1065 q 702 1046 725 1043 q 658 1069 679 1049 l 551 1183 l 444 1069 m 821 1203 q 786 1181 806 1183 q 751 1188 767 1178 q 731 1215 736 1197 q 739 1258 726 1233 l 819 1403 q 853 1435 833 1428 q 894 1436 874 1442 q 929 1415 915 1431 q 944 1378 943 1400 q 928 1335 946 1357 l 821 1203 z "},"Ộ":{"ha":1106,"x_min":69,"x_max":1038,"o":"m 553 -15 q 299 48 408 -15 q 130 225 190 111 q 69 490 69 339 q 103 698 69 606 q 201 856 138 790 q 355 958 265 922 q 553 994 444 994 q 808 932 700 994 q 977 756 917 869 q 1038 492 1038 643 q 1003 283 1038 376 q 904 124 968 190 q 751 21 840 57 q 553 -15 663 -15 m 553 168 q 692 206 635 168 q 781 317 750 244 q 813 490 813 390 q 744 727 813 643 q 553 811 676 811 q 414 774 472 811 q 325 664 356 736 q 294 490 294 592 q 363 253 294 339 q 553 168 431 168 m 551 -304 q 474 -278 501 -304 q 447 -206 447 -253 q 474 -132 447 -157 q 551 -107 501 -107 q 629 -132 603 -107 q 656 -206 656 -157 q 629 -278 656 -253 q 551 -304 603 -304 m 444 1074 q 401 1050 425 1051 q 358 1061 376 1049 q 333 1094 339 1074 q 343 1136 326 1114 l 432 1260 q 485 1309 456 1293 q 551 1325 515 1325 q 619 1309 589 1325 q 672 1260 649 1293 l 760 1136 q 771 1094 776 1114 q 747 1061 765 1074 q 703 1050 728 1049 q 660 1074 679 1051 l 551 1194 l 444 1074 z "},"Ồ":{"ha":1106,"x_min":69,"x_max":1038,"o":"m 553 -15 q 299 48 408 -15 q 130 225 190 111 q 69 490 69 339 q 103 698 69 606 q 201 856 138 790 q 355 958 265 922 q 553 994 444 994 q 808 932 700 994 q 977 756 917 869 q 1038 492 1038 643 q 1003 283 1038 376 q 904 124 968 190 q 751 21 840 57 q 553 -15 663 -15 m 553 168 q 692 206 635 168 q 781 317 750 244 q 813 490 813 390 q 744 727 813 643 q 553 811 676 811 q 414 774 472 811 q 325 664 356 736 q 294 490 294 592 q 363 253 294 339 q 553 168 431 168 m 444 1069 q 403 1046 425 1049 q 364 1054 381 1043 q 342 1085 347 1065 q 354 1129 338 1106 l 433 1249 q 487 1299 458 1285 q 551 1313 515 1313 q 597 1307 576 1313 q 636 1287 618 1301 q 669 1249 654 1272 l 749 1129 q 761 1085 765 1106 q 741 1054 757 1065 q 702 1046 725 1043 q 658 1069 679 1049 l 551 1183 l 444 1069 m 778 1203 l 671 1335 q 654 1378 653 1357 q 669 1415 656 1400 q 703 1436 683 1431 q 744 1435 724 1442 q 778 1403 764 1428 l 858 1258 q 866 1215 871 1233 q 846 1188 861 1197 q 812 1181 831 1178 q 778 1203 793 1183 z "},"Ổ":{"ha":1106,"x_min":69,"x_max":1038,"o":"m 553 -15 q 299 48 408 -15 q 130 225 190 111 q 69 490 69 339 q 103 698 69 606 q 201 856 138 790 q 355 958 265 922 q 553 994 444 994 q 808 932 700 994 q 977 756 917 869 q 1038 492 1038 643 q 1003 283 1038 376 q 904 124 968 190 q 751 21 840 57 q 553 -15 663 -15 m 553 168 q 692 206 635 168 q 781 317 750 244 q 813 490 813 390 q 744 727 813 643 q 553 811 676 811 q 414 774 472 811 q 325 664 356 736 q 294 490 294 592 q 363 253 294 339 q 553 168 431 168 m 444 1069 q 403 1046 425 1049 q 364 1054 381 1043 q 342 1085 347 1065 q 354 1129 338 1106 l 433 1249 q 487 1299 458 1285 q 551 1313 515 1313 q 597 1307 576 1313 q 636 1287 618 1301 q 669 1249 654 1272 l 749 1129 q 761 1085 765 1106 q 741 1054 757 1065 q 702 1046 725 1043 q 658 1069 679 1049 l 551 1183 l 444 1069 m 799 1204 q 758 1199 779 1193 q 730 1219 738 1204 q 738 1251 722 1235 q 765 1283 754 1268 q 776 1313 776 1297 q 765 1335 776 1328 q 732 1342 754 1342 q 713 1341 724 1342 q 692 1338 703 1340 q 657 1338 671 1332 q 636 1361 643 1344 q 638 1394 631 1379 q 668 1414 646 1408 q 720 1424 693 1421 q 778 1426 747 1426 q 874 1407 840 1426 q 908 1344 908 1388 q 891 1290 908 1317 q 849 1241 874 1263 q 799 1204 825 1219 z "},"Ỗ":{"ha":1106,"x_min":69,"x_max":1038,"o":"m 553 -15 q 299 48 408 -15 q 130 225 190 111 q 69 490 69 339 q 103 698 69 606 q 201 856 138 790 q 355 958 265 922 q 553 994 444 994 q 808 932 700 994 q 977 756 917 869 q 1038 492 1038 643 q 1003 283 1038 376 q 904 124 968 190 q 751 21 840 57 q 553 -15 663 -15 m 553 168 q 692 206 635 168 q 781 317 750 244 q 813 490 813 390 q 744 727 813 643 q 553 811 676 811 q 414 774 472 811 q 325 664 356 736 q 294 490 294 592 q 363 253 294 339 q 553 168 431 168 m 429 1058 q 377 1047 401 1039 q 344 1076 353 1054 q 354 1119 336 1097 l 424 1201 q 482 1246 450 1233 q 551 1258 514 1258 q 600 1253 578 1258 q 642 1235 622 1247 q 679 1201 663 1222 l 749 1119 q 760 1086 763 1103 q 745 1057 758 1069 q 714 1044 732 1044 q 674 1058 696 1043 l 551 1151 l 429 1058 m 350 1279 q 315 1297 328 1281 q 310 1338 303 1313 q 365 1415 326 1388 q 458 1442 404 1442 q 527 1428 496 1442 q 586 1401 558 1415 q 639 1388 614 1388 q 673 1394 657 1388 q 696 1414 689 1400 q 721 1438 708 1429 q 753 1446 733 1447 q 789 1430 776 1444 q 793 1389 801 1415 q 739 1310 778 1338 q 646 1283 700 1283 q 576 1297 608 1283 q 517 1324 544 1310 q 465 1338 490 1338 q 431 1331 446 1338 q 408 1311 415 1325 q 384 1288 397 1297 q 350 1279 371 1278 z "},"Ȍ":{"ha":1106,"x_min":69,"x_max":1038,"o":"m 553 -15 q 299 48 408 -15 q 130 225 190 111 q 69 490 69 339 q 103 698 69 606 q 201 856 138 790 q 355 958 265 922 q 553 994 444 994 q 808 932 700 994 q 977 756 917 869 q 1038 492 1038 643 q 1003 283 1038 376 q 904 124 968 190 q 751 21 840 57 q 553 -15 663 -15 m 553 168 q 692 206 635 168 q 781 317 750 244 q 813 490 813 390 q 744 727 813 643 q 553 811 676 811 q 414 774 472 811 q 325 664 356 736 q 294 490 294 592 q 363 253 294 339 q 553 168 431 168 m 592 1076 l 490 1214 q 474 1262 471 1239 q 492 1301 476 1285 q 531 1322 508 1317 q 577 1319 554 1328 q 611 1285 600 1311 l 690 1126 q 694 1085 701 1104 q 668 1057 686 1067 q 629 1051 650 1047 q 592 1076 608 1056 m 376 1071 l 260 1214 q 241 1261 240 1239 q 257 1300 242 1283 q 294 1322 272 1317 q 339 1320 317 1328 q 375 1286 361 1313 l 461 1131 q 468 1090 474 1108 q 447 1060 463 1071 q 412 1050 432 1049 q 376 1071 392 1051 z "},"Ö":{"ha":1106,"x_min":69,"x_max":1038,"o":"m 553 -15 q 299 48 408 -15 q 130 225 190 111 q 69 490 69 339 q 103 698 69 606 q 201 856 138 790 q 355 958 265 922 q 553 994 444 994 q 808 932 700 994 q 977 756 917 869 q 1038 492 1038 643 q 1003 283 1038 376 q 904 124 968 190 q 751 21 840 57 q 553 -15 663 -15 m 553 168 q 692 206 635 168 q 781 317 750 244 q 813 490 813 390 q 744 727 813 643 q 553 811 676 811 q 414 774 472 811 q 325 664 356 736 q 294 490 294 592 q 363 253 294 339 q 553 168 431 168 m 689 1078 q 616 1103 642 1078 q 590 1176 590 1129 q 616 1249 590 1224 q 689 1274 642 1274 q 761 1249 736 1274 q 786 1176 786 1224 q 761 1103 786 1129 q 689 1078 736 1078 m 415 1078 q 342 1103 368 1078 q 317 1176 317 1129 q 342 1249 317 1224 q 415 1274 368 1274 q 488 1249 463 1274 q 513 1176 513 1224 q 488 1103 513 1129 q 415 1078 463 1078 z "},"Ȫ":{"ha":1106,"x_min":69,"x_max":1038,"o":"m 553 -15 q 299 48 408 -15 q 130 225 190 111 q 69 490 69 339 q 103 698 69 606 q 201 856 138 790 q 355 958 265 922 q 553 994 444 994 q 808 932 700 994 q 977 756 917 869 q 1038 492 1038 643 q 1003 283 1038 376 q 904 124 968 190 q 751 21 840 57 q 553 -15 663 -15 m 553 168 q 692 206 635 168 q 781 317 750 244 q 813 490 813 390 q 744 727 813 643 q 553 811 676 811 q 414 774 472 811 q 325 664 356 736 q 294 490 294 592 q 363 253 294 339 q 553 168 431 168 m 385 1282 q 335 1298 353 1282 q 318 1342 318 1314 q 335 1385 318 1369 q 385 1400 353 1400 l 718 1400 q 767 1385 750 1400 q 785 1342 785 1369 q 767 1298 785 1314 q 718 1282 750 1282 l 385 1282 m 415 1079 q 342 1099 368 1079 q 317 1153 317 1118 q 342 1208 317 1189 q 415 1226 368 1226 q 488 1208 463 1226 q 513 1153 513 1189 q 488 1099 513 1118 q 415 1079 463 1079 m 689 1079 q 616 1099 642 1079 q 590 1153 590 1118 q 616 1208 590 1189 q 689 1226 642 1226 q 761 1208 736 1226 q 786 1153 786 1189 q 761 1099 786 1118 q 689 1079 736 1079 z "},"Ȱ":{"ha":1106,"x_min":69,"x_max":1038,"o":"m 553 -15 q 299 48 408 -15 q 130 225 190 111 q 69 490 69 339 q 103 698 69 606 q 201 856 138 790 q 355 958 265 922 q 553 994 444 994 q 808 932 700 994 q 977 756 917 869 q 1038 492 1038 643 q 1003 283 1038 376 q 904 124 968 190 q 751 21 840 57 q 553 -15 663 -15 m 553 168 q 692 206 635 168 q 781 317 750 244 q 813 490 813 390 q 744 727 813 643 q 553 811 676 811 q 414 774 472 811 q 325 664 356 736 q 294 490 294 592 q 363 253 294 339 q 553 168 431 168 m 385 1282 q 335 1298 353 1282 q 318 1342 318 1314 q 335 1385 318 1369 q 385 1400 353 1400 l 718 1400 q 767 1385 750 1400 q 785 1342 785 1369 q 767 1298 785 1314 q 718 1282 750 1282 l 385 1282 m 553 1079 q 481 1099 507 1079 q 454 1153 454 1118 q 481 1208 454 1189 q 553 1226 507 1226 q 626 1208 600 1226 q 651 1153 651 1189 q 626 1099 651 1118 q 553 1079 600 1079 z "},"Ọ":{"ha":1106,"x_min":69,"x_max":1038,"o":"m 553 -15 q 299 48 408 -15 q 130 225 190 111 q 69 490 69 339 q 103 698 69 606 q 201 856 138 790 q 355 958 265 922 q 553 994 444 994 q 808 932 700 994 q 977 756 917 869 q 1038 492 1038 643 q 1003 283 1038 376 q 904 124 968 190 q 751 21 840 57 q 553 -15 663 -15 m 553 168 q 692 206 635 168 q 781 317 750 244 q 813 490 813 390 q 744 727 813 643 q 553 811 676 811 q 414 774 472 811 q 325 664 356 736 q 294 490 294 592 q 363 253 294 339 q 553 168 431 168 m 551 -304 q 474 -278 501 -304 q 447 -206 447 -253 q 474 -132 447 -157 q 551 -107 501 -107 q 629 -132 603 -107 q 656 -206 656 -157 q 629 -278 656 -253 q 551 -304 603 -304 z "},"Ò":{"ha":1106,"x_min":69,"x_max":1038,"o":"m 553 -15 q 299 48 408 -15 q 130 225 190 111 q 69 490 69 339 q 103 698 69 606 q 201 856 138 790 q 355 958 265 922 q 553 994 444 994 q 808 932 700 994 q 977 756 917 869 q 1038 492 1038 643 q 1003 283 1038 376 q 904 124 968 190 q 751 21 840 57 q 553 -15 663 -15 m 553 168 q 692 206 635 168 q 781 317 750 244 q 813 490 813 390 q 744 727 813 643 q 553 811 676 811 q 414 774 472 811 q 325 664 356 736 q 294 490 294 592 q 363 253 294 339 q 553 168 431 168 m 469 1072 l 344 1204 q 325 1249 324 1226 q 342 1291 326 1272 q 381 1319 357 1310 q 429 1323 404 1328 q 471 1290 454 1318 l 571 1143 q 579 1100 585 1121 q 555 1065 574 1079 q 513 1051 536 1050 q 469 1072 489 1051 z "},"Ỏ":{"ha":1106,"x_min":69,"x_max":1038,"o":"m 553 -15 q 299 48 408 -15 q 130 225 190 111 q 69 490 69 339 q 103 698 69 606 q 201 856 138 790 q 355 958 265 922 q 553 994 444 994 q 808 932 700 994 q 977 756 917 869 q 1038 492 1038 643 q 1003 283 1038 376 q 904 124 968 190 q 751 21 840 57 q 553 -15 663 -15 m 553 168 q 692 206 635 168 q 781 317 750 244 q 813 490 813 390 q 744 727 813 643 q 553 811 676 811 q 414 774 472 811 q 325 664 356 736 q 294 490 294 592 q 363 253 294 339 q 553 168 431 168 m 551 1050 q 506 1060 522 1050 q 490 1089 490 1069 q 501 1126 490 1113 q 526 1151 511 1140 q 551 1173 540 1163 q 563 1196 563 1183 q 549 1215 563 1208 q 513 1221 536 1221 q 491 1219 503 1221 q 468 1217 479 1218 q 428 1216 444 1211 q 404 1240 413 1221 q 404 1276 397 1260 q 436 1300 411 1292 q 494 1313 461 1308 q 565 1317 528 1317 q 677 1293 636 1317 q 718 1228 718 1269 q 702 1178 718 1196 q 665 1147 686 1160 q 629 1119 644 1133 q 614 1081 614 1104 q 598 1058 614 1067 q 551 1050 582 1050 z "},"Ơ":{"ha":1106,"x_min":69,"x_max":1038,"o":"m 553 -15 q 299 48 408 -15 q 130 225 190 111 q 69 490 69 339 q 103 698 69 606 q 201 856 138 790 q 355 958 265 922 q 553 994 444 994 q 808 932 700 994 q 977 756 917 869 q 1038 492 1038 643 q 1003 283 1038 376 q 904 124 968 190 q 751 21 840 57 q 553 -15 663 -15 m 553 168 q 692 206 635 168 q 781 317 750 244 q 813 490 813 390 q 744 727 813 643 q 553 811 676 811 q 414 774 472 811 q 325 664 356 736 q 294 490 294 592 q 363 253 294 339 q 553 168 431 168 m 690 879 l 635 985 q 684 981 663 983 q 726 979 706 979 q 796 992 769 979 q 835 1030 822 1004 q 849 1092 849 1056 q 872 1147 849 1128 q 940 1165 896 1165 q 1007 1144 983 1165 q 1031 1085 1031 1122 q 1006 983 1031 1031 q 937 908 981 936 q 836 879 893 879 l 690 879 z "},"Ớ":{"ha":1106,"x_min":69,"x_max":1038,"o":"m 553 -15 q 299 48 408 -15 q 130 225 190 111 q 69 490 69 339 q 103 698 69 606 q 201 856 138 790 q 355 958 265 922 q 553 994 444 994 q 808 932 700 994 q 977 756 917 869 q 1038 492 1038 643 q 1003 283 1038 376 q 904 124 968 190 q 751 21 840 57 q 553 -15 663 -15 m 553 168 q 692 206 635 168 q 781 317 750 244 q 813 490 813 390 q 744 727 813 643 q 553 811 676 811 q 414 774 472 811 q 325 664 356 736 q 294 490 294 592 q 363 253 294 339 q 553 168 431 168 m 690 879 l 635 985 q 684 981 663 983 q 726 979 706 979 q 796 992 769 979 q 835 1030 822 1004 q 849 1092 849 1056 q 872 1147 849 1128 q 940 1165 896 1165 q 1007 1144 983 1165 q 1031 1085 1031 1122 q 1006 983 1031 1031 q 937 908 981 936 q 836 879 893 879 l 690 879 m 629 1072 q 585 1051 608 1051 q 542 1065 561 1050 q 518 1100 524 1079 q 528 1143 513 1121 l 628 1290 q 669 1323 644 1318 q 717 1319 693 1328 q 757 1291 742 1310 q 774 1249 772 1272 q 754 1204 775 1226 l 629 1072 z "},"Ợ":{"ha":1106,"x_min":69,"x_max":1038,"o":"m 553 -15 q 299 48 408 -15 q 130 225 190 111 q 69 490 69 339 q 103 698 69 606 q 201 856 138 790 q 355 958 265 922 q 553 994 444 994 q 808 932 700 994 q 977 756 917 869 q 1038 492 1038 643 q 1003 283 1038 376 q 904 124 968 190 q 751 21 840 57 q 553 -15 663 -15 m 553 168 q 692 206 635 168 q 781 317 750 244 q 813 490 813 390 q 744 727 813 643 q 553 811 676 811 q 414 774 472 811 q 325 664 356 736 q 294 490 294 592 q 363 253 294 339 q 553 168 431 168 m 690 879 l 635 985 q 684 981 663 983 q 726 979 706 979 q 796 992 769 979 q 835 1030 822 1004 q 849 1092 849 1056 q 872 1147 849 1128 q 940 1165 896 1165 q 1007 1144 983 1165 q 1031 1085 1031 1122 q 1006 983 1031 1031 q 937 908 981 936 q 836 879 893 879 l 690 879 m 547 -304 q 470 -278 497 -304 q 443 -206 443 -253 q 470 -132 443 -157 q 547 -107 497 -107 q 625 -132 599 -107 q 651 -206 651 -157 q 625 -278 651 -253 q 547 -304 599 -304 z "},"Ờ":{"ha":1106,"x_min":69,"x_max":1038,"o":"m 553 -15 q 299 48 408 -15 q 130 225 190 111 q 69 490 69 339 q 103 698 69 606 q 201 856 138 790 q 355 958 265 922 q 553 994 444 994 q 808 932 700 994 q 977 756 917 869 q 1038 492 1038 643 q 1003 283 1038 376 q 904 124 968 190 q 751 21 840 57 q 553 -15 663 -15 m 553 168 q 692 206 635 168 q 781 317 750 244 q 813 490 813 390 q 744 727 813 643 q 553 811 676 811 q 414 774 472 811 q 325 664 356 736 q 294 490 294 592 q 363 253 294 339 q 553 168 431 168 m 690 879 l 635 985 q 684 981 663 983 q 726 979 706 979 q 796 992 769 979 q 835 1030 822 1004 q 849 1092 849 1056 q 872 1147 849 1128 q 940 1165 896 1165 q 1007 1144 983 1165 q 1031 1085 1031 1122 q 1006 983 1031 1031 q 937 908 981 936 q 836 879 893 879 l 690 879 m 464 1072 l 339 1204 q 319 1249 318 1226 q 336 1291 321 1272 q 375 1319 351 1310 q 424 1323 399 1328 q 465 1290 449 1318 l 565 1143 q 574 1100 579 1121 q 549 1065 568 1079 q 507 1051 531 1050 q 464 1072 483 1051 z "},"Ở":{"ha":1106,"x_min":69,"x_max":1038,"o":"m 553 -15 q 299 48 408 -15 q 130 225 190 111 q 69 490 69 339 q 103 698 69 606 q 201 856 138 790 q 355 958 265 922 q 553 994 444 994 q 808 932 700 994 q 977 756 917 869 q 1038 492 1038 643 q 1003 283 1038 376 q 904 124 968 190 q 751 21 840 57 q 553 -15 663 -15 m 553 168 q 692 206 635 168 q 781 317 750 244 q 813 490 813 390 q 744 727 813 643 q 553 811 676 811 q 414 774 472 811 q 325 664 356 736 q 294 490 294 592 q 363 253 294 339 q 553 168 431 168 m 690 879 l 635 985 q 684 981 663 983 q 726 979 706 979 q 796 992 769 979 q 835 1030 822 1004 q 849 1092 849 1056 q 872 1147 849 1128 q 940 1165 896 1165 q 1007 1144 983 1165 q 1031 1085 1031 1122 q 1006 983 1031 1031 q 937 908 981 936 q 836 879 893 879 l 690 879 m 546 1050 q 501 1060 517 1050 q 485 1089 485 1069 q 495 1126 485 1113 q 520 1151 506 1140 q 546 1173 535 1163 q 557 1196 557 1183 q 544 1215 557 1208 q 507 1221 531 1221 q 485 1219 497 1221 q 463 1217 474 1218 q 423 1216 439 1211 q 399 1240 407 1221 q 399 1276 392 1260 q 431 1300 406 1292 q 489 1313 456 1308 q 560 1317 522 1317 q 672 1293 631 1317 q 713 1228 713 1269 q 697 1178 713 1196 q 660 1147 681 1160 q 624 1119 639 1133 q 608 1081 608 1104 q 592 1058 608 1067 q 546 1050 576 1050 z "},"Ỡ":{"ha":1106,"x_min":69,"x_max":1038,"o":"m 553 -15 q 299 48 408 -15 q 130 225 190 111 q 69 490 69 339 q 103 698 69 606 q 201 856 138 790 q 355 958 265 922 q 553 994 444 994 q 808 932 700 994 q 977 756 917 869 q 1038 492 1038 643 q 1003 283 1038 376 q 904 124 968 190 q 751 21 840 57 q 553 -15 663 -15 m 553 168 q 692 206 635 168 q 781 317 750 244 q 813 490 813 390 q 744 727 813 643 q 553 811 676 811 q 414 774 472 811 q 325 664 356 736 q 294 490 294 592 q 363 253 294 339 q 553 168 431 168 m 690 879 l 635 985 q 684 981 663 983 q 726 979 706 979 q 796 992 769 979 q 835 1030 822 1004 q 849 1092 849 1056 q 872 1147 849 1128 q 940 1165 896 1165 q 1007 1144 983 1165 q 1031 1085 1031 1122 q 1006 983 1031 1031 q 937 908 981 936 q 836 879 893 879 l 690 879 m 289 1060 q 252 1077 265 1061 q 244 1121 239 1093 q 306 1243 258 1199 q 421 1288 354 1288 q 485 1275 457 1288 q 536 1246 513 1263 q 583 1217 560 1229 q 633 1204 607 1204 q 678 1219 660 1204 q 707 1256 697 1233 q 731 1288 718 1276 q 768 1297 744 1300 q 804 1280 792 1296 q 813 1236 817 1264 q 751 1114 799 1158 q 635 1069 703 1069 q 572 1082 600 1069 q 520 1111 544 1094 q 472 1140 496 1128 q 422 1153 449 1153 q 377 1138 396 1153 q 350 1101 358 1124 q 326 1070 339 1082 q 289 1060 313 1058 z "},"Ő":{"ha":1106,"x_min":69,"x_max":1038,"o":"m 553 -15 q 299 48 408 -15 q 130 225 190 111 q 69 490 69 339 q 103 698 69 606 q 201 856 138 790 q 355 958 265 922 q 553 994 444 994 q 808 932 700 994 q 977 756 917 869 q 1038 492 1038 643 q 1003 283 1038 376 q 904 124 968 190 q 751 21 840 57 q 553 -15 663 -15 m 553 168 q 692 206 635 168 q 781 317 750 244 q 813 490 813 390 q 744 727 813 643 q 553 811 676 811 q 414 774 472 811 q 325 664 356 736 q 294 490 294 592 q 363 253 294 339 q 553 168 431 168 m 511 1076 q 474 1051 494 1056 q 435 1057 453 1047 q 410 1085 418 1067 q 414 1126 403 1104 l 492 1285 q 526 1319 503 1311 q 572 1322 549 1328 q 610 1301 594 1317 q 629 1262 626 1285 q 613 1214 632 1239 l 511 1076 m 726 1071 q 691 1050 711 1051 q 655 1060 671 1049 q 634 1090 639 1071 q 642 1131 629 1108 l 728 1286 q 765 1320 743 1313 q 810 1322 788 1328 q 847 1300 832 1317 q 863 1261 861 1283 q 844 1214 864 1239 l 726 1071 z "},"Ȏ":{"ha":1106,"x_min":69,"x_max":1038,"o":"m 553 -15 q 299 48 408 -15 q 130 225 190 111 q 69 490 69 339 q 103 698 69 606 q 201 856 138 790 q 355 958 265 922 q 553 994 444 994 q 808 932 700 994 q 977 756 917 869 q 1038 492 1038 643 q 1003 283 1038 376 q 904 124 968 190 q 751 21 840 57 q 553 -15 663 -15 m 553 168 q 692 206 635 168 q 781 317 750 244 q 813 490 813 390 q 744 727 813 643 q 553 811 676 811 q 414 774 472 811 q 325 664 356 736 q 294 490 294 592 q 363 253 294 339 q 553 168 431 168 m 342 1056 q 302 1081 317 1060 q 297 1132 288 1101 q 390 1263 321 1217 q 551 1308 458 1308 q 713 1263 643 1308 q 804 1132 782 1217 q 800 1081 814 1101 q 760 1056 786 1060 q 722 1061 736 1054 q 700 1080 708 1068 q 686 1103 692 1092 q 633 1168 671 1149 q 551 1188 596 1188 q 471 1168 508 1188 q 417 1103 433 1149 q 403 1080 411 1092 q 380 1061 394 1068 q 342 1056 365 1054 z "},"Ō":{"ha":1106,"x_min":69,"x_max":1038,"o":"m 553 -15 q 299 48 408 -15 q 130 225 190 111 q 69 490 69 339 q 103 698 69 606 q 201 856 138 790 q 355 958 265 922 q 553 994 444 994 q 808 932 700 994 q 977 756 917 869 q 1038 492 1038 643 q 1003 283 1038 376 q 904 124 968 190 q 751 21 840 57 q 553 -15 663 -15 m 553 168 q 692 206 635 168 q 781 317 750 244 q 813 490 813 390 q 744 727 813 643 q 553 811 676 811 q 414 774 472 811 q 325 664 356 736 q 294 490 294 592 q 363 253 294 339 q 553 168 431 168 m 357 1113 q 296 1172 296 1113 q 312 1215 296 1200 q 357 1231 328 1231 l 746 1231 q 808 1172 808 1231 q 792 1128 808 1144 q 746 1113 776 1113 l 357 1113 z "},"Ṓ":{"ha":1106,"x_min":69,"x_max":1038,"o":"m 553 -15 q 299 48 408 -15 q 130 225 190 111 q 69 490 69 339 q 103 698 69 606 q 201 856 138 790 q 355 958 265 922 q 553 994 444 994 q 808 932 700 994 q 977 756 917 869 q 1038 492 1038 643 q 1003 283 1038 376 q 904 124 968 190 q 751 21 840 57 q 553 -15 663 -15 m 553 168 q 692 206 635 168 q 781 317 750 244 q 813 490 813 390 q 744 727 813 643 q 553 811 676 811 q 414 774 472 811 q 325 664 356 736 q 294 490 294 592 q 363 253 294 339 q 553 168 431 168 m 385 1082 q 335 1097 353 1082 q 318 1140 318 1113 q 335 1184 318 1168 q 385 1200 353 1200 l 718 1200 q 767 1184 750 1200 q 785 1140 785 1168 q 767 1097 785 1113 q 718 1082 750 1082 l 385 1082 m 615 1251 q 576 1229 597 1232 q 537 1238 554 1226 q 513 1268 519 1249 q 517 1310 506 1288 l 574 1417 q 610 1453 588 1444 q 658 1455 633 1461 q 699 1432 682 1449 q 717 1392 715 1415 q 699 1346 719 1369 l 615 1251 z "},"Ṑ":{"ha":1106,"x_min":69,"x_max":1038,"o":"m 553 -15 q 299 48 408 -15 q 130 225 190 111 q 69 490 69 339 q 103 698 69 606 q 201 856 138 790 q 355 958 265 922 q 553 994 444 994 q 808 932 700 994 q 977 756 917 869 q 1038 492 1038 643 q 1003 283 1038 376 q 904 124 968 190 q 751 21 840 57 q 553 -15 663 -15 m 553 168 q 692 206 635 168 q 781 317 750 244 q 813 490 813 390 q 744 727 813 643 q 553 811 676 811 q 414 774 472 811 q 325 664 356 736 q 294 490 294 592 q 363 253 294 339 q 553 168 431 168 m 488 1251 l 404 1346 q 385 1392 383 1369 q 404 1432 388 1415 q 445 1455 421 1449 q 492 1453 469 1461 q 529 1417 515 1444 l 586 1310 q 590 1268 597 1288 q 566 1238 583 1249 q 527 1229 549 1226 q 488 1251 506 1232 m 385 1082 q 335 1097 353 1082 q 318 1140 318 1113 q 335 1184 318 1168 q 385 1200 353 1200 l 718 1200 q 767 1184 750 1200 q 785 1140 785 1168 q 767 1097 785 1113 q 718 1082 750 1082 l 385 1082 z "},"Ǫ":{"ha":1106,"x_min":69,"x_max":1038,"o":"m 553 -15 q 299 48 408 -15 q 130 225 190 111 q 69 490 69 339 q 103 698 69 606 q 201 856 138 790 q 355 958 265 922 q 553 994 444 994 q 808 932 700 994 q 977 756 917 869 q 1038 492 1038 643 q 1003 283 1038 376 q 904 124 968 190 q 751 21 840 57 q 553 -15 663 -15 m 553 168 q 692 206 635 168 q 781 317 750 244 q 813 490 813 390 q 744 727 813 643 q 553 811 676 811 q 414 774 472 811 q 325 664 356 736 q 294 490 294 592 q 363 253 294 339 q 553 168 431 168 m 606 -274 q 478 -233 524 -274 q 432 -124 432 -192 q 472 -12 432 -62 q 579 63 513 38 l 638 0 q 596 -25 614 -10 q 568 -60 578 -40 q 558 -100 558 -79 q 581 -149 558 -132 q 635 -167 603 -167 q 654 -165 644 -167 q 674 -161 664 -164 q 719 -167 703 -156 q 738 -197 735 -178 q 731 -235 740 -217 q 696 -261 721 -253 q 649 -272 672 -269 q 606 -274 625 -274 z "},"Ø":{"ha":1106,"x_min":69,"x_max":1038,"o":"m 553 -15 q 299 48 408 -15 q 130 225 190 111 q 69 490 69 339 q 103 698 69 606 q 201 856 138 790 q 355 958 265 922 q 553 994 444 994 q 808 932 700 994 q 977 756 917 869 q 1038 492 1038 643 q 1003 283 1038 376 q 904 124 968 190 q 751 21 840 57 q 553 -15 663 -15 m 553 168 q 692 206 635 168 q 781 317 750 244 q 813 490 813 390 q 744 727 813 643 q 553 811 676 811 q 414 774 472 811 q 325 664 356 736 q 294 490 294 592 q 363 253 294 339 q 553 168 431 168 m 336 -43 q 296 -78 319 -69 q 248 -81 272 -87 q 206 -56 224 -74 q 185 -12 189 -37 q 199 43 181 13 l 264 151 l 328 246 l 667 828 l 704 910 l 769 1022 q 810 1058 786 1049 q 858 1060 833 1067 q 899 1035 882 1053 q 921 992 917 1018 q 907 938 925 967 l 842 828 l 776 733 l 439 153 l 401 71 l 336 -43 z "},"Ǿ":{"ha":1106,"x_min":69,"x_max":1038,"o":"m 553 -15 q 299 48 408 -15 q 130 225 190 111 q 69 490 69 339 q 103 698 69 606 q 201 856 138 790 q 355 958 265 922 q 553 994 444 994 q 808 932 700 994 q 977 756 917 869 q 1038 492 1038 643 q 1003 283 1038 376 q 904 124 968 190 q 751 21 840 57 q 553 -15 663 -15 m 553 168 q 692 206 635 168 q 781 317 750 244 q 813 490 813 390 q 744 727 813 643 q 553 811 676 811 q 414 774 472 811 q 325 664 356 736 q 294 490 294 592 q 363 253 294 339 q 553 168 431 168 m 336 -43 q 296 -78 319 -69 q 248 -81 272 -87 q 206 -56 224 -74 q 185 -12 189 -37 q 199 43 181 13 l 264 151 l 328 246 l 667 828 l 704 910 l 769 1022 q 810 1058 786 1049 q 858 1060 833 1067 q 899 1035 882 1053 q 921 992 917 1018 q 907 938 925 967 l 842 828 l 776 733 l 439 153 l 401 71 l 336 -43 m 635 1072 q 590 1051 614 1051 q 548 1065 567 1050 q 524 1100 529 1079 q 533 1143 518 1121 l 633 1290 q 674 1323 650 1318 q 723 1319 699 1328 q 763 1291 747 1310 q 779 1249 778 1272 q 760 1204 781 1226 l 635 1072 z "},"Õ":{"ha":1106,"x_min":69,"x_max":1038,"o":"m 553 -15 q 299 48 408 -15 q 130 225 190 111 q 69 490 69 339 q 103 698 69 606 q 201 856 138 790 q 355 958 265 922 q 553 994 444 994 q 808 932 700 994 q 977 756 917 869 q 1038 492 1038 643 q 1003 283 1038 376 q 904 124 968 190 q 751 21 840 57 q 553 -15 663 -15 m 553 168 q 692 206 635 168 q 781 317 750 244 q 813 490 813 390 q 744 727 813 643 q 553 811 676 811 q 414 774 472 811 q 325 664 356 736 q 294 490 294 592 q 363 253 294 339 q 553 168 431 168 m 285 1060 q 244 1076 258 1061 q 236 1119 231 1092 q 306 1244 254 1200 q 428 1288 357 1288 q 500 1275 467 1288 q 564 1246 533 1263 q 623 1217 594 1229 q 679 1204 651 1204 q 732 1219 711 1204 q 761 1257 753 1233 q 784 1289 771 1278 q 818 1297 797 1300 q 858 1281 844 1296 q 867 1238 872 1265 q 799 1113 850 1157 q 676 1069 749 1069 q 603 1082 638 1069 q 539 1111 569 1094 q 480 1140 508 1128 q 424 1153 451 1153 q 372 1138 393 1153 q 342 1100 350 1124 q 319 1069 332 1081 q 285 1060 307 1058 z "},"Ṍ":{"ha":1106,"x_min":69,"x_max":1038,"o":"m 553 -15 q 299 48 408 -15 q 130 225 190 111 q 69 490 69 339 q 103 698 69 606 q 201 856 138 790 q 355 958 265 922 q 553 994 444 994 q 808 932 700 994 q 977 756 917 869 q 1038 492 1038 643 q 1003 283 1038 376 q 904 124 968 190 q 751 21 840 57 q 553 -15 663 -15 m 553 168 q 692 206 635 168 q 781 317 750 244 q 813 490 813 390 q 744 727 813 643 q 553 811 676 811 q 414 774 472 811 q 325 664 356 736 q 294 490 294 592 q 363 253 294 339 q 553 168 431 168 m 615 1253 q 576 1230 599 1232 q 537 1238 554 1228 q 513 1268 519 1249 q 517 1310 506 1288 l 574 1417 q 610 1452 588 1444 q 657 1453 633 1460 q 697 1430 681 1447 q 716 1390 714 1413 q 696 1343 718 1367 l 615 1253 m 350 1061 q 315 1078 328 1063 q 310 1118 303 1094 q 365 1197 326 1169 q 458 1224 404 1224 q 527 1210 496 1224 q 586 1183 558 1197 q 639 1169 614 1169 q 673 1175 657 1169 q 696 1194 689 1181 q 721 1219 708 1210 q 753 1228 733 1229 q 789 1211 776 1226 q 793 1169 801 1196 q 739 1091 778 1118 q 646 1064 700 1064 q 576 1078 608 1064 q 517 1106 544 1092 q 465 1119 490 1119 q 431 1113 446 1119 q 408 1093 415 1107 q 384 1069 397 1079 q 350 1061 371 1060 z "},"Ṏ":{"ha":1106,"x_min":69,"x_max":1038,"o":"m 553 -15 q 299 48 408 -15 q 130 225 190 111 q 69 490 69 339 q 103 698 69 606 q 201 856 138 790 q 355 958 265 922 q 553 994 444 994 q 808 932 700 994 q 977 756 917 869 q 1038 492 1038 643 q 1003 283 1038 376 q 904 124 968 190 q 751 21 840 57 q 553 -15 663 -15 m 553 168 q 692 206 635 168 q 781 317 750 244 q 813 490 813 390 q 744 727 813 643 q 553 811 676 811 q 414 774 472 811 q 325 664 356 736 q 294 490 294 592 q 363 253 294 339 q 553 168 431 168 m 350 1061 q 315 1078 328 1063 q 310 1118 303 1094 q 365 1197 326 1169 q 458 1224 404 1224 q 527 1210 496 1224 q 586 1183 558 1197 q 639 1169 614 1169 q 673 1175 657 1169 q 696 1194 689 1181 q 721 1219 708 1210 q 753 1228 733 1229 q 789 1211 776 1226 q 793 1169 801 1196 q 739 1091 778 1118 q 646 1064 700 1064 q 576 1078 608 1064 q 517 1106 544 1092 q 465 1119 490 1119 q 431 1113 446 1119 q 408 1093 415 1107 q 385 1069 399 1079 q 350 1061 371 1060 m 415 1263 q 342 1282 368 1263 q 317 1336 317 1301 q 342 1391 317 1372 q 415 1410 368 1410 q 488 1391 463 1410 q 513 1336 513 1372 q 488 1282 513 1301 q 415 1263 463 1263 m 689 1263 q 616 1282 642 1263 q 590 1336 590 1301 q 616 1391 590 1372 q 689 1410 642 1410 q 761 1391 736 1410 q 786 1336 786 1372 q 761 1282 786 1301 q 689 1263 736 1263 z "},"Ȭ":{"ha":1106,"x_min":69,"x_max":1038,"o":"m 553 -15 q 299 48 408 -15 q 130 225 190 111 q 69 490 69 339 q 103 698 69 606 q 201 856 138 790 q 355 958 265 922 q 553 994 444 994 q 808 932 700 994 q 977 756 917 869 q 1038 492 1038 643 q 1003 283 1038 376 q 904 124 968 190 q 751 21 840 57 q 553 -15 663 -15 m 553 168 q 692 206 635 168 q 781 317 750 244 q 813 490 813 390 q 744 727 813 643 q 553 811 676 811 q 414 774 472 811 q 325 664 356 736 q 294 490 294 592 q 363 253 294 339 q 553 168 431 168 m 385 1282 q 335 1298 353 1282 q 318 1342 318 1314 q 335 1385 318 1369 q 385 1400 353 1400 l 718 1400 q 767 1385 750 1400 q 785 1342 785 1369 q 767 1298 785 1314 q 718 1282 750 1282 l 385 1282 m 350 1061 q 315 1078 328 1063 q 310 1118 303 1094 q 365 1197 326 1169 q 458 1224 404 1224 q 527 1210 496 1224 q 586 1183 558 1197 q 639 1169 614 1169 q 673 1175 657 1169 q 696 1194 689 1181 q 721 1219 708 1210 q 753 1228 733 1229 q 789 1211 776 1226 q 793 1169 801 1196 q 739 1091 778 1118 q 646 1064 700 1064 q 576 1078 608 1064 q 517 1106 544 1092 q 465 1119 490 1119 q 431 1113 446 1119 q 408 1093 415 1107 q 384 1069 397 1079 q 350 1061 371 1060 z "},"Œ":{"ha":1475,"x_min":69,"x_max":1415,"o":"m 593 0 q 206 128 343 0 q 69 490 69 257 q 104 698 69 607 q 206 852 139 789 q 372 947 274 915 q 593 979 469 979 l 1329 979 q 1393 958 1371 979 q 1415 896 1415 936 q 1393 833 1415 854 q 1329 811 1371 811 l 939 811 l 939 582 l 1299 582 q 1362 560 1340 582 q 1383 497 1383 539 q 1362 434 1383 456 q 1299 413 1340 413 l 939 413 l 939 168 l 1329 168 q 1393 147 1371 168 q 1415 85 1415 125 q 1393 22 1415 43 q 1329 0 1371 0 l 593 0 m 607 176 l 732 176 l 732 803 l 607 803 q 469 784 528 803 q 372 726 411 765 q 314 628 333 686 q 294 490 294 569 q 372 254 294 332 q 607 176 449 176 z "},"P":{"ha":922,"x_min":99,"x_max":888,"o":"m 207 -12 q 126 17 154 -12 q 99 99 99 46 l 99 869 q 127 951 99 924 q 208 979 156 979 l 546 979 q 799 897 710 979 q 888 667 888 814 q 799 436 888 519 q 546 353 710 353 l 314 353 l 314 99 q 287 17 314 46 q 207 -12 260 -12 m 314 519 l 510 519 q 637 557 593 519 q 681 667 681 594 q 637 775 681 739 q 510 811 593 811 l 314 811 l 314 519 z "},"Þ":{"ha":926,"x_min":99,"x_max":892,"o":"m 207 -3 q 126 26 154 -3 q 99 107 99 56 l 99 872 q 128 954 99 926 q 210 982 157 982 q 287 955 260 982 q 314 886 314 928 l 314 824 l 550 824 q 803 740 714 824 q 892 510 892 657 q 803 279 892 363 q 550 196 714 196 l 314 196 l 314 107 q 287 26 314 56 q 207 -3 260 -3 m 314 364 l 513 364 q 641 401 597 364 q 685 510 685 438 q 641 619 685 583 q 513 656 597 656 l 314 656 l 314 364 z "},"Q":{"ha":1106,"x_min":69,"x_max":1038,"o":"m 950 -140 q 967 -206 972 -176 q 939 -256 961 -236 q 885 -282 917 -276 q 823 -276 854 -287 q 769 -231 792 -264 l 671 -69 q 624 -28 653 -42 q 551 -15 596 -15 l 715 47 q 820 25 779 47 q 894 -51 861 3 l 950 -140 m 553 -15 q 299 48 408 -15 q 130 225 190 111 q 69 490 69 339 q 103 698 69 606 q 201 856 138 790 q 355 958 265 922 q 553 994 444 994 q 808 932 700 994 q 977 756 917 869 q 1038 492 1038 643 q 1003 283 1038 376 q 904 124 968 190 q 751 21 840 57 q 553 -15 663 -15 m 553 168 q 692 206 635 168 q 781 317 750 244 q 813 490 813 390 q 744 727 813 643 q 553 811 676 811 q 414 774 472 811 q 325 664 356 736 q 294 490 294 592 q 363 253 294 339 q 553 168 431 168 z "},"R":{"ha":967,"x_min":99,"x_max":897,"o":"m 207 -12 q 126 17 154 -12 q 99 99 99 46 l 99 869 q 127 951 99 924 q 208 979 156 979 l 546 979 q 799 900 710 979 q 888 679 888 821 q 847 521 888 588 q 731 418 807 454 q 546 382 656 382 l 557 406 l 614 406 q 716 377 672 406 q 792 290 760 349 l 878 131 q 896 63 897 96 q 871 8 894 29 q 801 -12 847 -12 q 727 7 756 -12 q 676 67 699 26 l 543 313 q 492 365 522 351 q 419 379 463 379 l 314 379 l 314 99 q 287 17 314 46 q 207 -12 260 -12 m 314 535 l 507 535 q 637 569 593 535 q 681 674 681 604 q 637 776 681 742 q 507 811 593 811 l 314 811 l 314 535 z "},"Ŕ":{"ha":967,"x_min":99,"x_max":897,"o":"m 207 -12 q 126 17 154 -12 q 99 99 99 46 l 99 869 q 127 951 99 924 q 208 979 156 979 l 546 979 q 799 900 710 979 q 888 679 888 821 q 847 521 888 588 q 731 418 807 454 q 546 382 656 382 l 557 406 l 614 406 q 716 377 672 406 q 792 290 760 349 l 878 131 q 896 63 897 96 q 871 8 894 29 q 801 -12 847 -12 q 727 7 756 -12 q 676 67 699 26 l 543 313 q 492 365 522 351 q 419 379 463 379 l 314 379 l 314 99 q 287 17 314 46 q 207 -12 260 -12 m 314 535 l 507 535 q 637 569 593 535 q 681 674 681 604 q 637 776 681 742 q 507 811 593 811 l 314 811 l 314 535 m 572 1072 q 528 1051 551 1051 q 485 1065 504 1050 q 461 1100 467 1079 q 471 1143 456 1121 l 571 1290 q 612 1323 588 1318 q 660 1319 636 1328 q 700 1291 685 1310 q 717 1249 715 1272 q 697 1204 718 1226 l 572 1072 z "},"Ř":{"ha":967,"x_min":99,"x_max":897,"o":"m 207 -12 q 126 17 154 -12 q 99 99 99 46 l 99 869 q 127 951 99 924 q 208 979 156 979 l 546 979 q 799 900 710 979 q 888 679 888 821 q 847 521 888 588 q 731 418 807 454 q 546 382 656 382 l 557 406 l 614 406 q 716 377 672 406 q 792 290 760 349 l 878 131 q 896 63 897 96 q 871 8 894 29 q 801 -12 847 -12 q 727 7 756 -12 q 676 67 699 26 l 543 313 q 492 365 522 351 q 419 379 463 379 l 314 379 l 314 99 q 287 17 314 46 q 207 -12 260 -12 m 314 535 l 507 535 q 637 569 593 535 q 681 674 681 604 q 637 776 681 742 q 507 811 593 811 l 314 811 l 314 535 m 489 1043 q 423 1059 453 1043 q 369 1108 393 1075 l 281 1232 q 270 1275 264 1254 q 296 1308 276 1296 q 339 1319 315 1321 q 382 1294 363 1317 l 489 1172 l 597 1294 q 640 1319 617 1317 q 683 1308 664 1321 q 708 1276 701 1296 q 697 1232 714 1256 l 610 1108 q 556 1059 586 1075 q 489 1043 526 1043 z "},"Ŗ":{"ha":967,"x_min":99,"x_max":897,"o":"m 207 -12 q 126 17 154 -12 q 99 99 99 46 l 99 869 q 127 951 99 924 q 208 979 156 979 l 546 979 q 799 900 710 979 q 888 679 888 821 q 847 521 888 588 q 731 418 807 454 q 546 382 656 382 l 557 406 l 614 406 q 716 377 672 406 q 792 290 760 349 l 878 131 q 896 63 897 96 q 871 8 894 29 q 801 -12 847 -12 q 727 7 756 -12 q 676 67 699 26 l 543 313 q 492 365 522 351 q 419 379 463 379 l 314 379 l 314 99 q 287 17 314 46 q 207 -12 260 -12 m 314 535 l 507 535 q 637 569 593 535 q 681 674 681 604 q 637 776 681 742 q 507 811 593 811 l 314 811 l 314 535 m 536 -369 q 501 -390 521 -387 q 467 -383 482 -393 q 449 -356 451 -374 q 461 -315 446 -337 q 481 -272 475 -296 q 488 -232 488 -249 l 492 -267 q 410 -243 439 -267 q 382 -175 382 -219 q 410 -109 382 -132 q 489 -86 438 -86 q 569 -112 542 -86 q 596 -190 596 -137 q 590 -253 596 -222 q 570 -315 583 -285 q 536 -369 557 -344 z "},"Ȑ":{"ha":967,"x_min":99,"x_max":897,"o":"m 207 -12 q 126 17 154 -12 q 99 99 99 46 l 99 869 q 127 951 99 924 q 208 979 156 979 l 546 979 q 799 900 710 979 q 888 679 888 821 q 847 521 888 588 q 731 418 807 454 q 546 382 656 382 l 557 406 l 614 406 q 716 377 672 406 q 792 290 760 349 l 878 131 q 896 63 897 96 q 871 8 894 29 q 801 -12 847 -12 q 727 7 756 -12 q 676 67 699 26 l 543 313 q 492 365 522 351 q 419 379 463 379 l 314 379 l 314 99 q 287 17 314 46 q 207 -12 260 -12 m 314 535 l 507 535 q 637 569 593 535 q 681 674 681 604 q 637 776 681 742 q 507 811 593 811 l 314 811 l 314 535 m 529 1076 l 428 1214 q 411 1262 408 1239 q 430 1301 414 1285 q 469 1322 446 1317 q 515 1319 492 1328 q 549 1285 538 1311 l 628 1126 q 631 1085 639 1104 q 606 1057 624 1067 q 567 1051 588 1047 q 529 1076 546 1056 m 314 1071 l 197 1214 q 178 1261 178 1239 q 194 1300 179 1283 q 232 1322 210 1317 q 276 1320 254 1328 q 313 1286 299 1313 l 399 1131 q 406 1090 411 1108 q 385 1060 400 1071 q 349 1050 369 1049 q 314 1071 329 1051 z "},"Ṛ":{"ha":967,"x_min":99,"x_max":897,"o":"m 207 -12 q 126 17 154 -12 q 99 99 99 46 l 99 869 q 127 951 99 924 q 208 979 156 979 l 546 979 q 799 900 710 979 q 888 679 888 821 q 847 521 888 588 q 731 418 807 454 q 546 382 656 382 l 557 406 l 614 406 q 716 377 672 406 q 792 290 760 349 l 878 131 q 896 63 897 96 q 871 8 894 29 q 801 -12 847 -12 q 727 7 756 -12 q 676 67 699 26 l 543 313 q 492 365 522 351 q 419 379 463 379 l 314 379 l 314 99 q 287 17 314 46 q 207 -12 260 -12 m 314 535 l 507 535 q 637 569 593 535 q 681 674 681 604 q 637 776 681 742 q 507 811 593 811 l 314 811 l 314 535 m 490 -304 q 413 -278 440 -304 q 386 -206 386 -253 q 413 -132 386 -157 q 490 -107 440 -107 q 568 -132 542 -107 q 594 -206 594 -157 q 568 -278 594 -253 q 490 -304 542 -304 z "},"Ȓ":{"ha":967,"x_min":99,"x_max":897,"o":"m 207 -12 q 126 17 154 -12 q 99 99 99 46 l 99 869 q 127 951 99 924 q 208 979 156 979 l 546 979 q 799 900 710 979 q 888 679 888 821 q 847 521 888 588 q 731 418 807 454 q 546 382 656 382 l 557 406 l 614 406 q 716 377 672 406 q 792 290 760 349 l 878 131 q 896 63 897 96 q 871 8 894 29 q 801 -12 847 -12 q 727 7 756 -12 q 676 67 699 26 l 543 313 q 492 365 522 351 q 419 379 463 379 l 314 379 l 314 99 q 287 17 314 46 q 207 -12 260 -12 m 314 535 l 507 535 q 637 569 593 535 q 681 674 681 604 q 637 776 681 742 q 507 811 593 811 l 314 811 l 314 535 m 279 1056 q 240 1081 254 1060 q 235 1132 225 1101 q 327 1263 258 1217 q 489 1308 396 1308 q 650 1263 581 1308 q 742 1132 719 1217 q 738 1081 751 1101 q 697 1056 724 1060 q 660 1061 674 1054 q 638 1080 646 1068 q 624 1103 629 1092 q 571 1168 608 1149 q 489 1188 533 1188 q 408 1168 446 1188 q 354 1103 371 1149 q 340 1080 349 1092 q 317 1061 332 1068 q 279 1056 303 1054 z "},"Ṟ":{"ha":967,"x_min":99,"x_max":897,"o":"m 207 -12 q 126 17 154 -12 q 99 99 99 46 l 99 869 q 127 951 99 924 q 208 979 156 979 l 546 979 q 799 900 710 979 q 888 679 888 821 q 847 521 888 588 q 731 418 807 454 q 546 382 656 382 l 557 406 l 614 406 q 716 377 672 406 q 792 290 760 349 l 878 131 q 896 63 897 96 q 871 8 894 29 q 801 -12 847 -12 q 727 7 756 -12 q 676 67 699 26 l 543 313 q 492 365 522 351 q 419 379 463 379 l 314 379 l 314 99 q 287 17 314 46 q 207 -12 260 -12 m 314 535 l 507 535 q 637 569 593 535 q 681 674 681 604 q 637 776 681 742 q 507 811 593 811 l 314 811 l 314 535 m 317 -236 q 256 -176 256 -236 q 272 -133 256 -149 q 317 -118 288 -118 l 664 -118 q 726 -176 726 -118 q 710 -220 726 -204 q 664 -236 694 -236 l 317 -236 z "},"S":{"ha":890,"x_min":61,"x_max":849,"o":"m 449 -15 q 330 -6 390 -15 q 215 19 269 3 q 117 61 160 36 q 74 105 86 78 q 65 160 61 132 q 85 209 68 188 q 130 237 103 231 q 190 226 157 243 q 315 179 247 194 q 449 164 382 164 q 593 195 550 164 q 636 274 636 226 q 606 338 636 314 q 499 378 575 361 l 342 411 q 144 506 208 439 q 79 683 79 574 q 108 810 79 753 q 190 908 138 867 q 316 972 243 950 q 476 994 389 994 q 629 976 554 994 q 761 921 704 957 q 799 878 789 904 q 806 827 810 853 q 785 782 803 801 q 742 757 768 763 q 678 769 715 751 q 581 804 632 793 q 475 815 529 815 q 376 800 417 815 q 313 757 335 785 q 292 693 292 729 q 321 628 292 653 q 422 588 350 603 l 579 554 q 782 460 715 525 q 849 290 849 396 q 821 165 849 221 q 740 68 793 108 q 614 6 688 28 q 449 -15 540 -15 z "},"Ś":{"ha":890,"x_min":61,"x_max":849,"o":"m 449 -15 q 330 -6 390 -15 q 215 19 269 3 q 117 61 160 36 q 74 105 86 78 q 65 160 61 132 q 85 209 68 188 q 130 237 103 231 q 190 226 157 243 q 315 179 247 194 q 449 164 382 164 q 593 195 550 164 q 636 274 636 226 q 606 338 636 314 q 499 378 575 361 l 342 411 q 144 506 208 439 q 79 683 79 574 q 108 810 79 753 q 190 908 138 867 q 316 972 243 950 q 476 994 389 994 q 629 976 554 994 q 761 921 704 957 q 799 878 789 904 q 806 827 810 853 q 785 782 803 801 q 742 757 768 763 q 678 769 715 751 q 581 804 632 793 q 475 815 529 815 q 376 800 417 815 q 313 757 335 785 q 292 693 292 729 q 321 628 292 653 q 422 588 350 603 l 579 554 q 782 460 715 525 q 849 290 849 396 q 821 165 849 221 q 740 68 793 108 q 614 6 688 28 q 449 -15 540 -15 m 543 1072 q 499 1051 522 1051 q 456 1065 475 1050 q 432 1100 438 1079 q 442 1143 426 1121 l 542 1290 q 583 1323 558 1318 q 631 1319 607 1328 q 671 1291 656 1310 q 688 1249 686 1272 q 668 1204 689 1226 l 543 1072 z "},"Ṥ":{"ha":890,"x_min":61,"x_max":849,"o":"m 449 -15 q 330 -6 390 -15 q 215 19 269 3 q 117 61 160 36 q 74 105 86 78 q 65 160 61 132 q 85 209 68 188 q 130 237 103 231 q 190 226 157 243 q 315 179 247 194 q 449 164 382 164 q 593 195 550 164 q 636 274 636 226 q 606 338 636 314 q 499 378 575 361 l 342 411 q 144 506 208 439 q 79 683 79 574 q 108 810 79 753 q 190 908 138 867 q 316 972 243 950 q 476 994 389 994 q 629 976 554 994 q 761 921 704 957 q 799 878 789 904 q 806 827 810 853 q 785 782 803 801 q 742 757 768 763 q 678 769 715 751 q 581 804 632 793 q 475 815 529 815 q 376 800 417 815 q 313 757 335 785 q 292 693 292 729 q 321 628 292 653 q 422 588 350 603 l 579 554 q 782 460 715 525 q 849 290 849 396 q 821 165 849 221 q 740 68 793 108 q 614 6 688 28 q 449 -15 540 -15 m 371 1283 q 297 1303 322 1283 q 271 1358 271 1322 q 297 1413 271 1394 q 371 1432 322 1432 q 442 1413 417 1432 q 468 1358 468 1394 q 443 1303 468 1322 q 371 1283 418 1283 m 543 1074 q 499 1051 522 1053 q 456 1064 475 1050 q 432 1099 438 1078 q 442 1143 426 1119 l 549 1303 q 594 1338 568 1332 q 644 1335 619 1344 q 683 1307 668 1326 q 700 1264 699 1288 q 679 1217 701 1240 l 543 1074 z "},"Š":{"ha":890,"x_min":61,"x_max":849,"o":"m 449 -15 q 330 -6 390 -15 q 215 19 269 3 q 117 61 160 36 q 74 105 86 78 q 65 160 61 132 q 85 209 68 188 q 130 237 103 231 q 190 226 157 243 q 315 179 247 194 q 449 164 382 164 q 593 195 550 164 q 636 274 636 226 q 606 338 636 314 q 499 378 575 361 l 342 411 q 144 506 208 439 q 79 683 79 574 q 108 810 79 753 q 190 908 138 867 q 316 972 243 950 q 476 994 389 994 q 629 976 554 994 q 761 921 704 957 q 799 878 789 904 q 806 827 810 853 q 785 782 803 801 q 742 757 768 763 q 678 769 715 751 q 581 804 632 793 q 475 815 529 815 q 376 800 417 815 q 313 757 335 785 q 292 693 292 729 q 321 628 292 653 q 422 588 350 603 l 579 554 q 782 460 715 525 q 849 290 849 396 q 821 165 849 221 q 740 68 793 108 q 614 6 688 28 q 449 -15 540 -15 m 460 1043 q 394 1059 424 1043 q 340 1108 364 1075 l 251 1232 q 241 1275 235 1254 q 267 1308 247 1296 q 310 1319 286 1321 q 353 1294 333 1317 l 460 1172 l 568 1294 q 611 1319 588 1317 q 653 1308 635 1321 q 678 1276 672 1296 q 668 1232 685 1256 l 581 1108 q 527 1059 557 1075 q 460 1043 497 1043 z "},"Ṧ":{"ha":890,"x_min":61,"x_max":849,"o":"m 449 -15 q 330 -6 390 -15 q 215 19 269 3 q 117 61 160 36 q 74 105 86 78 q 65 160 61 132 q 85 209 68 188 q 130 237 103 231 q 190 226 157 243 q 315 179 247 194 q 449 164 382 164 q 593 195 550 164 q 636 274 636 226 q 606 338 636 314 q 499 378 575 361 l 342 411 q 144 506 208 439 q 79 683 79 574 q 108 810 79 753 q 190 908 138 867 q 316 972 243 950 q 476 994 389 994 q 629 976 554 994 q 761 921 704 957 q 799 878 789 904 q 806 827 810 853 q 785 782 803 801 q 742 757 768 763 q 678 769 715 751 q 581 804 632 793 q 475 815 529 815 q 376 800 417 815 q 313 757 335 785 q 292 693 292 729 q 321 628 292 653 q 422 588 350 603 l 579 554 q 782 460 715 525 q 849 290 849 396 q 821 165 849 221 q 740 68 793 108 q 614 6 688 28 q 449 -15 540 -15 m 460 1046 q 393 1059 422 1046 q 340 1107 364 1072 l 254 1231 q 244 1266 240 1247 q 263 1297 249 1285 q 297 1309 276 1308 q 335 1293 317 1310 l 460 1171 l 586 1293 q 624 1309 604 1310 q 657 1297 643 1308 q 675 1266 671 1285 q 665 1231 679 1247 l 581 1107 q 528 1059 557 1072 q 460 1046 499 1046 m 461 1325 q 389 1344 415 1325 q 363 1399 363 1364 q 389 1453 363 1435 q 461 1472 415 1472 q 534 1453 508 1472 q 560 1399 560 1435 q 534 1344 560 1364 q 461 1325 508 1325 z "},"Ş":{"ha":890,"x_min":61,"x_max":849,"o":"m 449 -15 q 330 -6 390 -15 q 215 19 269 3 q 117 61 160 36 q 74 105 86 78 q 65 160 61 132 q 85 209 68 188 q 130 237 103 231 q 190 226 157 243 q 315 179 247 194 q 449 164 382 164 q 593 195 550 164 q 636 274 636 226 q 606 338 636 314 q 499 378 575 361 l 342 411 q 144 506 208 439 q 79 683 79 574 q 108 810 79 753 q 190 908 138 867 q 316 972 243 950 q 476 994 389 994 q 629 976 554 994 q 761 921 704 957 q 799 878 789 904 q 806 827 810 853 q 785 782 803 801 q 742 757 768 763 q 678 769 715 751 q 581 804 632 793 q 475 815 529 815 q 376 800 417 815 q 313 757 335 785 q 292 693 292 729 q 321 628 292 653 q 422 588 350 603 l 579 554 q 782 460 715 525 q 849 290 849 396 q 821 165 849 221 q 740 68 793 108 q 614 6 688 28 q 449 -15 540 -15 m 453 -274 q 397 -270 426 -274 q 342 -258 367 -267 q 309 -233 318 -251 q 304 -197 300 -215 q 324 -169 308 -179 q 365 -168 340 -160 q 400 -176 383 -174 q 433 -179 417 -179 q 488 -170 469 -179 q 506 -143 506 -161 q 494 -122 506 -129 q 454 -115 482 -115 q 435 -116 444 -115 q 415 -118 425 -117 q 398 -119 406 -121 q 383 -112 390 -118 q 376 -98 378 -107 q 376 -75 375 -89 l 392 28 l 497 28 l 479 -78 l 428 -58 q 461 -50 444 -53 q 492 -47 478 -47 q 589 -74 553 -47 q 625 -150 625 -101 q 577 -240 625 -206 q 453 -274 529 -274 z "},"Ŝ":{"ha":890,"x_min":61,"x_max":849,"o":"m 449 -15 q 330 -6 390 -15 q 215 19 269 3 q 117 61 160 36 q 74 105 86 78 q 65 160 61 132 q 85 209 68 188 q 130 237 103 231 q 190 226 157 243 q 315 179 247 194 q 449 164 382 164 q 593 195 550 164 q 636 274 636 226 q 606 338 636 314 q 499 378 575 361 l 342 411 q 144 506 208 439 q 79 683 79 574 q 108 810 79 753 q 190 908 138 867 q 316 972 243 950 q 476 994 389 994 q 629 976 554 994 q 761 921 704 957 q 799 878 789 904 q 806 827 810 853 q 785 782 803 801 q 742 757 768 763 q 678 769 715 751 q 581 804 632 793 q 475 815 529 815 q 376 800 417 815 q 313 757 335 785 q 292 693 292 729 q 321 628 292 653 q 422 588 350 603 l 579 554 q 782 460 715 525 q 849 290 849 396 q 821 165 849 221 q 740 68 793 108 q 614 6 688 28 q 449 -15 540 -15 m 353 1074 q 309 1050 333 1051 q 266 1061 285 1049 q 241 1094 247 1074 q 251 1136 235 1114 l 340 1260 q 394 1309 364 1293 q 460 1325 424 1325 q 527 1309 497 1325 q 581 1260 557 1293 l 668 1136 q 679 1094 685 1114 q 655 1061 674 1074 q 612 1050 636 1049 q 568 1074 588 1051 l 460 1194 l 353 1074 z "},"Ș":{"ha":890,"x_min":61,"x_max":849,"o":"m 449 -15 q 330 -6 390 -15 q 215 19 269 3 q 117 61 160 36 q 74 105 86 78 q 65 160 61 132 q 85 209 68 188 q 130 237 103 231 q 190 226 157 243 q 315 179 247 194 q 449 164 382 164 q 593 195 550 164 q 636 274 636 226 q 606 338 636 314 q 499 378 575 361 l 342 411 q 144 506 208 439 q 79 683 79 574 q 108 810 79 753 q 190 908 138 867 q 316 972 243 950 q 476 994 389 994 q 629 976 554 994 q 761 921 704 957 q 799 878 789 904 q 806 827 810 853 q 785 782 803 801 q 742 757 768 763 q 678 769 715 751 q 581 804 632 793 q 475 815 529 815 q 376 800 417 815 q 313 757 335 785 q 292 693 292 729 q 321 628 292 653 q 422 588 350 603 l 579 554 q 782 460 715 525 q 849 290 849 396 q 821 165 849 221 q 740 68 793 108 q 614 6 688 28 q 449 -15 540 -15 m 500 -369 q 465 -390 485 -387 q 431 -383 446 -393 q 413 -356 415 -374 q 425 -315 410 -337 q 445 -272 439 -296 q 451 -232 451 -249 l 456 -267 q 374 -243 403 -267 q 346 -175 346 -219 q 374 -109 346 -132 q 453 -86 401 -86 q 533 -112 506 -86 q 560 -190 560 -137 q 553 -253 560 -222 q 534 -315 547 -285 q 500 -369 521 -344 z "},"Ṡ":{"ha":890,"x_min":61,"x_max":849,"o":"m 449 -15 q 330 -6 390 -15 q 215 19 269 3 q 117 61 160 36 q 74 105 86 78 q 65 160 61 132 q 85 209 68 188 q 130 237 103 231 q 190 226 157 243 q 315 179 247 194 q 449 164 382 164 q 593 195 550 164 q 636 274 636 226 q 606 338 636 314 q 499 378 575 361 l 342 411 q 144 506 208 439 q 79 683 79 574 q 108 810 79 753 q 190 908 138 867 q 316 972 243 950 q 476 994 389 994 q 629 976 554 994 q 761 921 704 957 q 799 878 789 904 q 806 827 810 853 q 785 782 803 801 q 742 757 768 763 q 678 769 715 751 q 581 804 632 793 q 475 815 529 815 q 376 800 417 815 q 313 757 335 785 q 292 693 292 729 q 321 628 292 653 q 422 588 350 603 l 579 554 q 782 460 715 525 q 849 290 849 396 q 821 165 849 221 q 740 68 793 108 q 614 6 688 28 q 449 -15 540 -15 m 460 1085 q 383 1111 410 1085 q 356 1185 356 1138 q 383 1257 356 1232 q 460 1282 410 1282 q 538 1257 511 1282 q 564 1185 564 1232 q 538 1110 564 1136 q 460 1085 511 1085 z "},"Ṣ":{"ha":890,"x_min":61,"x_max":849,"o":"m 449 -15 q 330 -6 390 -15 q 215 19 269 3 q 117 61 160 36 q 74 105 86 78 q 65 160 61 132 q 85 209 68 188 q 130 237 103 231 q 190 226 157 243 q 315 179 247 194 q 449 164 382 164 q 593 195 550 164 q 636 274 636 226 q 606 338 636 314 q 499 378 575 361 l 342 411 q 144 506 208 439 q 79 683 79 574 q 108 810 79 753 q 190 908 138 867 q 316 972 243 950 q 476 994 389 994 q 629 976 554 994 q 761 921 704 957 q 799 878 789 904 q 806 827 810 853 q 785 782 803 801 q 742 757 768 763 q 678 769 715 751 q 581 804 632 793 q 475 815 529 815 q 376 800 417 815 q 313 757 335 785 q 292 693 292 729 q 321 628 292 653 q 422 588 350 603 l 579 554 q 782 460 715 525 q 849 290 849 396 q 821 165 849 221 q 740 68 793 108 q 614 6 688 28 q 449 -15 540 -15 m 454 -304 q 377 -278 404 -304 q 350 -206 350 -253 q 377 -132 350 -157 q 454 -107 404 -107 q 532 -132 506 -107 q 558 -206 558 -157 q 532 -278 558 -253 q 454 -304 506 -304 z "},"Ṩ":{"ha":890,"x_min":61,"x_max":849,"o":"m 449 -15 q 330 -6 390 -15 q 215 19 269 3 q 117 61 160 36 q 74 105 86 78 q 65 160 61 132 q 85 209 68 188 q 130 237 103 231 q 190 226 157 243 q 315 179 247 194 q 449 164 382 164 q 593 195 550 164 q 636 274 636 226 q 606 338 636 314 q 499 378 575 361 l 342 411 q 144 506 208 439 q 79 683 79 574 q 108 810 79 753 q 190 908 138 867 q 316 972 243 950 q 476 994 389 994 q 629 976 554 994 q 761 921 704 957 q 799 878 789 904 q 806 827 810 853 q 785 782 803 801 q 742 757 768 763 q 678 769 715 751 q 581 804 632 793 q 475 815 529 815 q 376 800 417 815 q 313 757 335 785 q 292 693 292 729 q 321 628 292 653 q 422 588 350 603 l 579 554 q 782 460 715 525 q 849 290 849 396 q 821 165 849 221 q 740 68 793 108 q 614 6 688 28 q 449 -15 540 -15 m 454 -304 q 377 -278 404 -304 q 350 -206 350 -253 q 377 -132 350 -157 q 454 -107 404 -107 q 532 -132 506 -107 q 558 -206 558 -157 q 532 -278 558 -253 q 454 -304 506 -304 m 460 1085 q 383 1111 410 1085 q 356 1185 356 1138 q 383 1257 356 1232 q 460 1282 410 1282 q 538 1257 511 1282 q 564 1185 564 1232 q 538 1110 564 1136 q 460 1085 511 1085 z "},"ẞ":{"ha":1029,"x_min":99,"x_max":964,"o":"m 644 -15 q 528 -3 582 -15 q 432 31 474 10 q 392 70 403 46 q 383 120 381 94 q 400 167 386 146 q 436 194 414 188 q 485 189 458 201 q 553 163 519 171 q 621 156 586 156 q 722 190 686 156 q 758 282 758 224 q 716 376 758 344 q 586 407 674 407 l 511 407 q 451 428 475 407 q 428 490 428 450 q 449 552 428 532 q 501 572 469 572 l 563 572 q 668 605 629 572 q 707 697 707 638 q 663 790 707 758 q 533 821 618 821 q 369 770 424 821 q 314 615 314 719 l 314 99 q 286 17 314 46 q 207 -12 258 -12 q 126 17 154 -12 q 99 99 99 46 l 99 617 q 151 824 99 740 q 302 951 203 908 q 544 993 401 993 q 741 961 658 993 q 869 869 824 929 q 914 726 914 810 q 868 581 914 643 q 740 492 822 518 l 740 517 q 859 477 808 510 q 937 391 910 444 q 964 267 964 338 q 926 115 964 178 q 816 19 888 53 q 644 -15 744 -15 z "},"T":{"ha":878,"x_min":-4,"x_max":883,"o":"m 440 -12 q 360 17 388 -12 q 332 99 332 46 l 332 801 l 86 801 q 19 825 43 801 q -4 890 -4 849 q 19 956 -4 933 q 86 979 43 979 l 793 979 q 860 956 836 979 q 883 890 883 933 q 860 825 883 849 q 793 801 836 801 l 547 801 l 547 99 q 520 17 547 46 q 440 -12 493 -12 z "},"Ŧ":{"ha":878,"x_min":-4,"x_max":883,"o":"m 440 -12 q 360 17 388 -12 q 332 99 332 46 l 332 801 l 86 801 q 19 825 43 801 q -4 890 -4 849 q 19 956 -4 933 q 86 979 43 979 l 793 979 q 860 956 836 979 q 883 890 883 933 q 860 825 883 849 q 793 801 836 801 l 547 801 l 547 99 q 520 17 547 46 q 440 -12 493 -12 m 210 418 q 150 438 171 418 q 129 494 129 458 q 150 552 129 532 q 210 572 171 572 l 665 572 q 725 553 704 572 q 746 494 746 533 q 725 438 746 458 q 665 418 704 418 l 210 418 z "},"Ť":{"ha":878,"x_min":-4,"x_max":883,"o":"m 440 -12 q 360 17 388 -12 q 332 99 332 46 l 332 801 l 86 801 q 19 825 43 801 q -4 890 -4 849 q 19 956 -4 933 q 86 979 43 979 l 793 979 q 860 956 836 979 q 883 890 883 933 q 860 825 883 849 q 793 801 836 801 l 547 801 l 547 99 q 520 17 547 46 q 440 -12 493 -12 m 439 1043 q 373 1059 403 1043 q 319 1108 343 1075 l 231 1232 q 220 1275 214 1254 q 246 1308 226 1296 q 289 1319 265 1321 q 332 1294 313 1317 l 439 1172 l 547 1294 q 590 1319 567 1317 q 633 1308 614 1321 q 658 1276 651 1296 q 647 1232 664 1256 l 560 1108 q 506 1059 536 1075 q 439 1043 476 1043 z "},"Ţ":{"ha":878,"x_min":-4,"x_max":883,"o":"m 440 -12 q 360 17 388 -12 q 332 99 332 46 l 332 801 l 86 801 q 19 825 43 801 q -4 890 -4 849 q 19 956 -4 933 q 86 979 43 979 l 793 979 q 860 956 836 979 q 883 890 883 933 q 860 825 883 849 q 793 801 836 801 l 547 801 l 547 99 q 520 17 547 46 q 440 -12 493 -12 m 439 -274 q 383 -270 413 -274 q 328 -258 353 -267 q 295 -233 304 -251 q 290 -197 286 -215 q 310 -169 294 -179 q 351 -168 326 -160 q 386 -176 369 -174 q 419 -179 403 -179 q 474 -170 456 -179 q 492 -143 492 -161 q 480 -122 492 -129 q 440 -115 468 -115 q 421 -116 431 -115 q 401 -118 411 -117 q 384 -119 392 -121 q 369 -112 376 -118 q 363 -98 364 -107 q 363 -75 361 -89 l 378 28 l 483 28 l 465 -78 l 414 -58 q 447 -50 431 -53 q 478 -47 464 -47 q 575 -74 539 -47 q 611 -150 611 -101 q 563 -240 611 -206 q 439 -274 515 -274 z "},"Ț":{"ha":878,"x_min":-4,"x_max":883,"o":"m 440 -12 q 360 17 388 -12 q 332 99 332 46 l 332 801 l 86 801 q 19 825 43 801 q -4 890 -4 849 q 19 956 -4 933 q 86 979 43 979 l 793 979 q 860 956 836 979 q 883 890 883 933 q 860 825 883 849 q 793 801 836 801 l 547 801 l 547 99 q 520 17 547 46 q 440 -12 493 -12 m 486 -369 q 451 -390 471 -387 q 417 -383 432 -393 q 399 -356 401 -374 q 411 -315 396 -337 q 431 -272 425 -296 q 438 -232 438 -249 l 442 -267 q 360 -243 389 -267 q 332 -175 332 -219 q 360 -109 332 -132 q 439 -86 388 -86 q 519 -112 492 -86 q 546 -190 546 -137 q 540 -253 546 -222 q 520 -315 533 -285 q 486 -369 507 -344 z "},"Ṭ":{"ha":878,"x_min":-4,"x_max":883,"o":"m 440 -12 q 360 17 388 -12 q 332 99 332 46 l 332 801 l 86 801 q 19 825 43 801 q -4 890 -4 849 q 19 956 -4 933 q 86 979 43 979 l 793 979 q 860 956 836 979 q 883 890 883 933 q 860 825 883 849 q 793 801 836 801 l 547 801 l 547 99 q 520 17 547 46 q 440 -12 493 -12 m 440 -304 q 363 -278 390 -304 q 336 -206 336 -253 q 363 -132 336 -157 q 440 -107 390 -107 q 518 -132 492 -107 q 544 -206 544 -157 q 518 -278 544 -253 q 440 -304 492 -304 z "},"Ṯ":{"ha":878,"x_min":-4,"x_max":883,"o":"m 440 -12 q 360 17 388 -12 q 332 99 332 46 l 332 801 l 86 801 q 19 825 43 801 q -4 890 -4 849 q 19 956 -4 933 q 86 979 43 979 l 793 979 q 860 956 836 979 q 883 890 883 933 q 860 825 883 849 q 793 801 836 801 l 547 801 l 547 99 q 520 17 547 46 q 440 -12 493 -12 m 267 -236 q 206 -176 206 -236 q 222 -133 206 -149 q 267 -118 238 -118 l 614 -118 q 676 -176 676 -118 q 660 -220 676 -204 q 614 -236 644 -236 l 267 -236 z "},"U":{"ha":1032,"x_min":92,"x_max":940,"o":"m 518 -15 q 334 12 414 -15 q 200 92 254 39 q 119 224 146 144 q 92 410 92 304 l 92 882 q 119 964 92 936 q 200 992 147 992 q 279 964 251 992 q 307 882 307 936 l 307 408 q 361 228 307 289 q 518 168 415 168 q 674 228 621 168 q 728 408 728 289 l 728 882 q 756 964 728 936 q 835 992 783 992 q 913 964 886 992 q 940 882 940 936 l 940 410 q 892 174 940 269 q 751 32 844 79 q 518 -15 657 -15 z "},"Ú":{"ha":1032,"x_min":92,"x_max":940,"o":"m 518 -15 q 334 12 414 -15 q 200 92 254 39 q 119 224 146 144 q 92 410 92 304 l 92 882 q 119 964 92 936 q 200 992 147 992 q 279 964 251 992 q 307 882 307 936 l 307 408 q 361 228 307 289 q 518 168 415 168 q 674 228 621 168 q 728 408 728 289 l 728 882 q 756 964 728 936 q 835 992 783 992 q 913 964 886 992 q 940 882 940 936 l 940 410 q 892 174 940 269 q 751 32 844 79 q 518 -15 657 -15 m 601 1072 q 557 1051 581 1051 q 515 1065 533 1050 q 490 1100 496 1079 q 500 1143 485 1121 l 600 1290 q 641 1323 617 1318 q 690 1319 665 1328 q 729 1291 714 1310 q 746 1249 744 1272 q 726 1204 747 1226 l 601 1072 z "},"Ŭ":{"ha":1032,"x_min":92,"x_max":940,"o":"m 518 -15 q 334 12 414 -15 q 200 92 254 39 q 119 224 146 144 q 92 410 92 304 l 92 882 q 119 964 92 936 q 200 992 147 992 q 279 964 251 992 q 307 882 307 936 l 307 408 q 361 228 307 289 q 518 168 415 168 q 674 228 621 168 q 728 408 728 289 l 728 882 q 756 964 728 936 q 835 992 783 992 q 913 964 886 992 q 940 882 940 936 l 940 410 q 892 174 940 269 q 751 32 844 79 q 518 -15 657 -15 m 518 1056 q 356 1102 424 1056 q 264 1232 288 1149 q 269 1285 254 1264 q 308 1308 285 1306 q 347 1303 332 1311 q 369 1284 361 1296 q 383 1261 378 1272 q 436 1197 399 1217 q 518 1176 474 1176 q 600 1197 563 1176 q 653 1261 638 1217 q 667 1284 658 1272 q 690 1303 675 1296 q 728 1308 704 1311 q 767 1285 751 1306 q 772 1232 782 1264 q 681 1102 750 1149 q 518 1056 613 1056 z "},"Û":{"ha":1032,"x_min":92,"x_max":940,"o":"m 518 -15 q 334 12 414 -15 q 200 92 254 39 q 119 224 146 144 q 92 410 92 304 l 92 882 q 119 964 92 936 q 200 992 147 992 q 279 964 251 992 q 307 882 307 936 l 307 408 q 361 228 307 289 q 518 168 415 168 q 674 228 621 168 q 728 408 728 289 l 728 882 q 756 964 728 936 q 835 992 783 992 q 913 964 886 992 q 940 882 940 936 l 940 410 q 892 174 940 269 q 751 32 844 79 q 518 -15 657 -15 m 411 1074 q 367 1050 392 1051 q 324 1061 343 1049 q 299 1094 306 1074 q 310 1136 293 1114 l 399 1260 q 452 1309 422 1293 q 518 1325 482 1325 q 585 1309 556 1325 q 639 1260 615 1293 l 726 1136 q 738 1094 743 1114 q 713 1061 732 1074 q 670 1050 694 1049 q 626 1074 646 1051 l 518 1194 l 411 1074 z "},"Ȕ":{"ha":1032,"x_min":92,"x_max":940,"o":"m 518 -15 q 334 12 414 -15 q 200 92 254 39 q 119 224 146 144 q 92 410 92 304 l 92 882 q 119 964 92 936 q 200 992 147 992 q 279 964 251 992 q 307 882 307 936 l 307 408 q 361 228 307 289 q 518 168 415 168 q 674 228 621 168 q 728 408 728 289 l 728 882 q 756 964 728 936 q 835 992 783 992 q 913 964 886 992 q 940 882 940 936 l 940 410 q 892 174 940 269 q 751 32 844 79 q 518 -15 657 -15 m 558 1076 l 457 1214 q 440 1262 438 1239 q 459 1301 443 1285 q 498 1322 475 1317 q 544 1319 521 1328 q 578 1285 567 1311 l 657 1126 q 660 1085 668 1104 q 635 1057 653 1067 q 596 1051 617 1047 q 558 1076 575 1056 m 343 1071 l 226 1214 q 208 1261 207 1239 q 224 1300 208 1283 q 261 1322 239 1317 q 306 1320 283 1328 q 342 1286 328 1313 l 428 1131 q 435 1090 440 1108 q 414 1060 429 1071 q 378 1050 399 1049 q 343 1071 358 1051 z "},"Ü":{"ha":1032,"x_min":92,"x_max":940,"o":"m 518 -15 q 334 12 414 -15 q 200 92 254 39 q 119 224 146 144 q 92 410 92 304 l 92 882 q 119 964 92 936 q 200 992 147 992 q 279 964 251 992 q 307 882 307 936 l 307 408 q 361 228 307 289 q 518 168 415 168 q 674 228 621 168 q 728 408 728 289 l 728 882 q 756 964 728 936 q 835 992 783 992 q 913 964 886 992 q 940 882 940 936 l 940 410 q 892 174 940 269 q 751 32 844 79 q 518 -15 657 -15 m 656 1078 q 583 1103 608 1078 q 557 1176 557 1129 q 583 1249 557 1224 q 656 1274 608 1274 q 728 1249 703 1274 q 753 1176 753 1224 q 728 1103 753 1129 q 656 1078 703 1078 m 382 1078 q 309 1103 335 1078 q 283 1176 283 1129 q 309 1249 283 1224 q 382 1274 335 1274 q 454 1249 429 1274 q 479 1176 479 1224 q 454 1103 479 1129 q 382 1078 429 1078 z "},"Ụ":{"ha":1032,"x_min":92,"x_max":940,"o":"m 518 -15 q 334 12 414 -15 q 200 92 254 39 q 119 224 146 144 q 92 410 92 304 l 92 882 q 119 964 92 936 q 200 992 147 992 q 279 964 251 992 q 307 882 307 936 l 307 408 q 361 228 307 289 q 518 168 415 168 q 674 228 621 168 q 728 408 728 289 l 728 882 q 756 964 728 936 q 835 992 783 992 q 913 964 886 992 q 940 882 940 936 l 940 410 q 892 174 940 269 q 751 32 844 79 q 518 -15 657 -15 m 518 -304 q 441 -278 468 -304 q 414 -206 414 -253 q 441 -132 414 -157 q 518 -107 468 -107 q 596 -132 569 -107 q 622 -206 622 -157 q 596 -278 622 -253 q 518 -304 569 -304 z "},"Ù":{"ha":1032,"x_min":92,"x_max":940,"o":"m 518 -15 q 334 12 414 -15 q 200 92 254 39 q 119 224 146 144 q 92 410 92 304 l 92 882 q 119 964 92 936 q 200 992 147 992 q 279 964 251 992 q 307 882 307 936 l 307 408 q 361 228 307 289 q 518 168 415 168 q 674 228 621 168 q 728 408 728 289 l 728 882 q 756 964 728 936 q 835 992 783 992 q 913 964 886 992 q 940 882 940 936 l 940 410 q 892 174 940 269 q 751 32 844 79 q 518 -15 657 -15 m 436 1072 l 311 1204 q 292 1249 290 1226 q 308 1291 293 1272 q 347 1319 324 1310 q 396 1323 371 1328 q 438 1290 421 1318 l 538 1143 q 546 1100 551 1121 q 522 1065 540 1079 q 479 1051 503 1050 q 436 1072 456 1051 z "},"Ủ":{"ha":1032,"x_min":92,"x_max":940,"o":"m 518 -15 q 334 12 414 -15 q 200 92 254 39 q 119 224 146 144 q 92 410 92 304 l 92 882 q 119 964 92 936 q 200 992 147 992 q 279 964 251 992 q 307 882 307 936 l 307 408 q 361 228 307 289 q 518 168 415 168 q 674 228 621 168 q 728 408 728 289 l 728 882 q 756 964 728 936 q 835 992 783 992 q 913 964 886 992 q 940 882 940 936 l 940 410 q 892 174 940 269 q 751 32 844 79 q 518 -15 657 -15 m 518 1050 q 473 1060 489 1050 q 457 1089 457 1069 q 467 1126 457 1113 q 492 1151 478 1140 q 518 1173 507 1163 q 529 1196 529 1183 q 516 1215 529 1208 q 479 1221 503 1221 q 458 1219 469 1221 q 435 1217 446 1218 q 395 1216 411 1211 q 371 1240 379 1221 q 371 1276 364 1260 q 403 1300 378 1292 q 461 1313 428 1308 q 532 1317 494 1317 q 644 1293 603 1317 q 685 1228 685 1269 q 669 1178 685 1196 q 632 1147 653 1160 q 596 1119 611 1133 q 581 1081 581 1104 q 565 1058 581 1067 q 518 1050 549 1050 z "},"Ư":{"ha":1032,"x_min":92,"x_max":1096,"o":"m 518 -15 q 334 12 414 -15 q 200 92 254 39 q 119 224 146 144 q 92 410 92 304 l 92 882 q 119 964 92 936 q 200 992 147 992 q 279 964 251 992 q 307 882 307 936 l 307 408 q 361 228 307 289 q 518 168 415 168 q 674 228 621 168 q 728 408 728 289 l 728 882 q 756 964 728 936 q 835 992 783 992 q 913 964 886 992 q 940 882 940 936 l 940 410 q 892 174 940 269 q 751 32 844 79 q 518 -15 657 -15 m 913 879 l 789 956 l 789 979 q 859 990 832 979 q 900 1028 886 1001 q 914 1096 914 1054 q 938 1148 914 1131 q 1006 1165 961 1165 q 1072 1149 1049 1165 q 1096 1096 1096 1132 q 1073 991 1096 1038 q 1009 915 1050 944 q 913 879 968 885 z "},"Ứ":{"ha":1032,"x_min":92,"x_max":1096,"o":"m 518 -15 q 334 12 414 -15 q 200 92 254 39 q 119 224 146 144 q 92 410 92 304 l 92 882 q 119 964 92 936 q 200 992 147 992 q 279 964 251 992 q 307 882 307 936 l 307 408 q 361 228 307 289 q 518 168 415 168 q 674 228 621 168 q 728 408 728 289 l 728 882 q 756 964 728 936 q 835 992 783 992 q 913 964 886 992 q 940 882 940 936 l 940 410 q 892 174 940 269 q 751 32 844 79 q 518 -15 657 -15 m 913 879 l 789 956 l 789 979 q 859 990 832 979 q 900 1028 886 1001 q 914 1096 914 1054 q 938 1148 914 1131 q 1006 1165 961 1165 q 1072 1149 1049 1165 q 1096 1096 1096 1132 q 1073 991 1096 1038 q 1009 915 1050 944 q 913 879 968 885 m 601 1072 q 557 1051 581 1051 q 515 1065 533 1050 q 490 1100 496 1079 q 500 1143 485 1121 l 600 1290 q 641 1323 617 1318 q 690 1319 665 1328 q 729 1291 714 1310 q 746 1249 744 1272 q 726 1204 747 1226 l 601 1072 z "},"Ự":{"ha":1032,"x_min":92,"x_max":1096,"o":"m 518 -15 q 334 12 414 -15 q 200 92 254 39 q 119 224 146 144 q 92 410 92 304 l 92 882 q 119 964 92 936 q 200 992 147 992 q 279 964 251 992 q 307 882 307 936 l 307 408 q 361 228 307 289 q 518 168 415 168 q 674 228 621 168 q 728 408 728 289 l 728 882 q 756 964 728 936 q 835 992 783 992 q 913 964 886 992 q 940 882 940 936 l 940 410 q 892 174 940 269 q 751 32 844 79 q 518 -15 657 -15 m 913 879 l 789 956 l 789 979 q 859 990 832 979 q 900 1028 886 1001 q 914 1096 914 1054 q 938 1148 914 1131 q 1006 1165 961 1165 q 1072 1149 1049 1165 q 1096 1096 1096 1132 q 1073 991 1096 1038 q 1009 915 1050 944 q 913 879 968 885 m 518 -304 q 441 -278 468 -304 q 414 -206 414 -253 q 441 -132 414 -157 q 518 -107 468 -107 q 596 -132 569 -107 q 622 -206 622 -157 q 596 -278 622 -253 q 518 -304 569 -304 z "},"Ừ":{"ha":1032,"x_min":92,"x_max":1096,"o":"m 518 -15 q 334 12 414 -15 q 200 92 254 39 q 119 224 146 144 q 92 410 92 304 l 92 882 q 119 964 92 936 q 200 992 147 992 q 279 964 251 992 q 307 882 307 936 l 307 408 q 361 228 307 289 q 518 168 415 168 q 674 228 621 168 q 728 408 728 289 l 728 882 q 756 964 728 936 q 835 992 783 992 q 913 964 886 992 q 940 882 940 936 l 940 410 q 892 174 940 269 q 751 32 844 79 q 518 -15 657 -15 m 913 879 l 789 956 l 789 979 q 859 990 832 979 q 900 1028 886 1001 q 914 1096 914 1054 q 938 1148 914 1131 q 1006 1165 961 1165 q 1072 1149 1049 1165 q 1096 1096 1096 1132 q 1073 991 1096 1038 q 1009 915 1050 944 q 913 879 968 885 m 436 1072 l 311 1204 q 292 1249 290 1226 q 308 1291 293 1272 q 347 1319 324 1310 q 396 1323 371 1328 q 438 1290 421 1318 l 538 1143 q 546 1100 551 1121 q 522 1065 540 1079 q 479 1051 503 1050 q 436 1072 456 1051 z "},"Ử":{"ha":1032,"x_min":92,"x_max":1096,"o":"m 518 -15 q 334 12 414 -15 q 200 92 254 39 q 119 224 146 144 q 92 410 92 304 l 92 882 q 119 964 92 936 q 200 992 147 992 q 279 964 251 992 q 307 882 307 936 l 307 408 q 361 228 307 289 q 518 168 415 168 q 674 228 621 168 q 728 408 728 289 l 728 882 q 756 964 728 936 q 835 992 783 992 q 913 964 886 992 q 940 882 940 936 l 940 410 q 892 174 940 269 q 751 32 844 79 q 518 -15 657 -15 m 913 879 l 789 956 l 789 979 q 859 990 832 979 q 900 1028 886 1001 q 914 1096 914 1054 q 938 1148 914 1131 q 1006 1165 961 1165 q 1072 1149 1049 1165 q 1096 1096 1096 1132 q 1073 991 1096 1038 q 1009 915 1050 944 q 913 879 968 885 m 518 1050 q 473 1060 489 1050 q 457 1089 457 1069 q 467 1126 457 1113 q 492 1151 478 1140 q 518 1173 507 1163 q 529 1196 529 1183 q 516 1215 529 1208 q 479 1221 503 1221 q 458 1219 469 1221 q 435 1217 446 1218 q 395 1216 411 1211 q 371 1240 379 1221 q 371 1276 364 1260 q 403 1300 378 1292 q 461 1313 428 1308 q 532 1317 494 1317 q 644 1293 603 1317 q 685 1228 685 1269 q 669 1178 685 1196 q 632 1147 653 1160 q 596 1119 611 1133 q 581 1081 581 1104 q 565 1058 581 1067 q 518 1050 549 1050 z "},"Ữ":{"ha":1032,"x_min":92,"x_max":1096,"o":"m 518 -15 q 334 12 414 -15 q 200 92 254 39 q 119 224 146 144 q 92 410 92 304 l 92 882 q 119 964 92 936 q 200 992 147 992 q 279 964 251 992 q 307 882 307 936 l 307 408 q 361 228 307 289 q 518 168 415 168 q 674 228 621 168 q 728 408 728 289 l 728 882 q 756 964 728 936 q 835 992 783 992 q 913 964 886 992 q 940 882 940 936 l 940 410 q 892 174 940 269 q 751 32 844 79 q 518 -15 657 -15 m 913 879 l 789 956 l 789 979 q 859 990 832 979 q 900 1028 886 1001 q 914 1096 914 1054 q 938 1148 914 1131 q 1006 1165 961 1165 q 1072 1149 1049 1165 q 1096 1096 1096 1132 q 1073 991 1096 1038 q 1009 915 1050 944 q 913 879 968 885 m 261 1060 q 224 1077 238 1061 q 217 1121 211 1093 q 278 1243 231 1199 q 393 1288 326 1288 q 457 1275 429 1288 q 508 1246 485 1263 q 556 1217 532 1229 q 606 1204 579 1204 q 651 1219 632 1204 q 679 1256 669 1233 q 703 1288 690 1276 q 740 1297 717 1300 q 776 1280 764 1296 q 785 1236 789 1264 q 723 1114 771 1158 q 607 1069 675 1069 q 544 1082 572 1069 q 492 1111 517 1094 q 444 1140 468 1128 q 394 1153 421 1153 q 349 1138 368 1153 q 322 1101 331 1124 q 298 1070 311 1082 q 261 1060 285 1058 z "},"Ű":{"ha":1032,"x_min":92,"x_max":940,"o":"m 518 -15 q 334 12 414 -15 q 200 92 254 39 q 119 224 146 144 q 92 410 92 304 l 92 882 q 119 964 92 936 q 200 992 147 992 q 279 964 251 992 q 307 882 307 936 l 307 408 q 361 228 307 289 q 518 168 415 168 q 674 228 621 168 q 728 408 728 289 l 728 882 q 756 964 728 936 q 835 992 783 992 q 913 964 886 992 q 940 882 940 936 l 940 410 q 892 174 940 269 q 751 32 844 79 q 518 -15 657 -15 m 478 1076 q 440 1051 461 1056 q 402 1057 419 1047 q 377 1085 385 1067 q 381 1126 369 1104 l 458 1285 q 492 1319 469 1311 q 538 1322 515 1328 q 577 1301 561 1317 q 596 1262 593 1285 q 579 1214 599 1239 l 478 1076 m 693 1071 q 658 1050 678 1051 q 622 1060 638 1049 q 601 1090 606 1071 q 608 1131 596 1108 l 694 1286 q 732 1320 710 1313 q 776 1322 754 1328 q 813 1300 799 1317 q 829 1261 828 1283 q 811 1214 831 1239 l 693 1071 z "},"Ȗ":{"ha":1032,"x_min":92,"x_max":940,"o":"m 518 -15 q 334 12 414 -15 q 200 92 254 39 q 119 224 146 144 q 92 410 92 304 l 92 882 q 119 964 92 936 q 200 992 147 992 q 279 964 251 992 q 307 882 307 936 l 307 408 q 361 228 307 289 q 518 168 415 168 q 674 228 621 168 q 728 408 728 289 l 728 882 q 756 964 728 936 q 835 992 783 992 q 913 964 886 992 q 940 882 940 936 l 940 410 q 892 174 940 269 q 751 32 844 79 q 518 -15 657 -15 m 308 1056 q 269 1081 283 1060 q 264 1132 254 1101 q 356 1263 288 1217 q 518 1308 425 1308 q 679 1263 610 1308 q 771 1132 749 1217 q 767 1081 781 1101 q 726 1056 753 1060 q 689 1061 703 1054 q 667 1080 675 1068 q 653 1103 658 1092 q 600 1168 638 1149 q 518 1188 563 1188 q 438 1168 475 1188 q 383 1103 400 1149 q 369 1080 378 1092 q 347 1061 361 1068 q 308 1056 332 1054 z "},"Ū":{"ha":1032,"x_min":92,"x_max":940,"o":"m 518 -15 q 334 12 414 -15 q 200 92 254 39 q 119 224 146 144 q 92 410 92 304 l 92 882 q 119 964 92 936 q 200 992 147 992 q 279 964 251 992 q 307 882 307 936 l 307 408 q 361 228 307 289 q 518 168 415 168 q 674 228 621 168 q 728 408 728 289 l 728 882 q 756 964 728 936 q 835 992 783 992 q 913 964 886 992 q 940 882 940 936 l 940 410 q 892 174 940 269 q 751 32 844 79 q 518 -15 657 -15 m 324 1113 q 263 1172 263 1113 q 278 1215 263 1200 q 324 1231 294 1231 l 713 1231 q 775 1172 775 1231 q 759 1128 775 1144 q 713 1113 743 1113 l 324 1113 z "},"Ṻ":{"ha":1032,"x_min":92,"x_max":940,"o":"m 518 -15 q 334 12 414 -15 q 200 92 254 39 q 119 224 146 144 q 92 410 92 304 l 92 882 q 119 964 92 936 q 200 992 147 992 q 279 964 251 992 q 307 882 307 936 l 307 408 q 361 228 307 289 q 518 168 415 168 q 674 228 621 168 q 728 408 728 289 l 728 882 q 756 964 728 936 q 835 992 783 992 q 913 964 886 992 q 940 882 940 936 l 940 410 q 892 174 940 269 q 751 32 844 79 q 518 -15 657 -15 m 351 1086 q 302 1101 319 1086 q 285 1146 285 1117 q 302 1189 285 1174 q 351 1204 319 1204 l 685 1204 q 734 1189 717 1204 q 751 1146 751 1174 q 734 1101 751 1117 q 685 1086 717 1086 l 351 1086 m 382 1260 q 309 1278 335 1260 q 283 1333 283 1297 q 309 1388 283 1368 q 382 1408 335 1408 q 454 1388 429 1408 q 479 1333 479 1368 q 454 1278 479 1297 q 382 1260 429 1260 m 656 1260 q 583 1278 608 1260 q 557 1333 557 1297 q 583 1388 557 1368 q 656 1408 608 1408 q 728 1388 703 1408 q 753 1333 753 1368 q 728 1278 753 1297 q 656 1260 703 1260 z "},"Ų":{"ha":1032,"x_min":92,"x_max":940,"o":"m 518 -15 q 334 12 414 -15 q 200 92 254 39 q 119 224 146 144 q 92 410 92 304 l 92 882 q 119 964 92 936 q 200 992 147 992 q 279 964 251 992 q 307 882 307 936 l 307 408 q 361 228 307 289 q 518 168 415 168 q 674 228 621 168 q 728 408 728 289 l 728 882 q 756 964 728 936 q 835 992 783 992 q 913 964 886 992 q 940 882 940 936 l 940 410 q 892 174 940 269 q 751 32 844 79 q 518 -15 657 -15 m 565 -274 q 438 -233 483 -274 q 392 -124 392 -192 q 432 -12 392 -62 q 539 63 472 38 l 597 0 q 556 -25 574 -10 q 528 -60 538 -40 q 518 -100 518 -79 q 540 -149 518 -132 q 594 -167 563 -167 q 614 -165 604 -167 q 633 -161 624 -164 q 678 -167 663 -156 q 697 -197 694 -178 q 690 -235 700 -217 q 656 -261 681 -253 q 608 -272 632 -269 q 565 -274 585 -274 z "},"Ů":{"ha":1032,"x_min":92,"x_max":940,"o":"m 518 -15 q 334 12 414 -15 q 200 92 254 39 q 119 224 146 144 q 92 410 92 304 l 92 882 q 119 964 92 936 q 200 992 147 992 q 279 964 251 992 q 307 882 307 936 l 307 408 q 361 228 307 289 q 518 168 415 168 q 674 228 621 168 q 728 408 728 289 l 728 882 q 756 964 728 936 q 835 992 783 992 q 913 964 886 992 q 940 882 940 936 l 940 410 q 892 174 940 269 q 751 32 844 79 q 518 -15 657 -15 m 518 1046 q 426 1069 468 1046 q 361 1133 385 1093 q 338 1222 338 1174 q 361 1312 338 1272 q 426 1374 385 1351 q 518 1397 468 1397 q 610 1374 569 1397 q 675 1312 651 1351 q 699 1222 699 1272 q 675 1133 699 1174 q 610 1069 651 1093 q 518 1046 569 1046 m 518 1136 q 579 1161 556 1136 q 603 1222 603 1186 q 579 1283 603 1260 q 518 1307 556 1307 q 458 1283 482 1307 q 433 1222 433 1260 q 458 1161 433 1186 q 518 1136 482 1136 z "},"Ũ":{"ha":1032,"x_min":92,"x_max":940,"o":"m 518 -15 q 334 12 414 -15 q 200 92 254 39 q 119 224 146 144 q 92 410 92 304 l 92 882 q 119 964 92 936 q 200 992 147 992 q 279 964 251 992 q 307 882 307 936 l 307 408 q 361 228 307 289 q 518 168 415 168 q 674 228 621 168 q 728 408 728 289 l 728 882 q 756 964 728 936 q 835 992 783 992 q 913 964 886 992 q 940 882 940 936 l 940 410 q 892 174 940 269 q 751 32 844 79 q 518 -15 657 -15 m 251 1060 q 211 1076 225 1061 q 203 1119 197 1092 q 272 1244 221 1200 q 394 1288 324 1288 q 467 1275 433 1288 q 531 1246 500 1263 q 590 1217 561 1229 q 646 1204 618 1204 q 699 1219 678 1204 q 728 1257 719 1233 q 751 1289 738 1278 q 785 1297 764 1300 q 825 1281 811 1296 q 833 1238 839 1265 q 766 1113 817 1157 q 643 1069 715 1069 q 570 1082 604 1069 q 506 1111 536 1094 q 447 1140 475 1128 q 390 1153 418 1153 q 338 1138 360 1153 q 308 1100 317 1124 q 286 1069 299 1081 q 251 1060 274 1058 z "},"Ṹ":{"ha":1032,"x_min":92,"x_max":940,"o":"m 518 -15 q 334 12 414 -15 q 200 92 254 39 q 119 224 146 144 q 92 410 92 304 l 92 882 q 119 964 92 936 q 200 992 147 992 q 279 964 251 992 q 307 882 307 936 l 307 408 q 361 228 307 289 q 518 168 415 168 q 674 228 621 168 q 728 408 728 289 l 728 882 q 756 964 728 936 q 835 992 783 992 q 913 964 886 992 q 940 882 940 936 l 940 410 q 892 174 940 269 q 751 32 844 79 q 518 -15 657 -15 m 582 1253 q 543 1230 565 1232 q 503 1238 521 1228 q 479 1268 486 1249 q 483 1310 472 1288 l 540 1417 q 577 1452 554 1444 q 624 1453 600 1460 q 664 1430 647 1447 q 683 1390 681 1413 q 663 1343 685 1367 l 582 1253 m 317 1061 q 282 1078 294 1063 q 276 1118 269 1094 q 332 1197 293 1169 q 425 1224 371 1224 q 494 1210 463 1224 q 553 1183 525 1197 q 606 1169 581 1169 q 640 1175 624 1169 q 663 1194 656 1181 q 688 1219 675 1210 q 719 1228 700 1229 q 756 1211 743 1226 q 760 1169 768 1196 q 706 1091 744 1118 q 613 1064 667 1064 q 543 1078 575 1064 q 484 1106 511 1092 q 432 1119 457 1119 q 397 1113 413 1119 q 375 1093 382 1107 q 351 1069 364 1079 q 317 1061 338 1060 z "},"V":{"ha":1010,"x_min":17,"x_max":993,"o":"m 506 -12 q 433 8 461 -12 q 386 69 404 28 l 36 847 q 25 922 17 889 q 60 973 33 954 q 124 992 86 992 q 196 970 171 992 q 238 907 221 949 l 544 197 l 475 197 l 782 908 q 825 971 800 950 q 894 992 850 992 q 956 973 932 992 q 987 922 981 954 q 975 847 993 889 l 625 69 q 578 8 606 28 q 506 -12 551 -12 z "},"W":{"ha":1556,"x_min":46,"x_max":1513,"o":"m 461 -12 q 389 9 417 -12 q 344 75 361 31 l 64 864 q 72 954 46 917 q 161 992 97 992 q 230 971 206 992 q 269 906 254 950 l 499 224 l 439 224 l 681 904 q 722 970 697 949 q 786 992 746 992 q 849 970 825 992 q 889 903 872 949 l 1119 224 l 1068 224 l 1301 906 q 1340 970 1315 949 q 1408 992 1365 992 q 1488 954 1463 992 q 1493 864 1513 917 l 1210 74 q 1168 9 1194 31 q 1096 -12 1142 -12 q 1025 9 1051 -12 q 982 75 999 31 l 763 696 l 796 696 l 574 74 q 531 9 557 31 q 461 -12 506 -12 z "},"Ẃ":{"ha":1556,"x_min":46,"x_max":1513,"o":"m 461 -12 q 389 9 417 -12 q 344 75 361 31 l 64 864 q 72 954 46 917 q 161 992 97 992 q 230 971 206 992 q 269 906 254 950 l 499 224 l 439 224 l 681 904 q 722 970 697 949 q 786 992 746 992 q 849 970 825 992 q 889 903 872 949 l 1119 224 l 1068 224 l 1301 906 q 1340 970 1315 949 q 1408 992 1365 992 q 1488 954 1463 992 q 1493 864 1513 917 l 1210 74 q 1168 9 1194 31 q 1096 -12 1142 -12 q 1025 9 1051 -12 q 982 75 999 31 l 763 696 l 796 696 l 574 74 q 531 9 557 31 q 461 -12 506 -12 m 863 1072 q 818 1051 842 1051 q 776 1065 794 1050 q 751 1100 757 1079 q 761 1143 746 1121 l 861 1290 q 902 1323 878 1318 q 951 1319 926 1328 q 990 1291 975 1310 q 1007 1249 1006 1272 q 988 1204 1008 1226 l 863 1072 z "},"Ŵ":{"ha":1556,"x_min":46,"x_max":1513,"o":"m 461 -12 q 389 9 417 -12 q 344 75 361 31 l 64 864 q 72 954 46 917 q 161 992 97 992 q 230 971 206 992 q 269 906 254 950 l 499 224 l 439 224 l 681 904 q 722 970 697 949 q 786 992 746 992 q 849 970 825 992 q 889 903 872 949 l 1119 224 l 1068 224 l 1301 906 q 1340 970 1315 949 q 1408 992 1365 992 q 1488 954 1463 992 q 1493 864 1513 917 l 1210 74 q 1168 9 1194 31 q 1096 -12 1142 -12 q 1025 9 1051 -12 q 982 75 999 31 l 763 696 l 796 696 l 574 74 q 531 9 557 31 q 461 -12 506 -12 m 672 1074 q 628 1050 653 1051 q 585 1061 604 1049 q 560 1094 567 1074 q 571 1136 554 1114 l 660 1260 q 713 1309 683 1293 q 779 1325 743 1325 q 847 1309 817 1325 q 900 1260 876 1293 l 988 1136 q 999 1094 1004 1114 q 974 1061 993 1074 q 931 1050 956 1049 q 888 1074 907 1051 l 779 1194 l 672 1074 z "},"Ẅ":{"ha":1556,"x_min":46,"x_max":1513,"o":"m 461 -12 q 389 9 417 -12 q 344 75 361 31 l 64 864 q 72 954 46 917 q 161 992 97 992 q 230 971 206 992 q 269 906 254 950 l 499 224 l 439 224 l 681 904 q 722 970 697 949 q 786 992 746 992 q 849 970 825 992 q 889 903 872 949 l 1119 224 l 1068 224 l 1301 906 q 1340 970 1315 949 q 1408 992 1365 992 q 1488 954 1463 992 q 1493 864 1513 917 l 1210 74 q 1168 9 1194 31 q 1096 -12 1142 -12 q 1025 9 1051 -12 q 982 75 999 31 l 763 696 l 796 696 l 574 74 q 531 9 557 31 q 461 -12 506 -12 m 917 1078 q 844 1103 869 1078 q 818 1176 818 1129 q 844 1249 818 1224 q 917 1274 869 1274 q 989 1249 964 1274 q 1014 1176 1014 1224 q 989 1103 1014 1129 q 917 1078 964 1078 m 643 1078 q 570 1103 596 1078 q 544 1176 544 1129 q 570 1249 544 1224 q 643 1274 596 1274 q 715 1249 690 1274 q 740 1176 740 1224 q 715 1103 740 1129 q 643 1078 690 1078 z "},"Ẁ":{"ha":1556,"x_min":46,"x_max":1513,"o":"m 461 -12 q 389 9 417 -12 q 344 75 361 31 l 64 864 q 72 954 46 917 q 161 992 97 992 q 230 971 206 992 q 269 906 254 950 l 499 224 l 439 224 l 681 904 q 722 970 697 949 q 786 992 746 992 q 849 970 825 992 q 889 903 872 949 l 1119 224 l 1068 224 l 1301 906 q 1340 970 1315 949 q 1408 992 1365 992 q 1488 954 1463 992 q 1493 864 1513 917 l 1210 74 q 1168 9 1194 31 q 1096 -12 1142 -12 q 1025 9 1051 -12 q 982 75 999 31 l 763 696 l 796 696 l 574 74 q 531 9 557 31 q 461 -12 506 -12 m 697 1072 l 572 1204 q 553 1249 551 1226 q 569 1291 554 1272 q 608 1319 585 1310 q 657 1323 632 1328 q 699 1290 682 1318 l 799 1143 q 807 1100 813 1121 q 783 1065 801 1079 q 740 1051 764 1050 q 697 1072 717 1051 z "},"X":{"ha":951,"x_min":56,"x_max":896,"o":"m 160 -12 q 91 10 118 -12 q 60 67 64 33 q 82 138 56 101 l 389 544 l 389 449 l 94 840 q 72 912 68 878 q 102 969 75 946 q 169 992 129 992 q 230 975 204 992 q 282 922 256 958 l 511 606 l 442 606 l 669 922 q 722 976 696 960 q 783 992 749 992 q 852 969 825 992 q 883 913 879 947 q 858 840 886 879 l 563 449 l 563 544 l 868 138 q 892 67 896 101 q 862 10 889 33 q 792 -12 835 -12 q 733 4 758 -12 q 679 58 707 21 l 440 388 l 511 388 l 272 58 q 219 4 246 21 q 160 -12 193 -12 z "},"Y":{"ha":876,"x_min":28,"x_max":851,"o":"m 439 -12 q 358 17 386 -12 q 331 100 331 46 l 331 503 l 375 379 l 47 844 q 31 908 28 874 q 58 967 33 942 q 129 992 83 992 q 190 975 163 992 q 242 922 217 958 l 464 601 l 419 601 l 642 922 q 694 976 668 960 q 754 992 719 992 q 824 969 799 992 q 850 912 849 946 q 826 842 851 878 l 503 379 l 546 503 l 546 100 q 439 -12 546 -12 z "},"Ý":{"ha":876,"x_min":28,"x_max":851,"o":"m 439 -12 q 358 17 386 -12 q 331 100 331 46 l 331 503 l 375 379 l 47 844 q 31 908 28 874 q 58 967 33 942 q 129 992 83 992 q 190 975 163 992 q 242 922 217 958 l 464 601 l 419 601 l 642 922 q 694 976 668 960 q 754 992 719 992 q 824 969 799 992 q 850 912 849 946 q 826 842 851 878 l 503 379 l 546 503 l 546 100 q 439 -12 546 -12 m 521 1072 q 476 1051 500 1051 q 434 1065 453 1050 q 410 1100 415 1079 q 419 1143 404 1121 l 519 1290 q 560 1323 536 1318 q 609 1319 585 1328 q 649 1291 633 1310 q 665 1249 664 1272 q 646 1204 667 1226 l 521 1072 z "},"Ŷ":{"ha":876,"x_min":28,"x_max":851,"o":"m 439 -12 q 358 17 386 -12 q 331 100 331 46 l 331 503 l 375 379 l 47 844 q 31 908 28 874 q 58 967 33 942 q 129 992 83 992 q 190 975 163 992 q 242 922 217 958 l 464 601 l 419 601 l 642 922 q 694 976 668 960 q 754 992 719 992 q 824 969 799 992 q 850 912 849 946 q 826 842 851 878 l 503 379 l 546 503 l 546 100 q 439 -12 546 -12 m 331 1074 q 287 1050 311 1051 q 244 1061 263 1049 q 219 1094 225 1074 q 229 1136 213 1114 l 318 1260 q 372 1309 342 1293 q 438 1325 401 1325 q 505 1309 475 1325 q 558 1260 535 1293 l 646 1136 q 657 1094 663 1114 q 633 1061 651 1074 q 590 1050 614 1049 q 546 1074 565 1051 l 438 1194 l 331 1074 z "},"Ÿ":{"ha":876,"x_min":28,"x_max":851,"o":"m 439 -12 q 358 17 386 -12 q 331 100 331 46 l 331 503 l 375 379 l 47 844 q 31 908 28 874 q 58 967 33 942 q 129 992 83 992 q 190 975 163 992 q 242 922 217 958 l 464 601 l 419 601 l 642 922 q 694 976 668 960 q 754 992 719 992 q 824 969 799 992 q 850 912 849 946 q 826 842 851 878 l 503 379 l 546 503 l 546 100 q 439 -12 546 -12 m 575 1078 q 502 1103 528 1078 q 476 1176 476 1129 q 502 1249 476 1224 q 575 1274 528 1274 q 647 1249 622 1274 q 672 1176 672 1224 q 647 1103 672 1129 q 575 1078 622 1078 m 301 1078 q 228 1103 254 1078 q 203 1176 203 1129 q 228 1249 203 1224 q 301 1274 254 1274 q 374 1249 349 1274 q 399 1176 399 1224 q 374 1103 399 1129 q 301 1078 349 1078 z "},"Ẏ":{"ha":876,"x_min":28,"x_max":851,"o":"m 439 -12 q 358 17 386 -12 q 331 100 331 46 l 331 503 l 375 379 l 47 844 q 31 908 28 874 q 58 967 33 942 q 129 992 83 992 q 190 975 163 992 q 242 922 217 958 l 464 601 l 419 601 l 642 922 q 694 976 668 960 q 754 992 719 992 q 824 969 799 992 q 850 912 849 946 q 826 842 851 878 l 503 379 l 546 503 l 546 100 q 439 -12 546 -12 m 438 1085 q 360 1111 388 1085 q 333 1185 333 1138 q 360 1257 333 1232 q 438 1282 388 1282 q 515 1257 489 1282 q 542 1185 542 1232 q 515 1110 542 1136 q 438 1085 489 1085 z "},"Ỵ":{"ha":876,"x_min":28,"x_max":851,"o":"m 439 -12 q 358 17 386 -12 q 331 100 331 46 l 331 503 l 375 379 l 47 844 q 31 908 28 874 q 58 967 33 942 q 129 992 83 992 q 190 975 163 992 q 242 922 217 958 l 464 601 l 419 601 l 642 922 q 694 976 668 960 q 754 992 719 992 q 824 969 799 992 q 850 912 849 946 q 826 842 851 878 l 503 379 l 546 503 l 546 100 q 439 -12 546 -12 m 440 -304 q 363 -278 390 -304 q 336 -206 336 -253 q 363 -132 336 -157 q 440 -107 390 -107 q 518 -132 492 -107 q 544 -206 544 -157 q 518 -278 544 -253 q 440 -304 492 -304 z "},"Ỳ":{"ha":876,"x_min":28,"x_max":851,"o":"m 439 -12 q 358 17 386 -12 q 331 100 331 46 l 331 503 l 375 379 l 47 844 q 31 908 28 874 q 58 967 33 942 q 129 992 83 992 q 190 975 163 992 q 242 922 217 958 l 464 601 l 419 601 l 642 922 q 694 976 668 960 q 754 992 719 992 q 824 969 799 992 q 850 912 849 946 q 826 842 851 878 l 503 379 l 546 503 l 546 100 q 439 -12 546 -12 m 356 1072 l 231 1204 q 211 1249 210 1226 q 228 1291 213 1272 q 267 1319 243 1310 q 315 1323 290 1328 q 357 1290 340 1318 l 457 1143 q 465 1100 471 1121 q 441 1065 460 1079 q 399 1051 422 1050 q 356 1072 375 1051 z "},"Ƴ":{"ha":894,"x_min":28,"x_max":979,"o":"m 439 -12 q 358 17 386 -12 q 331 101 331 46 l 331 503 l 375 379 l 47 844 q 31 908 28 874 q 58 967 33 942 q 131 992 83 992 q 178 984 160 992 q 213 958 197 976 q 250 910 229 940 l 464 601 l 419 601 l 590 853 q 661 931 624 900 q 745 977 699 961 q 849 993 792 993 q 945 976 911 993 q 979 906 979 960 q 972 867 979 882 q 951 844 964 851 q 924 838 939 836 q 905 838 914 838 q 888 839 896 839 q 828 824 857 839 q 775 774 799 808 l 503 379 l 546 503 l 546 101 q 439 -12 546 -12 z "},"Ỷ":{"ha":876,"x_min":28,"x_max":851,"o":"m 439 -12 q 358 17 386 -12 q 331 100 331 46 l 331 503 l 375 379 l 47 844 q 31 908 28 874 q 58 967 33 942 q 129 992 83 992 q 190 975 163 992 q 242 922 217 958 l 464 601 l 419 601 l 642 922 q 694 976 668 960 q 754 992 719 992 q 824 969 799 992 q 850 912 849 946 q 826 842 851 878 l 503 379 l 546 503 l 546 100 q 439 -12 546 -12 m 438 1050 q 392 1060 408 1050 q 376 1089 376 1069 q 387 1126 376 1113 q 412 1151 397 1140 q 438 1173 426 1163 q 449 1196 449 1183 q 435 1215 449 1208 q 399 1221 422 1221 q 377 1219 389 1221 q 354 1217 365 1218 q 315 1216 331 1211 q 290 1240 299 1221 q 290 1276 283 1260 q 322 1300 297 1292 q 381 1313 347 1308 q 451 1317 414 1317 q 563 1293 522 1317 q 604 1228 604 1269 q 588 1178 604 1196 q 551 1147 572 1160 q 515 1119 531 1133 q 500 1081 500 1104 q 484 1058 500 1067 q 438 1050 468 1050 z "},"Ȳ":{"ha":876,"x_min":28,"x_max":851,"o":"m 439 -12 q 358 17 386 -12 q 331 100 331 46 l 331 503 l 375 379 l 47 844 q 31 908 28 874 q 58 967 33 942 q 129 992 83 992 q 190 975 163 992 q 242 922 217 958 l 464 601 l 419 601 l 642 922 q 694 976 668 960 q 754 992 719 992 q 824 969 799 992 q 850 912 849 946 q 826 842 851 878 l 503 379 l 546 503 l 546 100 q 439 -12 546 -12 m 243 1113 q 182 1172 182 1113 q 198 1215 182 1200 q 243 1231 214 1231 l 632 1231 q 694 1172 694 1231 q 678 1128 694 1144 q 632 1113 663 1113 l 243 1113 z "},"Ỹ":{"ha":876,"x_min":28,"x_max":851,"o":"m 439 -12 q 358 17 386 -12 q 331 100 331 46 l 331 503 l 375 379 l 47 844 q 31 908 28 874 q 58 967 33 942 q 129 992 83 992 q 190 975 163 992 q 242 922 217 958 l 464 601 l 419 601 l 642 922 q 694 976 668 960 q 754 992 719 992 q 824 969 799 992 q 850 912 849 946 q 826 842 851 878 l 503 379 l 546 503 l 546 100 q 439 -12 546 -12 m 171 1060 q 131 1076 144 1061 q 122 1119 117 1092 q 192 1244 140 1200 q 314 1288 243 1288 q 386 1275 353 1288 q 450 1246 419 1263 q 509 1217 481 1229 q 565 1204 538 1204 q 618 1219 597 1204 q 647 1257 639 1233 q 670 1289 657 1278 q 704 1297 683 1300 q 744 1281 731 1296 q 753 1238 758 1265 q 685 1113 736 1157 q 563 1069 635 1069 q 490 1082 524 1069 q 425 1111 456 1094 q 366 1140 394 1128 q 310 1153 338 1153 q 258 1138 279 1153 q 228 1100 236 1124 q 206 1069 218 1081 q 171 1060 193 1058 z "},"Z":{"ha":854,"x_min":50,"x_max":838,"o":"m 163 0 q 94 17 121 0 q 59 65 68 35 q 59 131 50 94 q 97 203 68 167 l 603 865 l 603 800 l 146 800 q 76 824 100 800 q 51 890 51 847 q 76 956 51 933 q 146 979 100 979 l 704 979 q 773 962 747 979 q 808 915 799 944 q 808 849 818 886 q 769 776 799 813 l 264 115 l 264 179 l 743 179 q 813 156 789 179 q 838 90 838 133 q 813 23 838 46 q 743 0 789 0 l 163 0 z "},"Ź":{"ha":854,"x_min":50,"x_max":838,"o":"m 163 0 q 94 17 121 0 q 59 65 68 35 q 59 131 50 94 q 97 203 68 167 l 603 865 l 603 800 l 146 800 q 76 824 100 800 q 51 890 51 847 q 76 956 51 933 q 146 979 100 979 l 704 979 q 773 962 747 979 q 808 915 799 944 q 808 849 818 886 q 769 776 799 813 l 264 115 l 264 179 l 743 179 q 813 156 789 179 q 838 90 838 133 q 813 23 838 46 q 743 0 789 0 l 163 0 m 524 1072 q 479 1051 503 1051 q 437 1065 456 1050 q 413 1100 418 1079 q 422 1143 407 1121 l 522 1290 q 563 1323 539 1318 q 612 1319 588 1328 q 651 1291 636 1310 q 668 1249 667 1272 q 649 1204 669 1226 l 524 1072 z "},"Ž":{"ha":854,"x_min":50,"x_max":838,"o":"m 163 0 q 94 17 121 0 q 59 65 68 35 q 59 131 50 94 q 97 203 68 167 l 603 865 l 603 800 l 146 800 q 76 824 100 800 q 51 890 51 847 q 76 956 51 933 q 146 979 100 979 l 704 979 q 773 962 747 979 q 808 915 799 944 q 808 849 818 886 q 769 776 799 813 l 264 115 l 264 179 l 743 179 q 813 156 789 179 q 838 90 838 133 q 813 23 838 46 q 743 0 789 0 l 163 0 m 440 1043 q 374 1059 404 1043 q 321 1108 344 1075 l 232 1232 q 222 1275 215 1254 q 247 1308 228 1296 q 290 1319 267 1321 q 333 1294 314 1317 l 440 1172 l 549 1294 q 592 1319 568 1317 q 634 1308 615 1321 q 659 1276 653 1296 q 649 1232 665 1256 l 561 1108 q 508 1059 538 1075 q 440 1043 478 1043 z "},"Ż":{"ha":854,"x_min":50,"x_max":838,"o":"m 163 0 q 94 17 121 0 q 59 65 68 35 q 59 131 50 94 q 97 203 68 167 l 603 865 l 603 800 l 146 800 q 76 824 100 800 q 51 890 51 847 q 76 956 51 933 q 146 979 100 979 l 704 979 q 773 962 747 979 q 808 915 799 944 q 808 849 818 886 q 769 776 799 813 l 264 115 l 264 179 l 743 179 q 813 156 789 179 q 838 90 838 133 q 813 23 838 46 q 743 0 789 0 l 163 0 m 440 1085 q 363 1111 390 1085 q 336 1185 336 1138 q 363 1257 336 1232 q 440 1282 390 1282 q 518 1257 492 1282 q 544 1185 544 1232 q 518 1110 544 1136 q 440 1085 492 1085 z "},"Ẓ":{"ha":854,"x_min":50,"x_max":838,"o":"m 163 0 q 94 17 121 0 q 59 65 68 35 q 59 131 50 94 q 97 203 68 167 l 603 865 l 603 800 l 146 800 q 76 824 100 800 q 51 890 51 847 q 76 956 51 933 q 146 979 100 979 l 704 979 q 773 962 747 979 q 808 915 799 944 q 808 849 818 886 q 769 776 799 813 l 264 115 l 264 179 l 743 179 q 813 156 789 179 q 838 90 838 133 q 813 23 838 46 q 743 0 789 0 l 163 0 m 442 -304 q 365 -278 392 -304 q 338 -206 338 -253 q 365 -132 338 -157 q 442 -107 392 -107 q 519 -132 493 -107 q 546 -206 546 -157 q 519 -278 546 -253 q 442 -304 493 -304 z "},"a":{"ha":774,"x_min":50,"x_max":697,"o":"m 311 -15 q 176 14 236 -15 q 83 93 117 43 q 50 206 50 143 q 89 324 50 281 q 215 387 128 368 q 447 406 303 406 l 521 406 l 521 297 l 449 297 q 334 290 378 297 q 272 264 290 282 q 253 214 253 246 q 280 150 253 175 q 358 125 307 125 q 430 144 399 125 q 479 195 461 163 q 497 269 497 228 l 497 429 q 469 516 497 490 q 375 542 442 542 q 294 533 338 542 q 197 503 250 524 q 143 497 167 489 q 107 524 119 504 q 94 569 94 544 q 108 616 94 593 q 154 650 122 639 q 277 686 219 676 q 383 696 335 696 q 559 665 490 696 q 663 569 628 633 q 697 403 697 504 l 697 94 q 672 15 697 43 q 600 -12 647 -12 q 527 15 553 -12 q 501 94 501 43 l 501 146 l 511 138 q 476 56 503 90 q 407 3 449 22 q 311 -15 365 -15 z "},"á":{"ha":774,"x_min":50,"x_max":697,"o":"m 311 -15 q 176 14 236 -15 q 83 93 117 43 q 50 206 50 143 q 89 324 50 281 q 215 387 128 368 q 447 406 303 406 l 521 406 l 521 297 l 449 297 q 334 290 378 297 q 272 264 290 282 q 253 214 253 246 q 280 150 253 175 q 358 125 307 125 q 430 144 399 125 q 479 195 461 163 q 497 269 497 228 l 497 429 q 469 516 497 490 q 375 542 442 542 q 294 533 338 542 q 197 503 250 524 q 143 497 167 489 q 107 524 119 504 q 94 569 94 544 q 108 616 94 593 q 154 650 122 639 q 277 686 219 676 q 383 696 335 696 q 559 665 490 696 q 663 569 628 633 q 697 403 697 504 l 697 94 q 672 15 697 43 q 600 -12 647 -12 q 527 15 553 -12 q 501 94 501 43 l 501 146 l 511 138 q 476 56 503 90 q 407 3 449 22 q 311 -15 365 -15 m 469 781 q 430 756 453 758 q 386 764 407 753 q 356 797 365 775 q 360 843 347 818 l 458 1039 q 497 1078 472 1069 q 547 1079 521 1086 q 591 1055 572 1072 q 614 1013 610 1038 q 599 961 618 988 l 469 781 z "},"ă":{"ha":774,"x_min":50,"x_max":697,"o":"m 311 -15 q 176 14 236 -15 q 83 93 117 43 q 50 206 50 143 q 89 324 50 281 q 215 387 128 368 q 447 406 303 406 l 521 406 l 521 297 l 449 297 q 334 290 378 297 q 272 264 290 282 q 253 214 253 246 q 280 150 253 175 q 358 125 307 125 q 430 144 399 125 q 479 195 461 163 q 497 269 497 228 l 497 429 q 469 516 497 490 q 375 542 442 542 q 294 533 338 542 q 197 503 250 524 q 143 497 167 489 q 107 524 119 504 q 94 569 94 544 q 108 616 94 593 q 154 650 122 639 q 277 686 219 676 q 383 696 335 696 q 559 665 490 696 q 663 569 628 633 q 697 403 697 504 l 697 94 q 672 15 697 43 q 600 -12 647 -12 q 527 15 553 -12 q 501 94 501 43 l 501 146 l 511 138 q 476 56 503 90 q 407 3 449 22 q 311 -15 365 -15 m 393 767 q 275 795 324 767 q 197 872 226 824 q 158 976 168 919 q 168 1029 153 1010 q 210 1051 183 1049 q 254 1038 239 1053 q 279 993 269 1024 q 321 915 290 942 q 393 889 351 889 q 466 915 435 889 q 507 993 497 942 q 533 1038 517 1024 q 576 1051 549 1053 q 619 1029 603 1049 q 628 976 635 1010 q 590 872 619 919 q 511 795 560 824 q 393 767 463 767 z "},"ắ":{"ha":774,"x_min":50,"x_max":697,"o":"m 311 -15 q 176 14 236 -15 q 83 93 117 43 q 50 206 50 143 q 89 324 50 281 q 215 387 128 368 q 447 406 303 406 l 521 406 l 521 297 l 449 297 q 334 290 378 297 q 272 264 290 282 q 253 214 253 246 q 280 150 253 175 q 358 125 307 125 q 430 144 399 125 q 479 195 461 163 q 497 269 497 228 l 497 429 q 469 516 497 490 q 375 542 442 542 q 294 533 338 542 q 197 503 250 524 q 143 497 167 489 q 107 524 119 504 q 94 569 94 544 q 108 616 94 593 q 154 650 122 639 q 277 686 219 676 q 383 696 335 696 q 559 665 490 696 q 663 569 628 633 q 697 403 697 504 l 697 94 q 672 15 697 43 q 600 -12 647 -12 q 527 15 553 -12 q 501 94 501 43 l 501 146 l 511 138 q 476 56 503 90 q 407 3 449 22 q 311 -15 365 -15 m 393 767 q 240 810 301 767 q 156 928 178 854 q 158 976 147 957 q 190 996 168 994 q 228 990 214 999 q 256 957 243 982 q 306 901 272 922 q 393 879 339 879 q 481 901 447 879 q 531 957 515 922 q 558 990 543 981 q 596 996 574 999 q 629 977 618 994 q 632 931 640 960 q 586 844 619 881 q 504 787 553 807 q 393 767 456 767 m 449 954 q 409 932 431 935 q 369 940 388 929 q 344 969 351 950 q 350 1011 338 989 l 407 1121 q 444 1156 421 1149 q 490 1157 467 1164 q 531 1133 514 1150 q 549 1092 547 1115 q 529 1044 551 1068 l 449 954 z "},"ặ":{"ha":774,"x_min":50,"x_max":697,"o":"m 311 -15 q 176 14 236 -15 q 83 93 117 43 q 50 206 50 143 q 89 324 50 281 q 215 387 128 368 q 447 406 303 406 l 521 406 l 521 297 l 449 297 q 334 290 378 297 q 272 264 290 282 q 253 214 253 246 q 280 150 253 175 q 358 125 307 125 q 430 144 399 125 q 479 195 461 163 q 497 269 497 228 l 497 429 q 469 516 497 490 q 375 542 442 542 q 294 533 338 542 q 197 503 250 524 q 143 497 167 489 q 107 524 119 504 q 94 569 94 544 q 108 616 94 593 q 154 650 122 639 q 277 686 219 676 q 383 696 335 696 q 559 665 490 696 q 663 569 628 633 q 697 403 697 504 l 697 94 q 672 15 697 43 q 600 -12 647 -12 q 527 15 553 -12 q 501 94 501 43 l 501 146 l 511 138 q 476 56 503 90 q 407 3 449 22 q 311 -15 365 -15 m 388 -304 q 310 -278 338 -304 q 283 -206 283 -253 q 310 -132 283 -157 q 388 -107 338 -107 q 465 -132 439 -107 q 492 -206 492 -157 q 465 -278 492 -253 q 388 -304 439 -304 m 393 767 q 275 795 324 767 q 197 872 226 824 q 158 976 168 919 q 168 1029 153 1010 q 210 1051 183 1049 q 254 1038 239 1053 q 279 993 269 1024 q 321 915 290 942 q 393 889 351 889 q 466 915 435 889 q 507 993 497 942 q 533 1038 517 1024 q 576 1051 549 1053 q 619 1029 603 1049 q 628 976 635 1010 q 590 872 619 919 q 511 795 560 824 q 393 767 463 767 z "},"ằ":{"ha":774,"x_min":50,"x_max":697,"o":"m 311 -15 q 176 14 236 -15 q 83 93 117 43 q 50 206 50 143 q 89 324 50 281 q 215 387 128 368 q 447 406 303 406 l 521 406 l 521 297 l 449 297 q 334 290 378 297 q 272 264 290 282 q 253 214 253 246 q 280 150 253 175 q 358 125 307 125 q 430 144 399 125 q 479 195 461 163 q 497 269 497 228 l 497 429 q 469 516 497 490 q 375 542 442 542 q 294 533 338 542 q 197 503 250 524 q 143 497 167 489 q 107 524 119 504 q 94 569 94 544 q 108 616 94 593 q 154 650 122 639 q 277 686 219 676 q 383 696 335 696 q 559 665 490 696 q 663 569 628 633 q 697 403 697 504 l 697 94 q 672 15 697 43 q 600 -12 647 -12 q 527 15 553 -12 q 501 94 501 43 l 501 146 l 511 138 q 476 56 503 90 q 407 3 449 22 q 311 -15 365 -15 m 393 767 q 239 810 301 767 q 156 928 176 854 q 158 976 147 957 q 190 996 168 994 q 228 990 214 999 q 256 957 243 982 q 306 901 272 922 q 393 879 339 879 q 481 901 447 879 q 531 957 515 922 q 558 990 543 981 q 596 996 574 999 q 629 977 618 994 q 632 931 640 960 q 585 844 618 881 q 503 787 551 807 q 393 767 456 767 m 338 954 l 257 1044 q 237 1092 235 1068 q 256 1133 239 1115 q 296 1157 272 1150 q 342 1156 319 1164 q 379 1121 365 1149 l 436 1011 q 442 969 449 989 q 417 940 435 950 q 377 932 399 929 q 338 954 356 935 z "},"ẳ":{"ha":774,"x_min":50,"x_max":697,"o":"m 311 -15 q 176 14 236 -15 q 83 93 117 43 q 50 206 50 143 q 89 324 50 281 q 215 387 128 368 q 447 406 303 406 l 521 406 l 521 297 l 449 297 q 334 290 378 297 q 272 264 290 282 q 253 214 253 246 q 280 150 253 175 q 358 125 307 125 q 430 144 399 125 q 479 195 461 163 q 497 269 497 228 l 497 429 q 469 516 497 490 q 375 542 442 542 q 294 533 338 542 q 197 503 250 524 q 143 497 167 489 q 107 524 119 504 q 94 569 94 544 q 108 616 94 593 q 154 650 122 639 q 277 686 219 676 q 383 696 335 696 q 559 665 490 696 q 663 569 628 633 q 697 403 697 504 l 697 94 q 672 15 697 43 q 600 -12 647 -12 q 527 15 553 -12 q 501 94 501 43 l 501 146 l 511 138 q 476 56 503 90 q 407 3 449 22 q 311 -15 365 -15 m 393 767 q 239 810 301 767 q 156 928 176 854 q 158 976 147 957 q 190 996 168 994 q 228 990 214 999 q 256 957 243 982 q 306 901 272 922 q 393 879 339 879 q 481 901 447 879 q 531 957 515 922 q 558 990 543 981 q 596 996 574 999 q 629 977 618 994 q 632 931 640 960 q 586 844 619 881 q 504 787 553 807 q 393 767 456 767 m 439 944 q 406 936 424 936 q 374 943 389 936 q 356 961 360 950 q 367 985 353 972 q 392 1012 385 1000 q 400 1039 400 1024 q 389 1060 400 1053 q 357 1067 378 1067 q 338 1065 349 1067 q 317 1063 328 1064 q 282 1063 296 1057 q 261 1086 268 1069 q 263 1117 256 1103 q 293 1138 269 1131 q 345 1148 318 1144 q 403 1151 372 1151 q 501 1132 465 1151 q 536 1072 536 1113 q 522 1024 536 1047 q 486 980 508 1000 q 439 944 464 960 z "},"ẵ":{"ha":774,"x_min":50,"x_max":697,"o":"m 311 -15 q 176 14 236 -15 q 83 93 117 43 q 50 206 50 143 q 89 324 50 281 q 215 387 128 368 q 447 406 303 406 l 521 406 l 521 297 l 449 297 q 334 290 378 297 q 272 264 290 282 q 253 214 253 246 q 280 150 253 175 q 358 125 307 125 q 430 144 399 125 q 479 195 461 163 q 497 269 497 228 l 497 429 q 469 516 497 490 q 375 542 442 542 q 294 533 338 542 q 197 503 250 524 q 143 497 167 489 q 107 524 119 504 q 94 569 94 544 q 108 616 94 593 q 154 650 122 639 q 277 686 219 676 q 383 696 335 696 q 559 665 490 696 q 663 569 628 633 q 697 403 697 504 l 697 94 q 672 15 697 43 q 600 -12 647 -12 q 527 15 553 -12 q 501 94 501 43 l 501 146 l 511 138 q 476 56 503 90 q 407 3 449 22 q 311 -15 365 -15 m 393 767 q 253 797 313 767 q 167 876 194 828 q 159 922 151 903 q 189 949 167 942 q 229 950 214 957 q 263 926 244 943 q 313 892 281 904 q 393 879 346 879 q 473 892 440 879 q 524 926 506 904 q 557 951 540 944 q 597 949 574 957 q 628 924 619 942 q 622 881 636 906 q 535 798 594 829 q 393 767 476 767 m 192 988 q 157 1004 169 989 q 151 1044 144 1019 q 207 1123 168 1096 q 300 1150 246 1150 q 369 1136 338 1150 q 428 1109 400 1122 q 481 1096 456 1096 q 515 1101 499 1096 q 538 1121 531 1107 q 563 1146 550 1136 q 594 1154 575 1156 q 631 1138 618 1153 q 635 1096 643 1122 q 581 1017 619 1044 q 488 990 542 990 q 418 1004 450 990 q 359 1032 386 1018 q 307 1046 332 1046 q 272 1040 288 1046 q 250 1019 257 1033 q 226 996 239 1006 q 192 988 213 986 z "},"ǎ":{"ha":774,"x_min":50,"x_max":697,"o":"m 311 -15 q 176 14 236 -15 q 83 93 117 43 q 50 206 50 143 q 89 324 50 281 q 215 387 128 368 q 447 406 303 406 l 521 406 l 521 297 l 449 297 q 334 290 378 297 q 272 264 290 282 q 253 214 253 246 q 280 150 253 175 q 358 125 307 125 q 430 144 399 125 q 479 195 461 163 q 497 269 497 228 l 497 429 q 469 516 497 490 q 375 542 442 542 q 294 533 338 542 q 197 503 250 524 q 143 497 167 489 q 107 524 119 504 q 94 569 94 544 q 108 616 94 593 q 154 650 122 639 q 277 686 219 676 q 383 696 335 696 q 559 665 490 696 q 663 569 628 633 q 697 403 697 504 l 697 94 q 672 15 697 43 q 600 -12 647 -12 q 527 15 553 -12 q 501 94 501 43 l 501 146 l 511 138 q 476 56 503 90 q 407 3 449 22 q 311 -15 365 -15 m 393 743 q 326 763 356 743 q 278 819 297 783 l 188 985 q 181 1031 174 1010 q 208 1063 189 1053 q 250 1070 228 1074 q 288 1044 272 1067 l 393 885 l 499 1044 q 536 1070 514 1067 q 578 1063 558 1074 q 605 1031 597 1053 q 599 985 613 1010 l 510 819 q 461 763 490 783 q 393 743 432 743 z "}}}
